<svg width="24" height="24" viewBox="0 0 24 24" fill="none" xmlns="http://www.w3.org/2000/svg">
<g clip-path="url(#clip0_1_159)">
<path fill-rule="evenodd" clip-rule="evenodd" d="M2.26246 4.18008C2.42903 4.03759 2.64959 3.9751 2.86615 4.00905L12.1161 5.45905C12.4811 5.51625 12.75 5.83063 12.75 6.2V19.25C12.75 19.4692 12.6541 19.6774 12.4875 19.8199C12.321 19.9624 12.1004 20.0249 11.8839 19.991L2.63385 18.541C2.26894 18.4838 2 18.1694 2 17.8V4.75C2 4.5308 2.09589 4.32257 2.26246 4.18008ZM3.5 5.62673V17.1584L11.25 18.3733V6.84159L3.5 5.62673Z" fill="#505458"/>
<path fill-rule="evenodd" clip-rule="evenodd" d="M21.7375 4.18008C21.9041 4.32257 22 4.5308 22 4.75V17.8C22 18.1694 21.7311 18.4838 21.3661 18.541L12.1161 19.991C11.8996 20.0249 11.679 19.9624 11.5125 19.8199C11.3459 19.6774 11.25 19.4692 11.25 19.25V6.2C11.25 5.83063 11.5189 5.51625 11.8839 5.45905L21.1339 4.00905C21.3504 3.9751 21.571 4.03759 21.7375 4.18008ZM12.75 6.84159V18.3733L20.5 17.1584V5.62673L12.75 6.84159Z" fill="#505458"/>
<path fill-rule="evenodd" clip-rule="evenodd" d="M4.87535 8.37664C4.98214 7.97643 5.39315 7.73856 5.79336 7.84535L9.80336 8.91535C10.2036 9.02214 10.4414 9.43315 10.3346 9.83336C10.2279 10.2336 9.81685 10.4714 9.41664 10.3646L5.40664 9.29465C5.00643 9.18786 4.76857 8.77685 4.87535 8.37664Z" fill="#505458"/>
<path fill-rule="evenodd" clip-rule="evenodd" d="M4.87535 11.0466C4.98214 10.6464 5.39315 10.4086 5.79336 10.5154L9.80336 11.5854C10.2036 11.6921 10.4414 12.1031 10.3346 12.5034C10.2279 12.9036 9.81685 13.1414 9.41664 13.0346L5.40664 11.9646C5.00643 11.8579 4.76857 11.4469 4.87535 11.0466Z" fill="#505458"/>
<path fill-rule="evenodd" clip-rule="evenodd" d="M4.87491 13.7283C4.98076 13.3279 5.39121 13.089 5.79167 13.1949L9.80167 14.2549C10.2021 14.3608 10.441 14.7712 10.3351 15.1717C10.2292 15.5721 9.81879 15.811 9.41833 15.7051L5.40833 14.6451C5.00787 14.5392 4.76905 14.1288 4.87491 13.7283Z" fill="#505458"/>
<path fill-rule="evenodd" clip-rule="evenodd" d="M19.1246 8.37664C19.2314 8.77685 18.9936 9.18786 18.5934 9.29465L14.5834 10.3646C14.1832 10.4714 13.7721 10.2336 13.6654 9.83336C13.5586 9.43315 13.7964 9.02214 14.1966 8.91535L18.2066 7.84535C18.6069 7.73856 19.0179 7.97643 19.1246 8.37664Z" fill="#505458"/>
<path fill-rule="evenodd" clip-rule="evenodd" d="M19.1246 11.0466C19.2314 11.4469 18.9936 11.8579 18.5934 11.9646L14.5834 13.0346C14.1832 13.1414 13.7721 12.9036 13.6654 12.5034C13.5586 12.1031 13.7964 11.6921 14.1966 11.5854L18.2066 10.5154C18.6069 10.4086 19.0179 10.6464 19.1246 11.0466Z" fill="#505458"/>
<path fill-rule="evenodd" clip-rule="evenodd" d="M19.1251 13.7283C19.231 14.1288 18.9921 14.5392 18.5917 14.6451L14.5817 15.7051C14.1812 15.811 13.7708 15.5721 13.6649 15.1717C13.559 14.7712 13.7979 14.3608 14.1983 14.2549L18.2083 13.1949C18.6088 13.089 19.0192 13.3279 19.1251 13.7283Z" fill="#505458"/>
</g>
<defs>
<clipPath id="clip0_1_159">
<rect width="20" height="16" fill="white" transform="translate(2 4)"/>
</clipPath>
</defs>
</svg>
