<svg width="24" height="24" viewBox="0 0 24 24" fill="none" xmlns="http://www.w3.org/2000/svg">
<g clip-path="url(#clip0_1_789)">
<path fill-rule="evenodd" clip-rule="evenodd" d="M12 3.58334C9.76776 3.58334 7.62694 4.4701 6.04851 6.04853C4.47008 7.62696 3.58333 9.76777 3.58333 12C3.58333 13.2463 3.59996 15.5347 3.61663 17.5145C3.62497 18.5038 3.6333 19.415 3.63954 20.0789L3.64278 20.4167H12C14.2322 20.4167 16.373 19.5299 17.9515 17.9515C19.5299 16.3731 20.4167 14.2322 20.4167 12C20.4167 9.76777 19.5299 7.62696 17.9515 6.04853C16.373 4.4701 14.2322 3.58334 12 3.58334ZM2.15003 21.1742C2.15415 21.5854 2.48871 21.9167 2.89999 21.9167H12C14.6301 21.9167 17.1524 20.8719 19.0121 19.0122C20.8719 17.1524 21.9167 14.6301 21.9167 12C21.9167 9.36995 20.8719 6.8476 19.0121 4.98787C17.1524 3.12813 14.6301 2.08334 12 2.08334C9.36993 2.08334 6.84759 3.12813 4.98785 4.98787C3.12812 6.8476 2.08333 9.36995 2.08333 12C2.08333 13.2537 2.10003 15.5486 2.11669 17.5272C2.12502 18.5171 2.13336 19.4288 2.13961 20.093L2.15003 21.1742Z" fill="#505458"/>
<path fill-rule="evenodd" clip-rule="evenodd" d="M18.4818 18.4819C20.2009 16.7628 21.1666 14.4312 21.1666 12C21.1666 9.56889 20.2009 7.23731 18.4818 5.51823C16.7627 3.79914 14.4311 2.83337 12 2.83337C9.56883 2.83337 7.23725 3.79914 5.51817 5.51823C3.79908 7.23731 2.83331 9.56889 2.83331 12C2.83331 14.5 2.89998 21.1667 2.89998 21.1667H12C14.4311 21.1667 16.7627 20.2009 18.4818 18.4819ZM7.55554 8.19446C7.14133 8.19446 6.80554 8.53024 6.80554 8.94446C6.80554 9.35867 7.14133 9.69446 7.55554 9.69446H16.4444C16.8586 9.69446 17.1944 9.35867 17.1944 8.94446C17.1944 8.53024 16.8586 8.19446 16.4444 8.19446H7.55554ZM6.80554 12C6.80554 11.5858 7.14133 11.25 7.55554 11.25H13.1222C13.5364 11.25 13.8722 11.5858 13.8722 12C13.8722 12.4142 13.5364 12.75 13.1222 12.75H7.55554C7.14133 12.75 6.80554 12.4142 6.80554 12ZM7.55554 14.3055C7.14133 14.3055 6.80554 14.6413 6.80554 15.0555C6.80554 15.4698 7.14133 15.8055 7.55554 15.8055H14.6667C15.0809 15.8055 15.4167 15.4698 15.4167 15.0555C15.4167 14.6413 15.0809 14.3055 14.6667 14.3055H7.55554Z" fill="#505458"/>
</g>
<defs>
<clipPath id="clip0_1_789">
<rect width="20" height="20" fill="white" transform="translate(2 2)"/>
</clipPath>
</defs>
</svg>
