<svg width="24" height="24" viewBox="0 0 24 24" fill="none" xmlns="http://www.w3.org/2000/svg">
<g clip-path="url(#clip0_1_311)">
<path fill-rule="evenodd" clip-rule="evenodd" d="M2 19.25C2 18.8358 2.33579 18.5 2.75 18.5H21.25C21.6642 18.5 22 18.8358 22 19.25C22 19.6642 21.6642 20 21.25 20H2.75C2.33579 20 2 19.6642 2 19.25Z" fill="#505458"/>
<path fill-rule="evenodd" clip-rule="evenodd" d="M5.46967 11.2397C5.76256 10.9468 6.23744 10.9468 6.53033 11.2397L12 16.7093L17.4697 11.2397C17.7626 10.9468 18.2374 10.9468 18.5303 11.2397C18.8232 11.5326 18.8232 12.0074 18.5303 12.3003L12.5303 18.3003C12.3897 18.441 12.1989 18.52 12 18.52C11.8011 18.52 11.6103 18.441 11.4697 18.3003L5.46967 12.3003C5.17678 12.0074 5.17678 11.5326 5.46967 11.2397Z" fill="#505458"/>
<path fill-rule="evenodd" clip-rule="evenodd" d="M12 4C12.4142 4 12.75 4.33579 12.75 4.75V17.75C12.75 18.1642 12.4142 18.5 12 18.5C11.5858 18.5 11.25 18.1642 11.25 17.75V4.75C11.25 4.33579 11.5858 4 12 4Z" fill="#505458"/>
</g>
<defs>
<clipPath id="clip0_1_311">
<rect width="20" height="16" fill="white" transform="translate(2 4)"/>
</clipPath>
</defs>
</svg>
