<svg width="24" height="24" viewBox="0 0 24 24" fill="none" xmlns="http://www.w3.org/2000/svg">
<g clip-path="url(#clip0_1_349)">
<path d="M12 20.25C12 20.25 3.74 13.93 3.74 8.25C3.74 8.16 3.74 8.09 3.74 8C3.70581 7.45407 3.78396 6.90692 3.96961 6.39239C4.15527 5.87785 4.44448 5.40686 4.81938 5.00853C5.19428 4.61021 5.64689 4.293 6.14924 4.07653C6.65159 3.86006 7.193 3.74893 7.74 3.75C10.34 3.84 11.4 6.07 11.98 7.75C12.56 6.09 13.62 3.86 16.22 3.75C16.767 3.74893 17.3084 3.86006 17.8108 4.07653C18.3131 4.293 18.7657 4.61021 19.1406 5.00853C19.5155 5.40686 19.8047 5.87785 19.9904 6.39239C20.176 6.90692 20.2542 7.45407 20.22 8C20.22 8.09 20.22 8.16 20.22 8.25C20.22 13.93 11.96 20.25 11.96 20.25" stroke="#505458" stroke-width="1.5" stroke-linecap="round" stroke-linejoin="round"/>
</g>
<defs>
<clipPath id="clip0_1_349">
<rect width="18" height="18" fill="white" transform="translate(3 3)"/>
</clipPath>
</defs>
</svg>
