<svg width="24" height="24" viewBox="0 0 24 24" fill="none" xmlns="http://www.w3.org/2000/svg">
<g clip-path="url(#clip0_1_257)">
<path fill-rule="evenodd" clip-rule="evenodd" d="M3 7.75C3 7.33579 3.33579 7 3.75 7H20.25C20.6642 7 21 7.33579 21 7.75C21 8.16421 20.6642 8.5 20.25 8.5H3.75C3.33579 8.5 3 8.16421 3 7.75Z" fill="#505458"/>
<path fill-rule="evenodd" clip-rule="evenodd" d="M3 11.75C3 11.3358 3.33579 11 3.75 11H14.09C14.5042 11 14.84 11.3358 14.84 11.75C14.84 12.1642 14.5042 12.5 14.09 12.5H3.75C3.33579 12.5 3 12.1642 3 11.75Z" fill="#505458"/>
<path fill-rule="evenodd" clip-rule="evenodd" d="M3.25 15.75C3.25 15.3358 3.58579 15 4 15H17.2C17.6142 15 17.95 15.3358 17.95 15.75C17.95 16.1642 17.6142 16.5 17.2 16.5H4C3.58579 16.5 3.25 16.1642 3.25 15.75Z" fill="#505458"/>
</g>
<defs>
<clipPath id="clip0_1_257">
<rect width="18" height="9.5" fill="white" transform="translate(3 7)"/>
</clipPath>
</defs>
</svg>
