<svg width="24" height="24" viewBox="0 0 24 24" fill="none" xmlns="http://www.w3.org/2000/svg">
<g clip-path="url(#clip0_1_785)">
<path fill-rule="evenodd" clip-rule="evenodd" d="M12 3.5C7.30558 3.5 3.5 7.30558 3.5 12C3.5 16.6944 7.30558 20.5 12 20.5C16.6944 20.5 20.5 16.6944 20.5 12C20.5 7.30558 16.6944 3.5 12 3.5ZM2 12C2 6.47715 6.47715 2 12 2C17.5228 2 22 6.47715 22 12C22 17.5228 17.5228 22 12 22C6.47715 22 2 17.5228 2 12Z" fill="#505458"/>
<path fill-rule="evenodd" clip-rule="evenodd" d="M12 21.2499C17.1086 21.2499 21.25 17.1086 21.25 11.9999C21.25 6.8913 17.1086 2.74994 12 2.74994C6.89132 2.74994 2.74996 6.8913 2.74996 11.9999C2.74996 17.1086 6.89132 21.2499 12 21.2499ZM10.086 7.30596C9.85588 7.15253 9.55997 7.13822 9.31611 7.26874C9.07224 7.39925 8.92 7.6534 8.92 7.92999V16.07C8.92 16.3487 9.07459 16.6045 9.3214 16.7341C9.56821 16.8636 9.86651 16.8456 10.0959 16.6873L16.0959 12.5473C16.3006 12.4061 16.422 12.1726 16.42 11.924C16.418 11.6754 16.2929 11.4439 16.086 11.306L10.086 7.30596Z" fill="#505458"/>
</g>
<defs>
<clipPath id="clip0_1_785">
<rect width="20" height="20" fill="white" transform="translate(2 2)"/>
</clipPath>
</defs>
</svg>
