<svg width="24" height="24" viewBox="0 0 24 24" fill="none" xmlns="http://www.w3.org/2000/svg">
<g clip-path="url(#clip0_1_251)">
<path fill-rule="evenodd" clip-rule="evenodd" d="M3.75 2C4.16421 2 4.5 2.33579 4.5 2.75V17.25C4.5 17.5815 4.6317 17.8995 4.86612 18.1339C5.10054 18.3683 5.41848 18.5 5.75 18.5H18.4393L15.4697 15.5303C15.1768 15.2374 15.1768 14.7626 15.4697 14.4697C15.7626 14.1768 16.2374 14.1768 16.5303 14.4697L20.7803 18.7197C20.9948 18.9342 21.059 19.2568 20.9429 19.537C20.8268 19.8173 20.5533 20 20.25 20H5.75C5.02065 20 4.32118 19.7103 3.80546 19.1945C3.28973 18.6788 3 17.9793 3 17.25V2.75C3 2.33579 3.33579 2 3.75 2Z" fill="#505458"/>
<path fill-rule="evenodd" clip-rule="evenodd" d="M20.8124 18.7538C21.0864 19.0644 21.0568 19.5383 20.7462 19.8124L16.4962 23.5624C16.1856 23.8364 15.7117 23.8068 15.4376 23.4962C15.1636 23.1856 15.1932 22.7117 15.5038 22.4376L19.7538 18.6876C20.0644 18.4136 20.5383 18.4432 20.8124 18.7538Z" fill="#505458"/>
</g>
<defs>
<clipPath id="clip0_1_251">
<rect width="18" height="21.75" fill="white" transform="translate(3 2)"/>
</clipPath>
</defs>
</svg>
