<svg width="24" height="24" viewBox="0 0 24 24" fill="none" xmlns="http://www.w3.org/2000/svg">
<g clip-path="url(#clip0_1_778)">
<path d="M7.91403 14.88C7.94363 14.6954 7.93031 14.506 7.87517 14.3279C7.82003 14.1498 7.72471 13.9882 7.59728 13.8568L3.97737 10.2095L8.94569 9.42315C9.12368 9.39365 9.29228 9.3197 9.4372 9.20757C9.58212 9.09543 9.69911 8.94841 9.77828 8.77894L11.9683 4.0421L14.2217 8.77894C14.3031 8.94487 14.4211 9.08813 14.5658 9.19686C14.7106 9.30559 14.8781 9.37667 15.0543 9.40421L20.0407 10.1242L16.4751 13.8C16.3457 13.9299 16.2491 14.0913 16.1938 14.2699C16.1386 14.4484 16.1264 14.6385 16.1584 14.8232L17.0633 19.9958L12.6018 17.58C12.4444 17.498 12.2708 17.4558 12.095 17.4568C11.9126 17.4579 11.7329 17.5033 11.5701 17.5895L7.13573 20.0716L7.91403 14.88Z" fill="#505458"/>
<path d="M11.9502 5.65264L13.5882 9.07264C13.7205 9.3402 13.9119 9.57086 14.1464 9.74551C14.3809 9.92016 14.6518 10.0337 14.9366 10.0769L18.5565 10.6074L15.9593 13.2884C15.756 13.5032 15.6047 13.7657 15.5181 14.0541C15.4315 14.3425 15.4121 14.6485 15.4615 14.9463L16.095 18.7358L12.8552 16.9547C12.6043 16.816 12.3245 16.7444 12.0407 16.7463C11.7475 16.7465 11.4586 16.8213 11.1991 16.9642L7.97736 18.7642L8.56562 14.9748C8.61122 14.6768 8.5882 14.3718 8.49848 14.0851C8.40876 13.7984 8.25492 13.5382 8.04977 13.3263L5.41629 10.6737L9.0362 10.1053C9.32043 10.0564 9.58941 9.93718 9.82079 9.75758C10.0522 9.57798 10.2393 9.34316 10.3665 9.07264L11.9593 5.63369L11.9502 5.65264ZM11.9593 2.98106C11.8789 2.97965 11.7999 3.00319 11.7322 3.04871C11.6646 3.09423 11.6113 3.15969 11.5792 3.23685L9.15385 8.45685C9.12348 8.52036 9.07875 8.57513 9.02355 8.61641C8.96834 8.65769 8.90433 8.68422 8.8371 8.69369L3.362 9.57475C3.2838 9.58698 3.2104 9.62179 3.15006 9.67527C3.08971 9.72875 3.0448 9.79878 3.02037 9.87749C2.99593 9.95621 2.99294 10.0405 3.01172 10.1209C3.0305 10.2013 3.07031 10.2746 3.12669 10.3326L7.12671 14.3495C7.17649 14.4003 7.21331 14.4633 7.23386 14.5328C7.25441 14.6023 7.25801 14.676 7.24433 14.7474L6.33935 20.4316C6.32868 20.4948 6.3315 20.5597 6.34758 20.6217C6.36367 20.6837 6.39262 20.7411 6.4324 20.79C6.47217 20.8389 6.52178 20.878 6.57767 20.9044C6.63355 20.9309 6.69433 20.9441 6.75566 20.9432C6.82085 20.9617 6.88957 20.9617 6.95476 20.9432L11.8416 18.2053C11.9103 18.191 11.981 18.191 12.0498 18.2053C12.112 18.188 12.1775 18.188 12.2398 18.2053L17.1629 20.8674C17.2232 20.9047 17.292 20.9244 17.362 20.9242C17.4241 20.9224 17.4852 20.9067 17.541 20.8781C17.5969 20.8494 17.6462 20.8086 17.6857 20.7583C17.7251 20.708 17.7538 20.6494 17.7698 20.5865C17.7858 20.5236 17.7887 20.4579 17.7783 20.3937L16.8009 14.7095C16.7872 14.6382 16.7908 14.5644 16.8114 14.4949C16.8319 14.4254 16.8688 14.3624 16.9185 14.3116L20.8643 10.2379C20.9208 10.1793 20.9605 10.1052 20.9788 10.0241C20.9972 9.94297 20.9934 9.85811 20.968 9.77915C20.9425 9.70019 20.8964 9.63029 20.8348 9.57741C20.7733 9.52452 20.6988 9.49078 20.6199 9.48001L15.1357 8.68422C15.0665 8.67366 15.0007 8.64576 14.944 8.60288C14.8873 8.55999 14.8413 8.50339 14.81 8.4379L12.3303 3.2558C12.2942 3.18254 12.2398 3.12091 12.1728 3.07753C12.1059 3.03414 12.029 3.01062 11.9502 3.00948L11.9593 2.98106Z" fill="#505458"/>
</g>
<defs>
<clipPath id="clip0_1_778">
<rect width="18" height="18" fill="white" transform="translate(3 3)"/>
</clipPath>
</defs>
</svg>
