<svg width="24" height="24" viewBox="0 0 24 24" fill="none" xmlns="http://www.w3.org/2000/svg">
<g clip-path="url(#clip0_1_792)">
<path d="M12 2C10.0222 2 8.08879 2.58649 6.4443 3.6853C4.79981 4.78412 3.51809 6.3459 2.76121 8.17317C2.00433 10.0004 1.8063 12.0111 2.19215 13.9509C2.578 15.8907 3.53041 17.6725 4.92894 19.0711C6.32746 20.4696 8.10929 21.422 10.0491 21.8079C11.9889 22.1937 13.9996 21.9957 15.8268 21.2388C17.6541 20.4819 19.2159 19.2002 20.3147 17.5557C21.4135 15.9112 22 13.9778 22 12C22 10.6868 21.7413 9.38642 21.2388 8.17317C20.7363 6.95991 19.9997 5.85752 19.0711 4.92893C18.1425 4.00035 17.0401 3.26375 15.8268 2.7612C14.6136 2.25866 13.3132 2 12 2ZM16.53 15.47C16.6705 15.6106 16.7493 15.8012 16.7493 16C16.7493 16.1988 16.6705 16.3894 16.53 16.53C16.3894 16.6705 16.1988 16.7493 16 16.7493C15.8013 16.7493 15.6106 16.6705 15.47 16.53L12 13.06L8.53 16.53C8.38938 16.6705 8.19875 16.7493 8 16.7493C7.80125 16.7493 7.61063 16.6705 7.47 16.53C7.32955 16.3894 7.25066 16.1988 7.25066 16C7.25066 15.8012 7.32955 15.6106 7.47 15.47L10.94 12L7.47 8.53C7.33752 8.38783 7.2654 8.19978 7.26883 8.00548C7.27226 7.81118 7.35097 7.62579 7.48838 7.48838C7.6258 7.35097 7.81118 7.27225 8.00548 7.26883C8.19978 7.2654 8.38783 7.33752 8.53 7.47L12 10.94L15.47 7.47C15.6122 7.33752 15.8002 7.2654 15.9945 7.26883C16.1888 7.27225 16.3742 7.35097 16.5116 7.48838C16.649 7.62579 16.7278 7.81118 16.7312 8.00548C16.7346 8.19978 16.6625 8.38783 16.53 8.53L13.06 12L16.53 15.47Z" fill="#505458"/>
</g>
<defs>
<clipPath id="clip0_1_792">
<rect width="20" height="20" fill="white" transform="translate(2 2)"/>
</clipPath>
</defs>
</svg>
