<svg width="24" height="24" viewBox="0 0 24 24" fill="none" xmlns="http://www.w3.org/2000/svg">
<g clip-path="url(#clip0_1_242)">
<g clip-path="url(#clip1_1_242)">
<path fill-rule="evenodd" clip-rule="evenodd" d="M5.63604 5.36396C5.92893 5.07107 6.4038 5.07107 6.6967 5.36396L18.364 17.0312C18.6569 17.3241 18.6569 17.799 18.364 18.0919C18.0711 18.3848 17.5962 18.3848 17.3033 18.0919L5.63604 6.42462C5.34314 6.13173 5.34314 5.65685 5.63604 5.36396Z" fill="#505458"/>
<path fill-rule="evenodd" clip-rule="evenodd" d="M18.364 5.36396C18.6569 5.65685 18.6569 6.13173 18.364 6.42462L6.6967 18.0919C6.40381 18.3848 5.92893 18.3848 5.63604 18.0919C5.34315 17.799 5.34315 17.3241 5.63604 17.0312L17.3033 5.36396C17.5962 5.07107 18.0711 5.07107 18.364 5.36396Z" fill="#505458"/>
</g>
</g>
<defs>
<clipPath id="clip0_1_242">
<rect width="24" height="24" fill="white"/>
</clipPath>
<clipPath id="clip1_1_242">
<rect width="18" height="18" fill="white" transform="translate(12 -1) rotate(45)"/>
</clipPath>
</defs>
</svg>
