<svg width="24" height="24" viewBox="0 0 24 24" fill="none" xmlns="http://www.w3.org/2000/svg">
<g clip-path="url(#clip0_1_330)">
<path fill-rule="evenodd" clip-rule="evenodd" d="M12.07 4.5C10.9654 4.5 10.07 5.39543 10.07 6.5C10.07 7.60457 10.9654 8.5 12.07 8.5C13.1746 8.5 14.07 7.60457 14.07 6.5C14.07 5.39543 13.1746 4.5 12.07 4.5ZM8.57 6.5C8.57 4.567 10.137 3 12.07 3C14.003 3 15.57 4.567 15.57 6.5C15.57 8.433 14.003 10 12.07 10C10.137 10 8.57 8.433 8.57 6.5Z" fill="#505458"/>
<path fill-rule="evenodd" clip-rule="evenodd" d="M11.9955 11.25L12.0008 11.25C13.322 11.2514 14.626 11.5503 15.816 12.1245C16.189 12.3046 16.3455 12.7529 16.1655 13.126C15.9854 13.499 15.5371 13.6555 15.164 13.4755C14.1777 12.9995 13.097 12.7516 12.0018 12.75C10.0162 12.7626 8.11536 13.557 6.71119 14.9612C5.48542 16.187 4.72432 17.7912 4.54232 19.5H13.13C13.5442 19.5 13.88 19.8358 13.88 20.25C13.88 20.6642 13.5442 21 13.13 21H3.75C3.55031 21 3.35886 20.9204 3.21808 20.7787C3.0773 20.6371 2.99881 20.4452 3.00001 20.2455C3.01432 17.8642 3.96664 15.5844 5.65053 13.9005C7.33442 12.2166 9.61416 11.2643 11.9955 11.25Z" fill="#505458"/>
<path fill-rule="evenodd" clip-rule="evenodd" d="M17.5 15.5C16.3954 15.5 15.5 16.3954 15.5 17.5C15.5 18.6046 16.3954 19.5 17.5 19.5C18.6046 19.5 19.5 18.6046 19.5 17.5C19.5 16.3954 18.6046 15.5 17.5 15.5ZM14 17.5C14 15.567 15.567 14 17.5 14C19.433 14 21 15.567 21 17.5C21 19.433 19.433 21 17.5 21C15.567 21 14 19.433 14 17.5Z" fill="#505458"/>
<path fill-rule="evenodd" clip-rule="evenodd" d="M15.0297 18.9097L16.9697 16.9697L18.0303 18.0303L16.0903 19.9703L15.0297 18.9097Z" fill="#505458"/>
<path fill-rule="evenodd" clip-rule="evenodd" d="M19.979 16.0917L18.029 18.0317L16.971 16.9683L18.921 15.0283L19.979 16.0917Z" fill="#505458"/>
</g>
<defs>
<clipPath id="clip0_1_330">
<rect width="18" height="18" fill="white" transform="translate(3 3)"/>
</clipPath>
</defs>
</svg>
