<svg width="24" height="24" viewBox="0 0 24 24" fill="none" xmlns="http://www.w3.org/2000/svg">
<g clip-path="url(#clip0_1_170)">
<path fill-rule="evenodd" clip-rule="evenodd" d="M12 3.5C7.30558 3.5 3.5 7.30558 3.5 12C3.5 16.6944 7.30558 20.5 12 20.5C16.6944 20.5 20.5 16.6944 20.5 12C20.5 7.30558 16.6944 3.5 12 3.5ZM2 12C2 6.47715 6.47715 2 12 2C17.5228 2 22 6.47715 22 12C22 17.5228 17.5228 22 12 22C6.47715 22 2 17.5228 2 12Z" fill="#505458"/>
<path fill-rule="evenodd" clip-rule="evenodd" d="M18.1131 8.08276C18.3988 8.38271 18.3872 8.85744 18.0872 9.1431L10.9472 15.9431C10.6579 16.2187 10.2032 16.219 9.91344 15.9437L5.91344 12.1437C5.61314 11.8585 5.60096 11.3837 5.88625 11.0834C6.17154 10.7831 6.64626 10.771 6.94656 11.0563L10.4294 14.3649L17.0528 8.0569C17.3527 7.77123 17.8274 7.78281 18.1131 8.08276Z" fill="#505458"/>
</g>
<defs>
<clipPath id="clip0_1_170">
<rect width="20" height="20" fill="white" transform="translate(2 2)"/>
</clipPath>
</defs>
</svg>
