<svg width="24" height="24" viewBox="0 0 24 24" fill="none" xmlns="http://www.w3.org/2000/svg">
<g clip-path="url(#clip0_1_152)">
<path fill-rule="evenodd" clip-rule="evenodd" d="M2 7.01C2 6.59578 2.33579 6.26 2.75 6.26H21.25C21.6642 6.26 22 6.59578 22 7.01V19.25C22 19.6642 21.6642 20 21.25 20H2.75C2.33579 20 2 19.6642 2 19.25V7.01ZM3.5 7.76V18.5H20.5V7.76H3.5Z" fill="#505458"/>
<path fill-rule="evenodd" clip-rule="evenodd" d="M12 12.18C11.4753 12.18 11.05 12.6053 11.05 13.13C11.05 13.6547 11.4753 14.08 12 14.08C12.5247 14.08 12.95 13.6547 12.95 13.13C12.95 12.6053 12.5247 12.18 12 12.18ZM9.55 13.13C9.55 11.7769 10.6469 10.68 12 10.68C13.3531 10.68 14.45 11.7769 14.45 13.13C14.45 14.4831 13.3531 15.58 12 15.58C10.6469 15.58 9.55 14.4831 9.55 13.13Z" fill="#505458"/>
<path fill-rule="evenodd" clip-rule="evenodd" d="M12 10.1C10.3266 10.1 8.97 11.4566 8.97 13.13C8.97 14.8034 10.3266 16.16 12 16.16C13.6734 16.16 15.03 14.8034 15.03 13.13C15.03 11.4566 13.6734 10.1 12 10.1ZM7.47 13.13C7.47 10.6282 9.49815 8.6 12 8.6C14.5019 8.6 16.53 10.6282 16.53 13.13C16.53 15.6319 14.5019 17.66 12 17.66C9.49815 17.66 7.47 15.6319 7.47 13.13Z" fill="#505458"/>
<path fill-rule="evenodd" clip-rule="evenodd" d="M7.9888 4.00008C7.99253 4.00003 7.99626 4 7.99999 4H15.78C16.0912 4 16.3994 4.0613 16.687 4.18041C16.9745 4.29951 17.2358 4.47408 17.4558 4.69416C17.6759 4.91423 17.8505 5.1755 17.9696 5.46304C18.0887 5.75058 18.15 6.05877 18.15 6.37V7C18.15 7.41421 17.8142 7.75 17.4 7.75H6.39999C5.98578 7.75 5.64999 7.41421 5.64999 7V6.37006C5.64996 5.74655 5.89564 5.14809 6.33377 4.70447C6.77147 4.2613 7.36603 4.00828 7.9888 4.00008ZM8.00534 5.5L8.00925 5.49994L7.99073 4.00006L7.9888 4.00008M7.15829 6.25H6.39999V7H7.14999V6.37C7.14999 6.32965 7.15279 6.28952 7.15829 6.25ZM16.6417 6.25C16.6472 6.28967 16.65 6.32977 16.65 6.37V7H17.4V6.25H16.6417Z" fill="#505458"/>
</g>
<defs>
<clipPath id="clip0_1_152">
<rect width="20" height="16" fill="white" transform="translate(2 4)"/>
</clipPath>
</defs>
</svg>
