<svg width="24" height="24" viewBox="0 0 24 24" fill="none" xmlns="http://www.w3.org/2000/svg">
<g clip-path="url(#clip0_1_207)">
<path fill-rule="evenodd" clip-rule="evenodd" d="M12 3.58333C9.76776 3.58333 7.62694 4.47009 6.04851 6.04852C4.47008 7.62695 3.58333 9.76776 3.58333 12C3.58333 13.2463 3.59996 15.5347 3.61663 17.5145C3.62497 18.5038 3.6333 19.415 3.63954 20.0789L3.64278 20.4167H12C14.2322 20.4167 16.373 19.5299 17.9515 17.9515C19.5299 16.373 20.4167 14.2322 20.4167 12C20.4167 9.76776 19.5299 7.62695 17.9515 6.04852C16.373 4.47009 14.2322 3.58333 12 3.58333ZM2.15003 21.1742C2.15415 21.5854 2.48871 21.9167 2.89999 21.9167H12C14.6301 21.9167 17.1524 20.8719 19.0121 19.0121C20.8719 17.1524 21.9167 14.6301 21.9167 12C21.9167 9.36994 20.8719 6.84759 19.0121 4.98786C17.1524 3.12812 14.6301 2.08333 12 2.08333C9.36993 2.08333 6.84759 3.12812 4.98785 4.98786C3.12812 6.84759 2.08333 9.36994 2.08333 12C2.08333 13.2537 2.10003 15.5486 2.11669 17.5271C2.12502 18.517 2.13336 19.4288 2.13961 20.093L2.15003 21.1742Z" fill="#505458"/>
<path fill-rule="evenodd" clip-rule="evenodd" d="M8.37966 7.97376C8.65991 7.85767 8.9825 7.92184 9.197 8.13634L14.5833 13.5227V8.66667C14.5833 8.25245 14.9191 7.91667 15.3333 7.91667C15.7476 7.91667 16.0833 8.25245 16.0833 8.66667V15.3333C16.0833 15.6367 15.9006 15.9102 15.6204 16.0262C15.3401 16.1423 15.0175 16.0782 14.803 15.8637L9.41667 10.4773V15.3333C9.41667 15.7475 9.08089 16.0833 8.66667 16.0833C8.25246 16.0833 7.91667 15.7475 7.91667 15.3333V8.66667C7.91667 8.36332 8.0994 8.08984 8.37966 7.97376Z" fill="#505458"/>
</g>
<defs>
<clipPath id="clip0_1_207">
<rect width="20" height="20" fill="white" transform="translate(2 2)"/>
</clipPath>
</defs>
</svg>
