<svg width="24" height="24" viewBox="0 0 24 24" fill="none" xmlns="http://www.w3.org/2000/svg">
<g clip-path="url(#clip0_1_772)">
<path d="M3.99099 7.55177L2.79039 7.85192C2.56612 7.90858 2.36653 8.03701 2.22202 8.21764C2.07752 8.39827 1.99604 8.62119 1.98999 8.85242V13.2346C1.98434 13.4659 2.05901 13.692 2.2013 13.8744C2.34358 14.0568 2.54469 14.1843 2.77038 14.2351L3.99099 14.5353V7.55177Z" fill="#505458"/>
<path d="M5.49174 7.18159V14.8754L16.2771 17.3667V4.48024L5.49174 7.18159Z" fill="#505458"/>
<path fill-rule="evenodd" clip-rule="evenodd" d="M15.5568 4.00038C15.971 4.00038 16.3068 4.33617 16.3068 4.75038V17.2166C16.3068 17.6308 15.971 17.9666 15.5568 17.9666C15.1426 17.9666 14.8068 17.6308 14.8068 17.2166V4.75038C14.8068 4.33617 15.1426 4.00038 15.5568 4.00038Z" fill="#505458"/>
<path fill-rule="evenodd" clip-rule="evenodd" d="M6.22211 13.5452C6.63632 13.5452 6.97211 13.8809 6.97211 14.2952V19.2476C6.97211 19.6618 6.63632 19.9976 6.22211 19.9976C5.80789 19.9976 5.47211 19.6618 5.47211 19.2476V14.2952C5.47211 13.8809 5.80789 13.5452 6.22211 13.5452Z" fill="#505458"/>
<path fill-rule="evenodd" clip-rule="evenodd" d="M16.9907 9.5981C17.0264 9.18543 17.3899 8.87987 17.8026 8.91562C18.3239 8.96078 18.8093 9.19977 19.163 9.5854C19.5166 9.97103 19.7128 10.4752 19.7128 10.9985C19.7128 11.5217 19.5166 12.026 19.163 12.4116C18.8093 12.7972 18.3239 13.0362 17.8026 13.0814C17.3899 13.1171 17.0264 12.8116 16.9907 12.3989C16.9549 11.9862 17.2605 11.6227 17.6731 11.587C17.8204 11.5742 17.9576 11.5067 18.0575 11.3977C18.1574 11.2888 18.2128 11.1463 18.2128 10.9985C18.2128 10.8507 18.1574 10.7082 18.0575 10.5993C17.9576 10.4903 17.8204 10.4228 17.6731 10.41C17.2605 10.3743 16.9549 10.0108 16.9907 9.5981Z" fill="#505458"/>
<path fill-rule="evenodd" clip-rule="evenodd" d="M16.8578 7.34167C16.8578 6.92746 17.1936 6.59167 17.6078 6.59167C18.1845 6.59167 18.7556 6.70527 19.2885 6.92598C19.8213 7.14669 20.3055 7.47019 20.7133 7.87801C21.1211 8.28583 21.4446 8.76998 21.6653 9.30282C21.886 9.83566 21.9996 10.4068 21.9996 10.9835C21.9996 11.5602 21.886 12.1313 21.6653 12.6642C21.4446 13.197 21.1211 13.6812 20.7133 14.089C20.3055 14.4968 19.8213 14.8203 19.2885 15.041C18.7556 15.2617 18.1845 15.3753 17.6078 15.3753C17.1936 15.3753 16.8578 15.0395 16.8578 14.6253C16.8578 14.2111 17.1936 13.8753 17.6078 13.8753C17.9876 13.8753 18.3636 13.8005 18.7145 13.6552C19.0653 13.5099 19.3841 13.2969 19.6526 13.0283C19.9212 12.7598 20.1342 12.441 20.2795 12.0901C20.4248 11.7393 20.4996 11.3633 20.4996 10.9835C20.4996 10.6037 20.4248 10.2277 20.2795 9.87684C20.1342 9.52599 19.9212 9.2072 19.6526 8.93867C19.3841 8.67014 19.0653 8.45713 18.7145 8.3118C18.3636 8.16647 17.9876 8.09167 17.6078 8.09167C17.1936 8.09167 16.8578 7.75589 16.8578 7.34167Z" fill="#505458"/>
</g>
<defs>
<clipPath id="clip0_1_772">
<rect width="20" height="15.998" fill="white" transform="translate(2 4)"/>
</clipPath>
</defs>
</svg>
