<svg width="24" height="24" viewBox="0 0 24 24" fill="none" xmlns="http://www.w3.org/2000/svg">
<path fill-rule="evenodd" clip-rule="evenodd" d="M20 5C20 6.65685 18.6569 8 17 8C15.3431 8 14 6.65685 14 5C14 3.34315 15.3431 2 17 2C18.6569 2 20 3.34315 20 5ZM10 12C10 13.6569 8.65685 15 7 15C5.34315 15 4 13.6569 4 12C4 10.3431 5.34315 9 7 9C8.65685 9 10 10.3431 10 12ZM17 22C18.6569 22 20 20.6569 20 19C20 17.3431 18.6569 16 17 16C15.3431 16 14 17.3431 14 19C14 20.6569 15.3431 22 17 22Z" />
<rect x="5" y="7.5" width="12" height="1.5" fill="current" transform="rotate(-35 12 6.5)" />
<rect x="8" y="14" width="12" height="1.5" fill="current" transform="rotate(36 12 12)" />
</svg>
