<svg width="24" height="24" viewBox="0 0 24 24" fill="none" xmlns="http://www.w3.org/2000/svg">
<g clip-path="url(#clip0_1_135)">
<path d="M11.97 6L13.47 9.12C13.6059 9.40518 13.8104 9.6522 14.0652 9.83893C14.32 10.0257 14.6171 10.1463 14.93 10.19L18.37 10.69L15.85 13.26C15.641 13.4819 15.4856 13.7486 15.3954 14.0398C15.3053 14.3309 15.2829 14.6389 15.33 14.94L15.94 18.5L12.94 16.89C12.6604 16.7392 12.3477 16.6602 12.03 16.66C11.7051 16.6633 11.3859 16.7456 11.1 16.9L8.1 18.56L8.73 15C8.77319 14.6965 8.74605 14.3872 8.65069 14.0959C8.55532 13.8046 8.39428 13.5392 8.18 13.32L5.63 10.74L9.07 10.2C9.38685 10.1489 9.68674 10.0222 9.94434 9.83075C10.2019 9.63929 10.4097 9.38865 10.55 9.1L11.97 6ZM11.97 3C11.8891 2.9995 11.8098 3.02298 11.7422 3.06747C11.6745 3.11196 11.6216 3.17547 11.59 3.25L9.15 8.47C9.12175 8.5322 9.07874 8.58657 9.02472 8.62839C8.9707 8.67021 8.9073 8.69822 8.84 8.71L3.36 9.59C3.28002 9.6059 3.20587 9.64324 3.14546 9.69802C3.08505 9.7528 3.04067 9.82296 3.01705 9.90101C2.99343 9.97906 2.99146 10.0621 3.01135 10.1411C3.03125 10.2202 3.07226 10.2924 3.13 10.35L7.13 14.35C7.1798 14.4009 7.21738 14.4625 7.2399 14.53C7.26242 14.5976 7.2693 14.6694 7.26 14.74L6.36 20.46C6.34675 20.5218 6.34729 20.5858 6.3616 20.6474C6.37591 20.709 6.40363 20.7667 6.44278 20.8164C6.48194 20.866 6.53156 20.9064 6.58812 20.9347C6.64468 20.963 6.70678 20.9785 6.77 20.98C6.83959 20.9787 6.90798 20.9616 6.97 20.93L11.86 18.19C11.9214 18.1567 11.9902 18.1393 12.06 18.1393C12.1298 18.1393 12.1986 18.1567 12.26 18.19L17.18 20.85C17.2362 20.888 17.3022 20.9088 17.37 20.91C17.4345 20.9084 17.4979 20.8927 17.5556 20.8639C17.6134 20.8351 17.6641 20.794 17.7042 20.7434C17.7443 20.6928 17.7727 20.6341 17.7876 20.5713C17.8024 20.5085 17.8032 20.4432 17.79 20.38L16.79 14.67C16.7761 14.6001 16.7798 14.5279 16.8008 14.4599C16.8217 14.3918 16.8593 14.33 16.91 14.28L20.85 10.2C20.9086 10.1429 20.9501 10.0707 20.9699 9.9913C20.9897 9.91195 20.9869 9.82865 20.962 9.75076C20.9371 9.67286 20.8909 9.60346 20.8288 9.55033C20.7666 9.49721 20.6908 9.46246 20.61 9.45L15.12 8.65C15.0509 8.63975 14.9855 8.61244 14.9296 8.57054C14.8737 8.52863 14.8292 8.47345 14.8 8.41L12.33 3.25C12.2996 3.17466 12.2469 3.11039 12.179 3.06573C12.1111 3.02107 12.0312 2.99814 11.95 3H11.97Z" fill="#505458"/>
</g>
<defs>
<clipPath id="clip0_1_135">
<rect width="18" height="18" fill="white" transform="translate(3 3)"/>
</clipPath>
</defs>
</svg>
