<svg width="24" height="24" viewBox="0 0 24 24" fill="none" xmlns="http://www.w3.org/2000/svg">
<path fill-rule="evenodd" clip-rule="evenodd" d="M2.6572 13.3569C2.6572 8.38634 6.68664 4.3569 11.6572 4.3569C16.6278 4.3569 20.6572 8.38634 20.6572 13.3569C20.6572 18.3275 16.6278 22.3569 11.6572 22.3569C6.68664 22.3569 2.6572 18.3275 2.6572 13.3569ZM4.1572 13.3569C4.1572 17.499 7.51507 20.8569 11.6572 20.8569C13.6463 20.8569 15.554 20.0667 16.9605 18.6602C18.367 17.2537 19.1572 15.346 19.1572 13.3569C19.1572 9.21477 15.7993 5.8569 11.6572 5.8569C7.51507 5.8569 4.1572 9.21477 4.1572 13.3569Z" fill="black"/>
<path d="M9.3072 9.5469C9.01169 9.27154 8.55119 9.27967 8.26558 9.56528C7.97997 9.85089 7.97184 10.3114 8.2472 10.6069L10.9072 13.2669V17.3569C10.9072 17.7711 11.243 18.1069 11.6572 18.1069C12.0714 18.1069 12.4072 17.7711 12.4072 17.3569V12.9569C12.407 12.7581 12.3279 12.5674 12.1872 12.4269L9.3072 9.5469Z" fill="black"/>
<path d="M21.1872 5.8569C19.9526 4.2104 18.3127 2.9116 16.4272 2.0869C16.2432 2.00349 16.0333 1.99785 15.8451 2.07126C15.6568 2.14467 15.5062 2.29093 15.4272 2.4769C15.3409 2.66055 15.3337 2.8716 15.4074 3.06066C15.4812 3.24972 15.6293 3.40021 15.8172 3.4769C17.4642 4.20154 18.8968 5.33802 19.9772 6.7769C20.1188 6.96576 20.3411 7.0769 20.5772 7.0769C20.7396 7.07763 20.8977 7.02493 21.0272 6.9269C21.1938 6.80881 21.305 6.62792 21.3352 6.42599C21.3654 6.22406 21.3119 6.01855 21.1872 5.8569Z" fill="black"/>
<path d="M3.3272 6.7569C4.40759 5.31802 5.84024 4.18154 7.4872 3.4569C7.67509 3.38021 7.82323 3.22972 7.89696 3.04066C7.9707 2.8516 7.96355 2.64055 7.8772 2.4569C7.79824 2.27093 7.64759 2.12467 7.45935 2.05126C7.27112 1.97785 7.06122 1.98349 6.8772 2.0669C4.99303 2.89866 3.35652 4.20442 2.1272 5.8569C1.9112 6.1789 1.97623 6.61246 2.2772 6.8569C2.40668 6.95493 2.56481 7.00763 2.7272 7.0069C2.9548 7.01907 3.17558 6.92708 3.3272 6.7569Z" fill="black"/>
</svg>
