<svg width="24" height="24" viewBox="0 0 24 24" fill="none" xmlns="http://www.w3.org/2000/svg">
<path fill-rule="evenodd" clip-rule="evenodd" d="M20.8555 15.5035L15.2155 5.06351C14.511 3.79024 13.1706 3 11.7155 3C10.2603 3 8.91995 3.79024 8.21548 5.06351L2.48548 15.4935C1.81227 16.7322 1.8409 18.2339 2.56082 19.4461C3.28074 20.6582 4.58563 21.4019 5.99548 21.4035H17.3355C18.7441 21.4035 20.0489 20.6626 20.7706 19.4529C21.4923 18.2432 21.5246 16.7431 20.8555 15.5035ZM10.8555 9.74351C10.8555 9.32929 11.1913 8.99351 11.6055 8.99351C12.0197 8.99351 12.3555 9.32929 12.3555 9.74351V12.8335C12.3555 13.2477 12.0197 13.5835 11.6055 13.5835C11.1913 13.5835 10.8555 13.2477 10.8555 12.8335V9.74351ZM11.6155 16.4935C12.0297 16.4935 12.3655 16.1577 12.3655 15.7435L12.3555 15.7335C12.3555 15.3248 12.0242 14.9935 11.6155 14.9935C11.2035 14.9989 10.8709 15.3315 10.8655 15.7435C10.8655 16.1577 11.2013 16.4935 11.6155 16.4935Z" fill="black"/>
</svg>
