<svg width="24" height="24" viewBox="0 0 24 24" fill="none" xmlns="http://www.w3.org/2000/svg">
<path fill-rule="evenodd" clip-rule="evenodd" d="M2.6572 13.352C2.6572 8.38142 6.68664 4.35198 11.6572 4.35198C16.6278 4.35198 20.6572 8.38142 20.6572 13.352C20.6572 18.3225 16.6278 22.352 11.6572 22.352C6.68664 22.352 2.6572 18.3225 2.6572 13.352ZM11.6572 18.102C12.0714 18.102 12.4072 17.7662 12.4072 17.352V12.942C12.407 12.7431 12.3279 12.5525 12.1872 12.412L9.3072 9.54198C9.16791 9.39903 8.97679 9.31841 8.7772 9.31841C8.57762 9.31841 8.38649 9.39903 8.2472 9.54198C7.95475 9.8348 7.95475 10.3092 8.2472 10.602L10.9072 13.252V17.352C10.9072 17.7662 11.243 18.102 11.6572 18.102Z" fill="black"/>
<path d="M21.1872 5.85198C19.9546 4.20355 18.3141 2.9043 16.4272 2.08198C16.2448 1.99507 16.0348 1.9865 15.846 2.05826C15.6571 2.13002 15.5058 2.27588 15.4272 2.46198C15.3438 2.646 15.3381 2.85589 15.4116 3.04413C15.485 3.23237 15.6312 3.38302 15.8172 3.46198C17.4642 4.18662 18.8968 5.3231 19.9772 6.76198C20.1188 6.95083 20.3411 7.06198 20.5772 7.06198C20.7396 7.06271 20.8977 7.01 21.0272 6.91198C21.1908 6.79399 21.3 6.61507 21.3301 6.41562C21.3602 6.21617 21.3087 6.013 21.1872 5.85198Z" fill="black"/>
<path d="M3.3272 6.75198C4.40759 5.3131 5.84024 4.17662 7.4872 3.45198C7.67318 3.37302 7.81944 3.22237 7.89285 3.03413C7.96626 2.84589 7.96062 2.636 7.8772 2.45198C7.79857 2.26588 7.64727 2.12002 7.45842 2.04826C7.26956 1.9765 7.05958 1.98507 6.8772 2.07198C4.99276 2.89857 3.3558 4.20124 2.1272 5.85198C1.9112 6.17397 1.97623 6.60753 2.2772 6.85198C2.40668 6.95 2.56481 7.00271 2.7272 7.00198C2.9548 7.01414 3.17558 6.92215 3.3272 6.75198Z" fill="black"/>
</svg>
