<svg width="24" height="24" viewBox="0 0 24 24" fill="none" xmlns="http://www.w3.org/2000/svg">
<path d="M15.9999 21.5C15.6025 21.4986 15.2216 21.3405 14.9399 21.06L6.93993 13.06C6.65656 12.7801 6.49707 12.3983 6.49707 12C6.49707 11.6017 6.65656 11.2199 6.93993 10.94L14.9399 2.94C15.3139 2.53869 15.877 2.3735 16.4085 2.50923C16.94 2.64495 17.355 3.05995 17.4907 3.59142C17.6264 4.12289 17.4612 4.68606 17.0599 5.06L10.1199 12L17.0599 18.94C17.3433 19.2199 17.5028 19.6017 17.5028 20C17.5028 20.3983 17.3433 20.7801 17.0599 21.06C16.7783 21.3405 16.3974 21.4986 15.9999 21.5Z" fill="black"/>
</svg>
