<svg width="24" height="24" viewBox="0 0 24 24" fill="none" xmlns="http://www.w3.org/2000/svg">
<path d="M14.1897 6.46002H9.77974L9.85974 6.37002C10.1431 6.09009 10.3026 5.70835 10.3026 5.31002C10.3026 4.9117 10.1431 4.52996 9.85974 4.25002C9.27186 3.67057 8.32762 3.67057 7.73974 4.25002L5.08974 6.90002C4.94951 7.0388 4.84043 7.20583 4.76974 7.39002C4.62363 7.73867 4.62363 8.13138 4.76974 8.48002C4.84204 8.67229 4.95069 8.84884 5.08974 9.00002L7.73974 11.64C8.32538 12.2249 9.27411 12.2249 9.85974 11.64C10.1431 11.3601 10.3026 10.9783 10.3026 10.58C10.3026 10.1817 10.1431 9.79996 9.85974 9.52002L9.77974 9.44002H14.1897C14.8651 9.43994 15.5122 9.71092 15.9859 10.1922C16.4597 10.6735 16.7205 11.3248 16.7097 12V18.72C16.7097 19.5485 17.3813 20.22 18.2097 20.22C19.0382 20.22 19.7097 19.5485 19.7097 18.72V12C19.7151 10.5326 19.1358 9.12339 18.1001 8.08386C17.0643 7.04433 15.6572 6.46001 14.1897 6.46002Z" fill="black"/>
</svg>
