<svg width="24" height="24" viewBox="0 0 24 24" fill="none" xmlns="http://www.w3.org/2000/svg">
<path d="M15.5804 11.3899C15.7233 11.5271 15.9124 11.6056 16.1104 11.6099C16.3088 11.6076 16.4987 11.5288 16.6404 11.3899L19.5704 8.45993C19.6405 8.38861 19.695 8.30347 19.7304 8.20993C19.81 8.02827 19.81 7.82159 19.7304 7.63993C19.6925 7.55068 19.6382 7.46929 19.5704 7.39993L16.6404 4.46993C16.4535 4.26928 16.1719 4.18668 15.9061 4.25454C15.6404 4.32241 15.4329 4.52991 15.365 4.79564C15.2972 5.06137 15.3798 5.34296 15.5804 5.52993L17.2304 7.17993H10.1404C7.26855 7.17993 4.94043 9.50805 4.94043 12.3799V14.6599C4.95064 17.4319 7.16906 19.6903 9.94043 19.7499H17.1204C17.3237 19.7553 17.5207 19.679 17.6673 19.538C17.8138 19.3971 17.8978 19.2033 17.9004 18.9999C17.9005 18.5896 17.5707 18.2554 17.1604 18.2499H10.0004C8.00169 18.1903 6.41412 16.5495 6.42043 14.5499V12.3799C6.42043 10.3365 8.07698 8.67993 10.1204 8.67993H17.2104L15.5604 10.3299C15.2734 10.6282 15.2824 11.1027 15.5804 11.3899Z" fill="black"/>
</svg>
