<svg width="24" height="24" viewBox="0 0 24 24" fill="none" xmlns="http://www.w3.org/2000/svg">
<path d="M6.2796 14.9399L9.6896 11.5299C9.98507 11.2372 9.98731 10.7604 9.6946 10.4649C9.40189 10.1695 8.92507 10.1672 8.6296 10.4599L3.9996 15.1499C3.9315 15.2229 3.87728 15.3076 3.8396 15.3999C3.76961 15.5835 3.76961 15.7864 3.8396 15.9699C3.87728 16.0623 3.9315 16.147 3.9996 16.2199L8.6896 20.9099C8.83244 21.0471 9.0216 21.1256 9.2196 21.1299C9.41844 21.1298 9.60908 21.0506 9.7496 20.9099C9.89254 20.7707 9.97317 20.5795 9.97317 20.3799C9.97317 20.1804 9.89254 19.9892 9.7496 19.8499L6.3096 16.4399H15.3096C15.7238 16.4399 16.0596 16.1042 16.0596 15.6899C16.0596 15.2757 15.7238 14.9399 15.3096 14.9399H6.2796Z" fill="black"/>
<path d="M20.1896 5.99995C20.1399 5.91588 20.0755 5.84138 19.9996 5.77995L15.3396 1.08995C15.0468 0.797492 14.5724 0.797492 14.2796 1.08995C14.1367 1.22923 14.056 1.42036 14.056 1.61995C14.056 1.81953 14.1367 2.01066 14.2796 2.14995L17.6896 5.56995H8.6896C8.27538 5.56995 7.9396 5.90573 7.9396 6.31995C7.9396 6.73416 8.27538 7.06995 8.6896 7.06995H17.6896L14.2796 10.4799C14.1367 10.6192 14.056 10.8104 14.056 11.0099C14.056 11.2095 14.1367 11.4007 14.2796 11.5399C14.4201 11.6806 14.6108 11.7598 14.8096 11.7599C15.0076 11.7556 15.1968 11.6771 15.3396 11.5399L19.9996 6.84995C20.0677 6.77704 20.1219 6.69232 20.1596 6.59995C20.2472 6.41144 20.2579 6.19625 20.1896 5.99995Z" fill="black"/>
</svg>
