<svg width="24" height="24" viewBox="0 0 24 24" fill="none" xmlns="http://www.w3.org/2000/svg">
<path d="M14.2205 6.42996H9.00048L9.37048 6.05996C9.74918 5.67054 9.89137 5.10866 9.74347 4.58599C9.59557 4.06331 9.18007 3.65924 8.65347 3.52599C8.12687 3.39273 7.56918 3.55054 7.19048 3.93996L4.27048 6.86996C4.12929 7.00997 4.01715 7.17649 3.94048 7.35996C3.8076 7.71114 3.8076 8.09877 3.94048 8.44996C4.01297 8.65334 4.12514 8.84029 4.27048 8.99996L7.19048 11.93C7.57005 12.3237 8.13287 12.4814 8.66179 12.3423C9.19071 12.2031 9.60304 11.7889 9.73971 11.2593C9.87638 10.7297 9.71601 10.1677 9.32048 9.78996L9.00048 9.42996H14.2705C15.9273 9.42996 17.2705 10.7731 17.2705 12.43V14.6C17.2826 16.1802 16.0394 17.4853 14.4605 17.55H6.46048C5.63205 17.55 4.96048 18.2215 4.96048 19.05C4.96048 19.8784 5.63205 20.55 6.46048 20.55H14.4605C17.6767 20.4577 20.2327 17.8175 20.2205 14.6V12.38C20.193 9.08579 17.5148 6.42984 14.2205 6.42996Z" fill="black"/>
</svg>
