<svg width="24" height="24" viewBox="0 0 24 24" fill="none" xmlns="http://www.w3.org/2000/svg">
<path d="M14.4305 3.49989H8.00048C7.59828 3.49455 7.21057 3.64991 6.92334 3.93151C6.63611 4.2131 6.47311 4.59766 6.47048 4.99989C6.46762 5.40382 6.62889 5.79161 6.91734 6.0744C7.20578 6.35718 7.59668 6.51074 8.00048 6.49989H14.3605C15.9528 6.54865 17.2166 7.8568 17.2105 9.44989V11.6199C17.2105 13.2767 15.8673 14.6199 14.2105 14.6199H9.00048L9.37048 14.2499C9.9559 13.6617 9.95367 12.7103 9.36548 12.1249C8.7773 11.5395 7.8259 11.5417 7.24048 12.1299L4.27048 14.9999C4.13155 15.1418 4.01972 15.3078 3.94048 15.4899C3.8076 15.8411 3.8076 16.2287 3.94048 16.5799C4.01715 16.7634 4.12929 16.9299 4.27048 17.0699L7.19048 19.9999C7.77954 20.5859 8.73142 20.5859 9.32048 19.9999C9.89994 19.412 9.89994 18.4678 9.32048 17.8799L9.00048 17.5699H14.2705C17.5842 17.5699 20.2705 14.8836 20.2705 11.5699V9.44989C20.2872 6.19968 17.6804 3.54377 14.4305 3.49989Z" fill="black"/>
</svg>
