<svg width="24" height="24" viewBox="0 0 24 24" fill="none" xmlns="http://www.w3.org/2000/svg">
<path d="M8.35953 11.8199H10.3595C11.188 11.8199 11.8595 11.1484 11.8595 10.3199C11.8595 9.49151 11.188 8.81994 10.3595 8.81994H4.73953C4.55071 8.81967 4.36373 8.85707 4.18953 8.92994C3.81797 9.07804 3.52218 9.37022 3.36953 9.73994C3.30571 9.91294 3.27189 10.0956 3.26953 10.2799V15.8799C3.26953 16.7084 3.9411 17.3799 4.76953 17.3799C5.59796 17.3799 6.26953 16.7084 6.26953 15.8799V13.8799L10.1295 17.7499C10.4124 18.0286 10.7925 18.1864 11.1895 18.1899C11.7958 18.1894 12.3422 17.8239 12.5741 17.2638C12.806 16.7036 12.678 16.0589 12.2495 15.6299L8.35953 11.8199Z" fill="black"/>
<path d="M20.7595 13.6799V8.07994C20.7595 7.25151 20.088 6.57994 19.2595 6.57994C18.4311 6.57994 17.7595 7.25151 17.7595 8.07994V10.0799L13.8995 6.18994C13.3085 5.63922 12.3875 5.65547 11.8163 6.22669C11.2451 6.79792 11.2288 7.71892 11.7795 8.30994L15.6395 12.1799H13.6395C12.8111 12.1799 12.1395 12.8515 12.1395 13.6799C12.1395 14.5084 12.8111 15.1799 13.6395 15.1799H19.2295C19.4184 15.1802 19.6053 15.1428 19.7795 15.0699C20.1511 14.9218 20.4469 14.6297 20.5995 14.2599C20.6943 14.0805 20.7489 13.8826 20.7595 13.6799Z" fill="black"/>
</svg>
