<svg width="24" height="24" viewBox="0 0 24 24" fill="none" xmlns="http://www.w3.org/2000/svg">
<path d="M6.69036 18.0599C6.27615 18.0599 5.94036 17.7241 5.94036 17.3099V7.4299C5.93764 7.23017 6.01579 7.03782 6.15703 6.89658C6.29828 6.75533 6.49063 6.67719 6.69036 6.6799C7.10457 6.6799 7.44036 7.01569 7.44036 7.4299V16.5599H16.5704C16.9846 16.5599 17.3204 16.8957 17.3204 17.3099C17.3204 17.7241 16.9846 18.0599 16.5704 18.0599H6.69036Z" fill="black"/>
<path d="M6.69036 18.0599C6.49129 18.0608 6.30024 17.9815 6.16036 17.8399C5.86791 17.5471 5.86791 17.0727 6.16036 16.7799L16.7804 6.1599C16.9673 5.95925 17.2489 5.87665 17.5147 5.94452C17.7804 6.01238 17.9879 6.21988 18.0557 6.48562C18.1236 6.75135 18.041 7.03293 17.8404 7.2199L7.22036 17.8399C7.08113 17.9825 6.88965 18.062 6.69036 18.0599Z" fill="black"/>
<path d="M6.69036 18.8099C5.86193 18.8099 5.19036 18.1383 5.19036 17.3099V7.4199C5.193 7.02208 5.35358 6.64159 5.63676 6.36216C5.91994 6.08273 6.30253 5.92724 6.70036 5.9299C7.52879 5.9299 8.20036 6.60148 8.20036 7.4299V15.8099H16.5804C17.4088 15.8099 18.0804 16.4815 18.0804 17.3099C18.0804 18.1383 17.4088 18.8099 16.5804 18.8099H6.69036Z" fill="black"/>
<path d="M6.69036 18.8099C6.29289 18.8085 5.91201 18.6504 5.63036 18.3699C5.34699 18.09 5.1875 17.7082 5.1875 17.3099C5.1875 16.9116 5.34699 16.5298 5.63036 16.2499L16.2504 5.6199C16.849 5.10129 17.7467 5.13342 18.3068 5.69349C18.8668 6.25357 18.899 7.15123 18.3804 7.7499L7.75036 18.3699C7.46995 18.6522 7.08827 18.8107 6.69036 18.8099Z" fill="black"/>
</svg>
