<svg width="24" height="24" viewBox="0 0 24 24" fill="none" xmlns="http://www.w3.org/2000/svg">
<path d="M14.7596 4.78003H6.82958C6.41536 4.78003 6.07958 5.11582 6.07958 5.53003C6.07958 5.94424 6.41536 6.28003 6.82958 6.28003H14.7096C16.7185 6.33451 18.3122 7.99053 18.2896 10V12.17C18.2896 14.2135 16.633 15.87 14.5896 15.87H7.49958L9.14958 14.2C9.29252 14.0607 9.37315 13.8696 9.37315 13.67C9.37315 13.4704 9.29252 13.2793 9.14958 13.14C8.85676 12.8476 8.38239 12.8476 8.08958 13.14L5.15958 16.07C5.09179 16.1394 5.03753 16.2208 4.99958 16.31C4.92983 16.4971 4.92983 16.703 4.99958 16.89C5.03753 16.9793 5.09179 17.0607 5.15958 17.13L8.08958 20.06C8.22946 20.2017 8.42051 20.281 8.61958 20.28C8.81887 20.2821 9.01035 20.2026 9.14958 20.06C9.29252 19.9207 9.37315 19.7296 9.37315 19.53C9.37315 19.3304 9.29252 19.1393 9.14958 19L7.49958 17.35H14.5896C17.4615 17.35 19.7896 15.0219 19.7896 12.15V10C19.8179 7.17911 17.5796 4.85628 14.7596 4.78003Z" fill="black"/>
</svg>
