<svg width="24" height="24" viewBox="0 0 24 24" fill="none" xmlns="http://www.w3.org/2000/svg">
<path d="M5.20005 10.76H10C10.4143 10.76 10.75 10.4242 10.75 10.01C10.75 9.59581 10.4143 9.26003 10 9.26003H3.39005C3.29027 9.25971 3.19151 9.28015 3.10005 9.32002C2.91578 9.39893 2.76895 9.54575 2.69005 9.73002C2.67493 9.82275 2.67493 9.9173 2.69005 10.01V16.64C2.69005 17.0542 3.02584 17.39 3.44005 17.39C3.85426 17.39 4.19005 17.0542 4.19005 16.64V11.82L10.53 18.16C10.6693 18.3026 10.8608 18.3821 11.06 18.38C11.2591 18.381 11.4502 18.3017 11.59 18.16C11.8825 17.8672 11.8825 17.3928 11.59 17.1L5.20005 10.76Z" fill="black"/>
<path d="M21.3601 7.35003C21.3601 6.93581 21.0243 6.60002 20.6101 6.60002C20.1958 6.60002 19.8601 6.93581 19.8601 7.35003V12.18L13.52 5.84003C13.3808 5.69708 13.1896 5.61646 12.99 5.61646C12.7905 5.61646 12.5993 5.69708 12.46 5.84003C12.1676 6.13284 12.1676 6.60721 12.46 6.90003L18.8 13.24H14C13.5858 13.24 13.25 13.5758 13.25 13.99C13.25 14.4042 13.5858 14.74 14 14.74H20.6301C20.7298 14.7403 20.8286 14.7199 20.92 14.68C21.1043 14.6011 21.2511 14.4543 21.33 14.27C21.362 14.1801 21.3789 14.0855 21.3801 13.99L21.3601 7.35003Z" fill="black"/>
</svg>
