<svg width="24" height="24" viewBox="0 0 24 24" fill="none" xmlns="http://www.w3.org/2000/svg">
<path d="M18.7198 7.67023C18.6818 7.58098 18.6276 7.49959 18.5598 7.43023L15.9098 4.78023C15.7228 4.57958 15.4412 4.49698 15.1755 4.56485C14.9097 4.63271 14.7022 4.84021 14.6344 5.10594C14.5665 5.37168 14.6491 5.65326 14.8498 5.84023L16.2198 7.21023H9.99977C8.72948 7.20756 7.5106 7.71168 6.6133 8.61085C5.71601 9.51002 5.21444 10.73 5.21977 12.0002V18.7202C5.21977 19.1344 5.55556 19.4702 5.96977 19.4702C6.38398 19.4702 6.71977 19.1344 6.71977 18.7202V12.0002C6.71443 11.1278 7.05796 10.2894 7.67395 9.6715C8.28994 9.05363 9.1273 8.70755 9.99977 8.71023H16.2298L14.8598 10.0702C14.5673 10.363 14.5673 10.8374 14.8598 11.1302C14.9997 11.2719 15.1907 11.3512 15.3898 11.3502C15.5891 11.3523 15.7805 11.2728 15.9198 11.1302L18.5698 8.49023C18.6379 8.41733 18.6921 8.3326 18.7298 8.24023C18.7965 8.05545 18.793 7.85256 18.7198 7.67023Z" fill="black"/>
</svg>
