<svg width="24" height="24" viewBox="0 0 24 24" fill="none" xmlns="http://www.w3.org/2000/svg">
<path d="M21.9104 14.2801C21.7694 14.1366 21.5766 14.0557 21.3754 14.0557C21.1742 14.0557 20.9814 14.1366 20.8404 14.2801L17.4404 17.6901V8.69009C17.4404 8.27587 17.1046 7.94009 16.6904 7.94009C16.2762 7.94009 15.9404 8.27587 15.9404 8.69009V17.6901L12.5304 14.2801C12.3411 14.0889 12.0641 14.0133 11.8039 14.0818C11.5437 14.1502 11.3398 14.3522 11.2689 14.6118C11.1981 14.8713 11.2711 15.1489 11.4604 15.3401L16.1604 20.0001C16.2279 20.0702 16.3098 20.1248 16.4004 20.1601C16.4919 20.2 16.5907 20.2204 16.6904 20.2201C16.787 20.2205 16.8825 20.2 16.9704 20.1601C17.064 20.1247 17.1491 20.0702 17.2204 20.0001L21.9104 15.3101C22.1835 15.021 22.1835 14.5691 21.9104 14.2801Z" fill="black"/>
<path d="M11.4704 9.72009C11.7667 10.0137 12.2442 10.0137 12.5404 9.72009C12.8329 9.42727 12.8329 8.9529 12.5404 8.66009L7.84043 4.00009C7.773 3.92996 7.6911 3.87536 7.60043 3.84009C7.41688 3.7701 7.21399 3.7701 7.03043 3.84009C6.93806 3.87777 6.85334 3.93199 6.78043 4.00009L2.09043 8.66009C1.79798 8.9529 1.79798 9.42727 2.09043 9.72009C2.22972 9.86303 2.42085 9.94366 2.62043 9.94366C2.82002 9.94366 3.01115 9.86303 3.15043 9.72009L6.56043 6.31009V15.3101C6.56043 15.578 6.70338 15.8256 6.93543 15.9596C7.16748 16.0936 7.45338 16.0936 7.68543 15.9596C7.91748 15.8256 8.06043 15.578 8.06043 15.3101V6.31009L11.4704 9.72009Z" fill="black"/>
</svg>
