<svg width="24" height="24" viewBox="0 0 24 24" fill="none" xmlns="http://www.w3.org/2000/svg">
<path d="M11.4801 20.4801C11.0843 20.4802 10.704 20.326 10.4201 20.0501L3.42013 13.0501C2.83522 12.4644 2.83522 11.5157 3.42013 10.9301L10.4201 3.93007C10.8006 3.55137 11.3542 3.40442 11.8724 3.54458C12.3907 3.68475 12.7947 4.09072 12.9324 4.60958C13.0702 5.12845 12.9206 5.68137 12.5401 6.06007L8.10767 10.5H19.52C20.3484 10.5 21.02 11.1716 21.02 12C21.02 12.8284 20.3484 13.5 19.52 13.5H8.11259L12.5401 17.9201C12.9686 18.349 13.0966 18.9938 12.8647 19.5539C12.6328 20.1141 12.0864 20.4795 11.4801 20.4801Z" fill="black"/>
</svg>
