<svg width="24" height="24" viewBox="0 0 24 24" fill="none" xmlns="http://www.w3.org/2000/svg">
<path d="M21 13.3101C20.7201 13.0267 20.3383 12.8673 19.94 12.8673C19.5417 12.8673 19.16 13.0267 18.88 13.3101L17.48 14.7001V9.23011C17.48 8.40169 16.8084 7.73011 15.98 7.73011C15.1516 7.73011 14.48 8.40169 14.48 9.23011V14.7001L13.09 13.3101C12.499 12.7594 11.578 12.7756 11.0068 13.3469C10.4356 13.9181 10.4193 14.8391 10.97 15.4301L14.97 19.3801C15.0421 19.4488 15.119 19.5123 15.2 19.5701L15.28 19.6201L15.45 19.7101H15.57L15.73 19.7601C15.928 19.8002 16.132 19.8002 16.33 19.7601L16.51 19.7101H16.61L16.79 19.6101H16.87L17.09 19.4201L21.09 15.4701C21.3693 15.174 21.5172 14.7778 21.5003 14.3711C21.4833 13.9645 21.3029 13.5819 21 13.3101Z" fill="black"/>
<path d="M10.94 10.6901C11.2198 10.9734 11.6019 11.132 12 11.1301C12.3988 11.1355 12.7822 10.9763 13.06 10.6901C13.3434 10.4102 13.5029 10.0284 13.5029 9.63011C13.5029 9.23179 13.3434 8.85005 13.06 8.57011L9.06002 4.62011C8.91815 4.48119 8.75209 4.36935 8.57002 4.29011C8.21552 4.15655 7.82453 4.15655 7.47002 4.29011C7.29369 4.36903 7.13414 4.48106 7.00002 4.62011L3.00002 8.62011C2.42057 9.20799 2.42057 10.1522 3.00002 10.7401C3.27996 11.0235 3.6617 11.183 4.06002 11.183C4.45835 11.183 4.84009 11.0235 5.12002 10.7401L6.55002 9.30011V14.7701C6.55002 15.5985 7.2216 16.2701 8.05002 16.2701C8.87845 16.2701 9.55002 15.5985 9.55002 14.7701V9.30011L10.94 10.6901Z" fill="black"/>
</svg>
