<svg width="24" height="24" viewBox="0 0 24 24" fill="none" xmlns="http://www.w3.org/2000/svg">
<path d="M16.2498 18.38C16.5337 18.6559 16.914 18.8102 17.3098 18.81C17.9179 18.8136 18.468 18.4496 18.7025 17.8885C18.937 17.3275 18.8095 16.6803 18.3798 16.25L10.3021 8.17993H16.5902C17.4187 8.17993 18.0902 7.50836 18.0902 6.67993C18.0902 5.8515 17.4187 5.17993 16.5902 5.17993H6.93732C6.72349 5.13854 6.49968 5.14348 6.28122 5.19927C5.74976 5.335 5.33476 5.75 5.19903 6.28147C5.13528 6.5311 5.13792 6.78773 5.20023 7.02846V16.5799C5.20573 17.4045 5.87569 18.07 6.70023 18.0699L6.69023 18.0599C7.51866 18.0599 8.19023 17.3884 8.19023 16.5599V10.3129L16.2498 18.38Z" fill="black"/>
</svg>
