<svg width="24" height="24" viewBox="0 0 24 24" fill="none" xmlns="http://www.w3.org/2000/svg">
<path d="M17.3002 17.32C16.886 17.32 16.5502 16.9843 16.5502 16.57V7.44004H7.43022C7.01601 7.44004 6.68022 7.10426 6.68022 6.69004C6.68022 6.27583 7.01601 5.94004 7.43022 5.94004H17.3102C17.5078 5.93645 17.6987 6.01207 17.8402 6.15004C17.9834 6.293 18.0627 6.48774 18.0602 6.69004V16.57C18.063 16.7715 17.9835 16.9655 17.8401 17.107C17.6966 17.2486 17.5017 17.3255 17.3002 17.32Z" fill="black"/>
<path d="M6.69022 18.06C6.4926 18.0636 6.30175 17.988 6.16022 17.85C6.01669 17.709 5.93584 17.5163 5.93584 17.315C5.93584 17.1138 6.01669 16.9211 6.16022 16.78L16.7802 6.16004C16.9672 5.95939 17.2488 5.8768 17.5145 5.94466C17.7802 6.01252 17.9877 6.22002 18.0556 6.48576C18.1235 6.75149 18.0409 7.03307 17.8402 7.22004L7.22022 17.85C7.07693 17.9853 6.88725 18.0604 6.69022 18.06Z" fill="black"/>
<path d="M17.3002 18.07C16.4718 18.07 15.8002 17.3985 15.8002 16.57V8.19004H7.43022C6.60179 8.19004 5.93022 7.51847 5.93022 6.69004C5.93022 5.86162 6.60179 5.19004 7.43022 5.19004H17.3202C17.7205 5.18179 18.1069 5.33717 18.39 5.62029C18.6731 5.9034 18.8285 6.28975 18.8202 6.69004V16.57C18.8203 16.9714 18.6595 17.356 18.3738 17.6378C18.0882 17.9197 17.7015 18.0754 17.3002 18.07Z" fill="black"/>
<path d="M6.69022 18.81C6.29354 18.8146 5.91164 18.6596 5.63022 18.38C5.34625 18.0984 5.18652 17.715 5.18652 17.315C5.18652 16.9151 5.34625 16.5317 5.63022 16.25L16.2502 5.63004C16.6242 5.22874 17.1873 5.06355 17.7188 5.19927C18.2503 5.335 18.6653 5.75 18.801 6.28147C18.9367 6.81293 18.7715 7.3761 18.3702 7.75004L7.75022 18.38C7.46636 18.6559 7.08607 18.8102 6.69022 18.81Z" fill="black"/>
</svg>
