<svg width="24" height="24" viewBox="0 0 24 24" fill="none" xmlns="http://www.w3.org/2000/svg">
<path d="M20.0701 16.62C20.203 16.2688 20.203 15.8812 20.0701 15.53C19.9909 15.3479 19.879 15.1819 19.7401 15.04L16.8201 12.11C16.4414 11.7295 15.8885 11.58 15.3696 11.7177C14.8508 11.8554 14.4448 12.2595 14.3046 12.7777C14.1645 13.2959 14.3114 13.8495 14.6901 14.23L15.0601 14.6H9.78012C8.14283 14.5727 6.82989 13.2375 6.83012 11.6V9.45C6.81801 7.8698 8.06119 6.56467 9.64012 6.5H17.5401C18.3685 6.5 19.0401 5.82843 19.0401 5C19.0401 4.17157 18.3685 3.5 17.5401 3.5H9.59012C6.37387 3.59222 3.81795 6.23245 3.83012 9.45V11.62C3.83001 14.9143 6.48596 17.5925 9.78012 17.62H15.0501L14.6801 17.99C14.1007 18.5779 14.1007 19.5221 14.6801 20.11C15.2692 20.6961 16.2211 20.6961 16.8101 20.11L19.7301 17.18C19.8713 17.04 19.9835 16.8735 20.0601 16.69L20.0701 16.62Z" fill="black"/>
</svg>
