<svg width="24" height="24" viewBox="0 0 24 24" fill="none" xmlns="http://www.w3.org/2000/svg">
<path d="M14.6801 11.9199C15.2691 12.506 16.221 12.506 16.8101 11.9199L19.7301 8.99992C19.869 8.85805 19.9808 8.69199 20.0601 8.50992C20.1239 8.33346 20.1577 8.14755 20.1601 7.95992C20.1587 7.7722 20.1248 7.58613 20.0601 7.40992C19.9834 7.22645 19.8713 7.05993 19.7301 6.91992L16.8101 3.93992C16.2247 3.35174 15.2733 3.3495 14.6851 3.93492C14.0969 4.52034 14.0947 5.47174 14.6801 6.05992L15.0501 6.42992H9.78008C6.48591 6.45737 3.82996 9.13564 3.83008 12.4299V14.5999C3.83939 17.7927 6.3788 20.4029 9.57008 20.4999H17.5701C18.3985 20.4999 19.0701 19.8283 19.0701 18.9999C19.0701 18.1715 18.3985 17.4999 17.5701 17.4999C17.5701 17.4999 9.92008 17.4999 9.71008 17.4999C8.11772 17.4512 6.85391 16.143 6.86008 14.5499V12.3799C6.85985 10.7424 8.17278 9.40721 9.81008 9.37992H15.0801L14.7101 9.74992C14.4122 10.0303 14.2408 10.4195 14.2352 10.8286C14.2295 11.2376 14.3901 11.6314 14.6801 11.9199Z" fill="black"/>
</svg>
