<svg width="24" height="24" viewBox="0 0 24 24" fill="none" xmlns="http://www.w3.org/2000/svg">
<path d="M12 5.20996C6.55996 5.20996 2.45996 7.53996 2.45996 10.63C2.45996 13.2 5.28996 15.24 9.35996 15.86L8.99996 16.23C8.4205 16.8178 8.4205 17.7621 8.99996 18.35C9.58902 18.936 10.5409 18.936 11.13 18.35L13.86 15.62C14.4449 15.0343 14.4449 14.0856 13.86 13.5L11.13 10.77C10.8483 10.486 10.4649 10.3263 10.065 10.3263C9.665 10.3263 9.28161 10.486 8.99996 10.77C8.48448 11.2986 8.43755 12.1264 8.88996 12.71C6.72996 12.2 5.47996 11.24 5.47996 10.63C5.45996 9.77996 7.99996 8.20996 12 8.20996C16 8.20996 18.54 9.77996 18.54 10.63C18.54 11.15 17.59 11.99 15.83 12.53C15.2828 12.6563 14.8521 13.0777 14.7137 13.6219C14.5754 14.1662 14.7526 14.7421 15.1729 15.1144C15.5933 15.4867 16.1864 15.5931 16.71 15.39C19.71 14.47 21.54 12.69 21.54 10.63C21.54 7.53996 17.44 5.20996 12 5.20996Z" fill="black"/>
</svg>
