<svg width="24" height="24" viewBox="0 0 24 24" fill="none" xmlns="http://www.w3.org/2000/svg">
<path d="M18.8001 7.41998C18.7946 6.59546 18.1246 5.92996 17.3001 5.92998C16.4717 5.92998 15.8001 6.60155 15.8001 7.42998V13.69L7.75011 5.61998C7.16192 5.03456 6.21053 5.0368 5.62511 5.62498C5.03968 6.21316 5.04192 7.16456 5.63011 7.74998L13.6901 15.81H7.43011C6.60168 15.81 5.93011 16.4816 5.93011 17.31C5.93011 18.1384 6.60168 18.81 7.43011 18.81H17.3201C17.7187 18.8127 18.1018 18.6555 18.3837 18.3736C18.6656 18.0917 18.8228 17.7086 18.8201 17.31L18.8001 7.41998Z" fill="black"/>
</svg>
