<svg width="24" height="24" viewBox="0 0 24 24" fill="none" xmlns="http://www.w3.org/2000/svg">
<path d="M6.68952 18.06C6.27531 18.06 5.93952 17.7242 5.93952 17.31V7.42999C5.9368 7.23026 6.01495 7.03791 6.15619 6.89667C6.29744 6.75542 6.48979 6.67728 6.68952 6.67999C7.10374 6.67999 7.43952 7.01578 7.43952 7.42999V16.56H16.5695C16.9837 16.56 17.3195 16.8958 17.3195 17.31C17.3195 17.7242 16.9837 18.06 16.5695 18.06H6.68952Z" fill="black"/>
<path d="M6.68952 18.06C6.49046 18.0609 6.29941 17.9816 6.15952 17.84C5.86707 17.5472 5.86707 17.0728 6.15952 16.78L16.7795 6.15999C16.9665 5.95934 17.2481 5.87674 17.5138 5.94461C17.7795 6.01247 17.987 6.21997 18.0549 6.4857C18.1228 6.75144 18.0402 7.03302 17.8395 7.21999L7.21952 17.84C7.07964 17.9816 6.88859 18.0609 6.68952 18.06Z" fill="black"/>
<path d="M6.68952 18.06C6.27531 18.06 5.93952 17.7242 5.93952 17.31V7.42999C5.9368 7.23026 6.01495 7.03791 6.15619 6.89667C6.29744 6.75542 6.48979 6.67728 6.68952 6.67999C7.10374 6.67999 7.43952 7.01578 7.43952 7.42999V16.56H16.5695C16.9837 16.56 17.3195 16.8958 17.3195 17.31C17.3195 17.7242 16.9837 18.06 16.5695 18.06H6.68952Z" fill="black"/>
<path d="M6.68952 18.06C6.49046 18.0609 6.29941 17.9816 6.15952 17.84C5.86707 17.5472 5.86707 17.0728 6.15952 16.78L16.7795 6.15999C16.9665 5.95934 17.2481 5.87674 17.5138 5.94461C17.7795 6.01247 17.987 6.21997 18.0549 6.4857C18.1228 6.75144 18.0402 7.03302 17.8395 7.21999L7.21952 17.84C7.07964 17.9816 6.88859 18.0609 6.68952 18.06Z" fill="black"/>
</svg>
