<svg width="24" height="24" viewBox="0 0 24 24" fill="none" xmlns="http://www.w3.org/2000/svg">
<path d="M16.7806 17.8501C16.9239 17.9853 17.1136 18.0605 17.3106 18.0601C17.5082 18.0637 17.6991 17.9881 17.8406 17.8501C17.9841 17.7091 18.065 17.5163 18.065 17.3151C18.065 17.1139 17.9841 16.9211 17.8406 16.7801L8.49042 7.42993H16.6306C17.0448 7.42993 17.3806 7.09415 17.3806 6.67993C17.3806 6.26572 17.0448 5.92993 16.6306 5.92993H6.78471C6.68686 5.91503 6.58548 5.9194 6.48631 5.94473C6.22058 6.01259 6.01308 6.22009 5.94522 6.48583C5.89996 6.66303 5.92162 6.84729 6.00057 7.00584V16.5699C5.99462 16.9674 6.30369 17.2985 6.70057 17.3199L6.69057 17.3099C7.10479 17.3099 7.44057 16.9741 7.44057 16.5599V8.50129L16.7806 17.8501Z" fill="black"/>
</svg>
