<svg width="24" height="24" viewBox="0 0 24 24" fill="none" xmlns="http://www.w3.org/2000/svg">
<path d="M4.49001 11.9999C4.62336 12.1404 4.80646 12.223 5.00001 12.2299C5.20748 12.2338 5.40703 12.1503 5.55001 11.9999L11.25 6.29994V19.52C11.2554 19.932 11.588 20.2646 12 20.27C12.412 20.2646 12.7446 19.932 12.75 19.52V6.29993L18.45 11.9999C18.6411 12.1964 18.9226 12.276 19.1883 12.2087C19.4541 12.1415 19.6637 11.9375 19.7383 11.6738C19.8129 11.41 19.7411 11.1264 19.55 10.9299L12.55 3.92994C12.2529 3.64803 11.7871 3.64803 11.49 3.92994L4.49001 10.9299C4.34648 11.071 4.26562 11.2637 4.26562 11.4649C4.26562 11.6661 4.34648 11.8589 4.49001 11.9999Z" fill="black"/>
</svg>
