<svg width="24" height="24" viewBox="0 0 24 24" fill="none" xmlns="http://www.w3.org/2000/svg">
<path d="M6.22438 17.9287C6.36591 18.0667 6.55676 18.1423 6.75438 18.1387C6.95141 18.1391 7.14109 18.064 7.28438 17.9287L16.6144 8.58994V16.6487C16.6144 17.0629 16.9502 17.3987 17.3644 17.3987C17.5658 17.4042 17.7608 17.3273 17.9042 17.1857C18.0477 17.0442 18.1272 16.8502 18.1244 16.6487V6.9165C18.1504 6.80241 18.1498 6.68188 18.1198 6.56444C18.0519 6.29871 17.8444 6.09121 17.5787 6.02334C17.4612 5.99335 17.3407 5.99275 17.2266 6.01873H7.49438C7.08017 6.01873 6.74438 6.35451 6.74438 6.76873C6.74438 7.18294 7.08017 7.51873 7.49438 7.51873H15.5644L6.22438 16.8587C6.08085 16.9997 6 17.1925 6 17.3937C6 17.5949 6.08085 17.7877 6.22438 17.9287Z" fill="black"/>
</svg>
