<svg width="24" height="24" viewBox="0 0 24 24" fill="none" xmlns="http://www.w3.org/2000/svg">
<path d="M18.0496 7.43012C18.0523 7.23038 17.9742 7.03803 17.833 6.89679C17.6917 6.75554 17.4994 6.6774 17.2996 6.68012C16.8854 6.68012 16.5496 7.0159 16.5496 7.43012V15.5001L7.21963 6.16012C7.03266 5.95946 6.75107 5.87687 6.48534 5.94473C6.2196 6.01259 6.0121 6.22009 5.94424 6.48583C5.87638 6.75156 5.95897 7.03314 6.15963 7.22012L15.4996 16.5601H7.42963C7.01541 16.5601 6.67963 16.8959 6.67963 17.3101C6.67963 17.7243 7.01541 18.0601 7.42963 18.0601H17.3096C17.7238 18.0601 18.0596 17.7243 18.0596 17.3101L18.0496 7.43012Z" fill="black"/>
</svg>
