<svg width="24" height="24" viewBox="0 0 24 24" fill="none" xmlns="http://www.w3.org/2000/svg">
<path d="M14.77 14.45H9.30002L10.69 13.06C11.2407 12.469 11.2245 11.548 10.6533 10.9768C10.082 10.4056 9.16104 10.3893 8.57002 10.94L4.62002 14.94C4.55134 15.0121 4.48784 15.089 4.43002 15.17C4.4333 15.1932 4.4333 15.2168 4.43002 15.24C4.43002 15.3 4.36002 15.36 4.33002 15.43V15.52C4.32428 15.5832 4.32428 15.6468 4.33002 15.71C4.31968 15.8064 4.31968 15.9036 4.33002 16C4.32019 16.0998 4.32019 16.2003 4.33002 16.3C4.32431 16.3532 4.32431 16.4068 4.33002 16.46V16.58L4.42002 16.75V16.84C4.47793 16.9179 4.54143 16.9914 4.61002 17.06L8.61002 21.06C8.89287 21.3387 9.27298 21.4965 9.67002 21.5C10.2763 21.4995 10.8226 21.134 11.0546 20.5739C11.2865 20.0137 11.1585 19.369 10.73 18.94L9.30002 17.45H14.77C15.5984 17.45 16.27 16.7785 16.27 15.95C16.27 15.1216 15.5984 14.45 14.77 14.45Z" fill="black"/>
<path d="M19.61 8.81002C19.61 8.75002 19.68 8.69002 19.71 8.62002C19.7071 8.59009 19.7071 8.55995 19.71 8.53002C19.7326 8.46839 19.7493 8.40478 19.76 8.34002C19.7704 8.24363 19.7704 8.14641 19.76 8.05002C19.7698 7.95026 19.7698 7.84978 19.76 7.75002C19.748 7.69209 19.7313 7.63524 19.71 7.58002V7.47002C19.6805 7.40796 19.6471 7.34784 19.61 7.29002V7.21002C19.5389 7.13415 19.462 7.06394 19.38 7.00002L15.43 3.00002C14.8421 2.42057 13.8979 2.42057 13.31 3.00002C13.0266 3.27996 12.8672 3.6617 12.8672 4.06002C12.8672 4.45835 13.0266 4.84009 13.31 5.12002L14.7 6.52002H9.23002C8.40159 6.52002 7.73002 7.1916 7.73002 8.02002C7.73002 8.84845 8.40159 9.52002 9.23002 9.52002H14.7L13.31 10.91C13.026 11.1917 12.8663 11.5751 12.8663 11.975C12.8663 12.375 13.026 12.7584 13.31 13.04C13.5914 13.3196 13.9733 13.4745 14.37 13.47C14.7659 13.4702 15.1462 13.3159 15.43 13.04L19.38 9.04002C19.4487 8.96794 19.5122 8.89108 19.57 8.81002H19.61Z" fill="black"/>
</svg>
