<svg width="24" height="24" viewBox="0 0 24 24" fill="none" xmlns="http://www.w3.org/2000/svg">
<path d="M14.5898 7.18007H7.49975L9.14975 5.53007C9.2927 5.39078 9.37332 5.19966 9.37332 5.00007C9.37332 4.80049 9.2927 4.60936 9.14975 4.47007C8.85694 4.17762 8.38257 4.17762 8.08975 4.47007L5.15975 7.40007C5.09196 7.46943 5.0377 7.55082 4.99975 7.64007C4.92977 7.82363 4.92977 8.02652 4.99975 8.21007C5.03514 8.30361 5.08964 8.38876 5.15975 8.46007L8.08975 11.3901C8.2326 11.5272 8.42176 11.6058 8.61975 11.6101C8.81817 11.6078 9.00803 11.529 9.14975 11.3901C9.2927 11.2508 9.37332 11.0597 9.37332 10.8601C9.37332 10.6605 9.2927 10.4694 9.14975 10.3301L7.49975 8.68007H14.5898C16.6332 8.68007 18.2898 10.3366 18.2898 12.3801V14.5501C18.3017 16.5443 16.7229 18.1851 14.7298 18.2501H6.82975C6.41554 18.2501 6.07975 18.5859 6.07975 19.0001C6.07975 19.4143 6.41554 19.7501 6.82975 19.7501H14.7598C17.5601 19.658 19.7775 17.3519 19.7598 14.5501V12.3801C19.7598 9.51987 17.4499 7.19657 14.5898 7.18007Z" fill="black"/>
</svg>
