<svg width="24" height="24" viewBox="0 0 24 24" fill="none" xmlns="http://www.w3.org/2000/svg">
<path d="M19.6004 8.50024C19.7465 8.1516 19.7465 7.75888 19.6004 7.41024C19.5334 7.22422 19.4238 7.05644 19.2804 6.92024L16.6204 4.25024C16.0294 3.69952 15.1084 3.71577 14.5372 4.287C13.966 4.85822 13.9497 5.77922 14.5004 6.37024L14.5904 6.46024H10.1704C8.70296 6.46023 7.29589 7.04455 6.26011 8.08408C5.22433 9.12361 4.64511 10.5328 4.65043 12.0002V18.7202C4.65043 19.5487 5.322 20.2202 6.15043 20.2202C6.97885 20.2202 7.65043 19.5487 7.65043 18.7202V12.0002C7.65593 10.6124 8.78257 9.49023 10.1704 9.49024H14.5904L14.5004 9.57024C13.921 10.1581 13.921 11.1024 14.5004 11.6902C14.7833 11.9689 15.1634 12.1267 15.5604 12.1302C15.9583 12.131 16.34 11.9726 16.6204 11.6902L19.2704 9.00024C19.4097 8.86071 19.5187 8.69389 19.5904 8.51024L19.6004 8.50024Z" fill="black"/>
</svg>
