<svg width="24" height="24" viewBox="0 0 24 24" fill="none" xmlns="http://www.w3.org/2000/svg">
<path d="M14 7.21023H7.78003L9.15003 5.84023C9.35068 5.65326 9.43328 5.37168 9.36541 5.10594C9.29755 4.84021 9.09005 4.63271 8.82432 4.56485C8.55858 4.49698 8.277 4.57958 8.09003 4.78023L5.44003 7.43023C5.37224 7.49959 5.31798 7.58098 5.28003 7.67023C5.21004 7.85379 5.21004 8.05668 5.28003 8.24023C5.31771 8.3326 5.37193 8.41733 5.44003 8.49023L8.09003 11.1302C8.22925 11.2728 8.42074 11.3523 8.62003 11.3502C8.81909 11.3512 9.01014 11.2719 9.15003 11.1302C9.44248 10.8374 9.44248 10.363 9.15003 10.0702L7.78003 8.71023H14C14.8725 8.70755 15.7099 9.05363 16.3258 9.6715C16.9418 10.2894 17.2854 11.1278 17.28 12.0002V18.7202C17.28 19.1344 17.6158 19.4702 18.03 19.4702C18.4442 19.4702 18.78 19.1344 18.78 18.7202V12.0002C18.7854 10.73 18.2838 9.51002 17.3865 8.61085C16.4892 7.71168 15.2703 7.20756 14 7.21023Z" fill="black"/>
</svg>
