<svg width="24" height="24" viewBox="0 0 24 24" fill="none" xmlns="http://www.w3.org/2000/svg">
<path d="M20.5805 10.94L13.5805 3.93996C13.2 3.56126 12.6464 3.41431 12.1282 3.55447C11.6099 3.69463 11.2059 4.10061 11.0682 4.61947C10.9304 5.13834 11.08 5.69126 11.4605 6.06996L15.8905 10.49H4.48047C3.65204 10.49 2.98047 11.1615 2.98047 11.99C2.98047 12.8184 3.65204 13.49 4.48047 13.49H15.8905L11.4605 17.91C11.032 18.3389 10.904 18.9836 11.1359 19.5438C11.3678 20.104 11.9142 20.4694 12.5205 20.47C12.923 20.464 13.3058 20.2943 13.5805 20L20.5805 13C21.1654 12.4143 21.1654 11.4656 20.5805 10.88V10.94Z" fill="black"/>
</svg>
