<svg width="24" height="24" viewBox="0 0 24 24" fill="none" xmlns="http://www.w3.org/2000/svg">
<path d="M12 6C7.06996 6 3.20996 8 3.20996 10.63C3.20996 13.08 6.55996 15.02 11 15.28L9.50996 16.76C9.21751 17.0528 9.21751 17.5272 9.50996 17.82C9.8062 18.1136 10.2837 18.1136 10.58 17.82L13.31 15.09C13.6024 14.7972 13.6024 14.3228 13.31 14.03L10.58 11.3C10.2815 11.0117 9.80837 11.0117 9.50996 11.3C9.21751 11.5928 9.21751 12.0672 9.50996 12.36L10.93 13.77C7.21996 13.52 4.70996 12 4.70996 10.63C4.70996 9.26 7.70996 7.46 12 7.46C16.29 7.46 19.29 9.13 19.29 10.63C19.29 11.63 18.02 12.63 16.05 13.24C15.6523 13.3615 15.4285 13.7824 15.55 14.18C15.6715 14.5776 16.0923 14.8015 16.49 14.68C19.18 13.85 20.79 12.34 20.79 10.68C20.79 8 16.93 6 12 6Z" fill="black"/>
</svg>
