<svg width="24" height="24" viewBox="0 0 24 24" fill="none" xmlns="http://www.w3.org/2000/svg">
<path d="M12 20.27C11.8012 20.2698 11.6105 20.1907 11.47 20.05L4.47 13.05C4.28243 12.8571 4.21204 12.5788 4.28533 12.3199C4.35863 12.061 4.56447 11.8608 4.82533 11.7949C5.08619 11.7289 5.36243 11.8071 5.55 12L12 18.45L18.45 12C18.637 11.7994 18.9186 11.7168 19.1843 11.7846C19.45 11.8525 19.6575 12.06 19.7254 12.3257C19.7932 12.5915 19.7106 12.873 19.51 13.06L12.51 20.06C12.3728 20.1922 12.1905 20.2673 12 20.27Z" fill="black"/>
<path d="M12 20.26C11.588 20.2546 11.2554 19.922 11.25 19.51V4.51001C11.25 4.24206 11.3929 3.99447 11.625 3.86049C11.857 3.72652 12.1429 3.72652 12.375 3.86049C12.607 3.99447 12.75 4.24206 12.75 4.51001V19.51C12.7446 19.922 12.412 20.2546 12 20.26Z" fill="black"/>
<path d="M12 20.27C11.8012 20.2698 11.6105 20.1907 11.47 20.05L4.47 13.05C4.28243 12.8571 4.21204 12.5788 4.28533 12.3199C4.35863 12.061 4.56447 11.8608 4.82533 11.7949C5.08619 11.7289 5.36243 11.8071 5.55 12L12 18.45L18.45 12C18.637 11.7994 18.9186 11.7168 19.1843 11.7846C19.45 11.8525 19.6575 12.06 19.7254 12.3257C19.7932 12.5915 19.7106 12.873 19.51 13.06L12.51 20.06C12.3728 20.1922 12.1905 20.2673 12 20.27Z" fill="black"/>
<path d="M12 20.26C11.588 20.2546 11.2554 19.922 11.25 19.51V4.51001C11.25 4.24206 11.3929 3.99447 11.625 3.86049C11.857 3.72652 12.1429 3.72652 12.375 3.86049C12.607 3.99447 12.75 4.24206 12.75 4.51001V19.51C12.7446 19.922 12.412 20.2546 12 20.26Z" fill="black"/>
</svg>
