<svg width="24" height="24" viewBox="0 0 24 24" fill="none" xmlns="http://www.w3.org/2000/svg">
<path d="M11.9996 20.27C11.8007 20.2698 11.6101 20.1907 11.4696 20.05L4.46956 13.05C4.28199 12.8571 4.2116 12.5787 4.2849 12.3198C4.35819 12.0609 4.56404 11.8608 4.8249 11.7948C5.08575 11.7289 5.36199 11.8071 5.54956 12L11.9996 18.45L18.4496 12C18.6365 11.7993 18.9181 11.7168 19.1838 11.7846C19.4496 11.8525 19.6571 12.06 19.7249 12.3257C19.7928 12.5914 19.7102 12.873 19.5096 13.06L12.5096 20.06C12.3724 20.1922 12.1901 20.2673 11.9996 20.27Z" fill="black"/>
<path d="M11.9996 20.26C11.5876 20.2546 11.2549 19.922 11.2496 19.51V4.51C11.2496 4.24205 11.3925 3.99446 11.6246 3.86048C11.8566 3.72651 12.1425 3.72651 12.3746 3.86048C12.6066 3.99446 12.7496 4.24205 12.7496 4.51V19.51C12.7442 19.922 12.4115 20.2546 11.9996 20.26Z" fill="black"/>
<path d="M11.9996 21C11.6019 20.9996 11.2206 20.8414 10.9396 20.56L3.93956 13.56C3.35414 12.9718 3.35638 12.0204 3.94456 11.435C4.53274 10.8496 5.48414 10.8518 6.06956 11.44L11.9996 17.39L17.9196 11.46C18.505 10.8718 19.4564 10.8696 20.0446 11.455C20.6327 12.0404 20.635 12.9918 20.0496 13.58L13.0496 20.58C12.7678 20.8516 12.391 21.0023 11.9996 21Z" fill="black"/>
<path d="M11.9996 21C11.1711 21 10.4996 20.3284 10.4996 19.5V4.5C10.4996 3.67157 11.1711 3 11.9996 3C12.828 3 13.4996 3.67157 13.4996 4.5V19.5C13.4996 20.3284 12.828 21 11.9996 21Z" fill="black"/>
</svg>
