<svg width="24" height="24" viewBox="0 0 24 24" fill="none" xmlns="http://www.w3.org/2000/svg">
<path d="M18.9998 13C18.6015 13.003 18.2189 12.8442 17.9398 12.56L11.9998 6.61L6.07981 12.54C5.72312 13.006 5.12748 13.2211 4.55534 13.0907C3.98321 12.9603 3.53967 12.5082 3.42016 11.9337C3.30066 11.3592 3.52714 10.7678 3.99981 10.42L10.9998 3.42C11.2691 3.16017 11.6258 3.01037 11.9998 3C12.3975 3.00035 12.7788 3.15862 13.0598 3.44L20.0598 10.44C20.6459 11.0291 20.6459 11.9809 20.0598 12.57C19.7784 12.8496 19.3965 13.0045 18.9998 13Z" fill="black"/>
<path d="M11.9998 21C11.1714 21 10.4998 20.3284 10.4998 19.5V4.5C10.4998 3.67157 11.1714 3 11.9998 3C12.8282 3 13.4998 3.67157 13.4998 4.5V19.5C13.4998 20.3284 12.8282 21 11.9998 21Z" fill="black"/>
</svg>
