<svg width="24" height="24" viewBox="0 0 24 24" fill="none" xmlns="http://www.w3.org/2000/svg">
<path d="M12.56 17.5L15.71 15.14L12.56 13.23V17.5Z" fill="black"/>
<path d="M12.56 10.77L15.71 8.86L12.56 6.5V10.77Z" fill="black"/>
<path fill-rule="evenodd" clip-rule="evenodd" d="M6 2H18C20.2091 2 22 3.79086 22 6V18C22 20.2091 20.2091 22 18 22H6C3.79086 22 2 20.2091 2 18V6C2 3.79086 3.79086 2 6 2ZM17.3123 15.1026C17.2881 14.6453 17.0354 14.2309 16.64 14L13.42 12L16.63 10.05C17.0267 9.82088 17.2814 9.40744 17.3076 8.95008C17.3338 8.49272 17.1279 8.05291 16.76 7.78L13.25 5.14C12.8343 4.82941 12.2788 4.78034 11.8151 5.01325C11.3514 5.24616 11.0591 5.72108 11.06 6.24V10.61L7.83 8.61C7.59957 8.47067 7.3123 8.46485 7.07641 8.59475C6.84053 8.72465 6.69186 8.97052 6.68641 9.23975C6.68097 9.50898 6.81956 9.76067 7.05 9.9L10.53 12L7.05 14.14C6.69378 14.3554 6.57961 14.8188 6.795 15.175C7.01039 15.5312 7.47378 15.6454 7.83 15.43L11.06 13.43V17.81C11.0615 18.3277 11.3505 18.8016 11.81 19.04C12.0044 19.1301 12.2157 19.1779 12.43 19.18C12.7251 19.1793 13.0123 19.0848 13.25 18.91L16.76 16.27C17.1289 15.9987 17.3365 15.5599 17.3123 15.1026Z" fill="black"/>
</svg>
