<svg width="24" height="24" viewBox="0 0 24 24" fill="none" xmlns="http://www.w3.org/2000/svg">
<path fill-rule="evenodd" clip-rule="evenodd" d="M12.9699 22.0955C12.0727 22.0739 11.3551 21.343 11.3499 20.4455V13.5255L6.09994 16.6855C5.75308 16.8807 5.31413 16.7709 5.09994 16.4355C4.89925 16.0894 5.00998 15.6464 5.34994 15.4355L10.8599 12.0455L5.34994 8.68546C5.00998 8.47452 4.89925 8.03157 5.09994 7.68546C5.31413 7.34998 5.75308 7.24025 6.09994 7.43546L11.3499 10.5655V3.64546C11.347 3.02171 11.7003 2.45098 12.2599 2.17546C12.8189 1.89581 13.4875 1.95378 13.9899 2.32546L19.1099 6.17547C19.5547 6.50324 19.8031 7.03399 19.7699 7.58546C19.7371 8.13832 19.4292 8.63785 18.9499 8.91546L13.7599 12.0455L18.9299 15.1855C19.4043 15.4636 19.7077 15.9611 19.7379 16.5102C19.7681 17.0593 19.521 17.587 19.0799 17.9155L13.9599 21.7655C13.6747 21.9803 13.3271 22.0962 12.9699 22.0955ZM12.8199 13.2355V20.4455C12.8186 20.5008 12.8499 20.5518 12.8999 20.5755C12.9488 20.6063 13.0111 20.6063 13.0599 20.5755L18.1799 16.7355C18.2223 16.7064 18.2453 16.6565 18.2399 16.6055C18.2445 16.5547 18.2164 16.5065 18.1699 16.4855L12.8199 13.2355ZM12.8999 3.49546H12.9699C13.0023 3.49614 13.0337 3.5066 13.0599 3.52546L18.1799 7.35546C18.2206 7.38126 18.2437 7.42744 18.2399 7.47547C18.2413 7.5308 18.21 7.58176 18.1599 7.60547L12.8199 10.8355V3.62546C12.8186 3.57013 12.8499 3.51917 12.8999 3.49546Z" fill="black"/>
</svg>
