<svg width="24" height="24" viewBox="0 0 24 24" fill="none" xmlns="http://www.w3.org/2000/svg">
<path d="M20.26 14.83V6.75C20.26 4.67893 18.5811 3 16.51 3H7.75C5.67893 3 4 4.67893 4 6.75V17.29C4 19.0628 5.43717 20.5 7.21 20.5H19.51C19.9242 20.5 20.26 20.1642 20.26 19.75C20.26 19.3358 19.9242 19 19.51 19H7.21C6.26559 19 5.5 18.2344 5.5 17.29C5.5 16.3456 6.26559 15.58 7.21 15.58H19.51C19.9242 15.58 20.26 15.2442 20.26 14.83Z" fill="black"/>
<path d="M7.21 16.54C6.79578 16.54 6.46 16.8758 6.46 17.29C6.46 17.7042 6.79578 18.04 7.21 18.04H18.28C18.6942 18.04 19.03 17.7042 19.03 17.29C19.03 16.8758 18.6942 16.54 18.28 16.54H7.21Z" fill="black"/>
</svg>
