<svg width="24" height="24" viewBox="0 0 24 24" fill="none" xmlns="http://www.w3.org/2000/svg">
<path fill-rule="evenodd" clip-rule="evenodd" d="M8.37574 3.00434H15.6242C16.4759 2.96081 17.3105 3.2462 17.9438 3.79753C18.5771 4.34885 18.9571 5.12079 19 5.94297V19.9964C19.0012 20.2778 18.8794 20.5467 18.6645 20.737C18.4497 20.9273 18.1617 21.0213 17.8713 20.9959C17.6168 20.996 17.3694 20.9152 17.1671 20.766L12.6834 17.4776C12.26 17.1711 11.6778 17.1711 11.2544 17.4776L6.81213 20.766C6.61556 20.9111 6.37609 20.9916 6.1287 20.9959C5.83832 21.0213 5.55032 20.9273 5.33547 20.737C5.12062 20.5467 4.99883 20.2778 5.00001 19.9964V5.94297C5.04283 5.12079 5.42285 4.34885 6.05618 3.79753C6.68951 3.2462 7.52409 2.96081 8.37574 3.00434ZM13.6464 16.2881L17.426 19.0868L17.4053 5.94297C17.3073 5.07153 16.5087 4.43359 15.6035 4.50364H8.35503C7.44984 4.43359 6.65125 5.07153 6.55326 5.94297V19.0868L10.3328 16.2881C11.3115 15.5683 12.6678 15.5683 13.6464 16.2881Z" fill="black"/>
</svg>
