<svg width="24" height="24" viewBox="0 0 24 24" fill="none" xmlns="http://www.w3.org/2000/svg">
<path fill-rule="evenodd" clip-rule="evenodd" d="M6.27368 4.00001H17.7263C18.8588 3.99722 19.9459 4.44513 20.7476 5.24494C21.5494 6.04474 22 7.13068 22 8.26317V15.5263C22 16.6588 21.5494 17.7448 20.7476 18.5446C19.9459 19.3444 18.8588 19.7923 17.7263 19.7895H6.27368C5.1412 19.7923 4.05414 19.3444 3.25237 18.5446C2.45059 17.7448 2 16.6588 2 15.5263V8.26317C2 7.13068 2.45059 6.04474 3.25237 5.24494C4.05414 4.44513 5.1412 3.99722 6.27368 4.00001ZM17.7263 18.2105C19.1903 18.2109 20.3867 17.0425 20.4211 15.579V8.26317C20.4153 6.77902 19.2105 5.57895 17.7263 5.57896H6.27368C4.78952 5.57895 3.58474 6.77902 3.57895 8.26317V15.5263C3.58474 17.0105 4.78952 18.2106 6.27368 18.2105H17.7263Z" fill="black"/>
<path fill-rule="evenodd" clip-rule="evenodd" d="M7.71579 12.1895C7.71579 9.86409 9.60091 7.97897 11.9263 7.97897C14.2517 7.97897 16.1368 9.86409 16.1368 12.1895C16.1368 14.5149 14.2517 16.4 11.9263 16.4C9.60091 16.4 7.71579 14.5149 7.71579 12.1895ZM9.29474 12.1895C9.29474 13.6429 10.4729 14.8211 11.9263 14.8211C13.3797 14.8211 14.5579 13.6429 14.5579 12.1895C14.5579 10.7361 13.3797 9.55792 11.9263 9.55792C10.4729 9.55792 9.29474 10.7361 9.29474 12.1895Z" fill="black"/>
<path d="M16.1368 7.41581C16.1368 7.13967 16.3607 6.91582 16.6368 6.91582H17.7421C18.0182 6.91582 18.2421 7.13967 18.2421 7.41582V8.53161C18.2421 8.80775 18.0182 9.0316 17.7421 9.0316H16.6368C16.3607 9.0316 16.1368 8.80775 16.1368 8.5316V7.41581Z" fill="black"/>
</svg>
