<svg width="24" height="24" viewBox="0 0 24 24" fill="none" xmlns="http://www.w3.org/2000/svg">
<path fill-rule="evenodd" clip-rule="evenodd" d="M16.9 3.57H17C19.7614 3.57 22 5.80858 22 8.57V17.57C22 20.3314 19.7614 22.57 17 22.57H7C5.67392 22.57 4.40215 22.0432 3.46447 21.1055C2.52678 20.1679 2 18.8961 2 17.57V8.57C2 5.80858 4.23858 3.57 7 3.57H7.1V1.75C7.1 1.33579 7.43579 1 7.85 1C8.26421 1 8.6 1.33579 8.6 1.75V3.57H15.4V1.75C15.4 1.33579 15.7358 1 16.15 1C16.5642 1 16.9 1.33579 16.9 1.75V3.57ZM7.5 9.66H16.5C16.9142 9.66 17.25 9.32421 17.25 8.91C17.25 8.49579 16.9142 8.16 16.5 8.16H7.5C7.08579 8.16 6.75 8.49579 6.75 8.91C6.75 9.32421 7.08579 9.66 7.5 9.66Z" fill="black"/>
</svg>
