<svg width="24" height="24" viewBox="0 0 24 24" fill="none" xmlns="http://www.w3.org/2000/svg">
<path d="M14.93 12.78C14.93 14.1607 13.8107 15.28 12.43 15.28C11.0493 15.28 9.93 14.1607 9.93 12.78C9.93 11.3993 11.0493 10.28 12.43 10.28C13.8107 10.28 14.93 11.3993 14.93 12.78Z" fill="black"/>
<path fill-rule="evenodd" clip-rule="evenodd" d="M17.94 5.00001H7.06C5.98414 4.99736 4.95144 5.42288 4.18975 6.18269C3.42806 6.9425 3 7.97415 3 9.05001V15.95C3 17.0259 3.42806 18.0575 4.18975 18.8173C4.95144 19.5771 5.98414 20.0027 7.06 20H17.94C19.0159 20.0027 20.0486 19.5771 20.8102 18.8173C21.5719 18.0575 22 17.0259 22 15.95V9.05001C22 7.97415 21.5719 6.9425 20.8102 6.18269C20.0486 5.42288 19.0159 4.99736 17.94 5.00001ZM12.43 16.78C10.2209 16.78 8.43 14.9892 8.43 12.78C8.43 10.5709 10.2209 8.78001 12.43 8.78001C14.6391 8.78001 16.43 10.5709 16.43 12.78C16.43 13.8409 16.0086 14.8583 15.2584 15.6084C14.5083 16.3586 13.4909 16.78 12.43 16.78ZM17.93 9.78001C18.2061 9.78001 18.43 9.55615 18.43 9.28001V8.28001C18.43 8.00387 18.2061 7.78001 17.93 7.78001H16.93C16.6539 7.78001 16.43 8.00387 16.43 8.28001V9.28001C16.43 9.55615 16.6539 9.78001 16.93 9.78001H17.93Z" fill="black"/>
</svg>
