<svg width="24" height="24" viewBox="0 0 24 24" fill="none" xmlns="http://www.w3.org/2000/svg">
<path fill-rule="evenodd" clip-rule="evenodd" d="M6.24 2.00222H16.74C18.1118 1.96192 19.4428 2.47191 20.4365 3.4186C21.4301 4.36529 22.0039 5.67004 22.03 7.04222V14.6322C21.9483 17.4531 19.6116 19.6827 16.79 19.6322H15.17C14.7628 19.6333 14.3775 19.8168 14.12 20.1322L12.59 22.0822C12.3337 22.3994 11.9478 22.5837 11.54 22.5837C11.1322 22.5837 10.7463 22.3994 10.49 22.0822L8.91 20.0922C8.6525 19.7768 8.2672 19.5933 7.86 19.5922H6.24C3.41843 19.6427 1.08174 17.4131 1 14.5922V7.00222C1.07637 4.17899 3.4163 1.94624 6.24 2.00222ZM16.75 18.1322C18.7585 18.1827 20.4301 16.6004 20.49 14.5922V7.04222C20.4301 5.02999 18.7523 3.44617 16.74 3.50222H6.24C4.22766 3.44617 2.54989 5.02999 2.49 7.04222V14.5922C2.54989 16.6044 4.22766 18.1883 6.24 18.1322H7.86C8.7271 18.1324 9.5473 18.5259 10.09 19.2022L11.49 20.9822L12.89 19.2022C13.4327 18.5259 14.2529 18.1324 15.12 18.1322H16.75Z" fill="black"/>
<path d="M7.74 8.96222C7.32579 8.96222 6.99 9.29801 6.99 9.71222V12.1122C6.99 12.5264 7.32579 12.8622 7.74 12.8622C8.15421 12.8622 8.49 12.5264 8.49 12.1122V9.71222C8.49 9.29801 8.15421 8.96222 7.74 8.96222Z" fill="black"/>
<path d="M11.49 8.96222C11.0758 8.96222 10.74 9.29801 10.74 9.71222V12.1122C10.74 12.5264 11.0758 12.8622 11.49 12.8622C11.9042 12.8622 12.24 12.5264 12.24 12.1122V9.71222C12.24 9.29801 11.9042 8.96222 11.49 8.96222Z" fill="black"/>
<path d="M15.24 8.96222C14.8258 8.96222 14.49 9.29801 14.49 9.71222V12.1122C14.49 12.5264 14.8258 12.8622 15.24 12.8622C15.6542 12.8622 15.99 12.5264 15.99 12.1122V9.71222C15.99 9.29801 15.6542 8.96222 15.24 8.96222Z" fill="black"/>
</svg>
