<svg width="24" height="24" viewBox="0 0 24 24" fill="none" xmlns="http://www.w3.org/2000/svg">
<path d="M8.65 7.59C8.35449 7.31464 7.89399 7.32277 7.60838 7.60838C7.32277 7.89399 7.31464 8.35449 7.59 8.65L11.37 12.43V17.12C11.37 17.5342 11.7058 17.87 12.12 17.87C12.5342 17.87 12.87 17.5342 12.87 17.12V12.12C12.8698 11.9212 12.7907 11.7305 12.65 11.59L8.65 7.59Z" fill="black"/>
<path fill-rule="evenodd" clip-rule="evenodd" d="M10 2H14.24C16.3617 2 18.3966 2.84285 19.8969 4.34315C21.3971 5.84344 22.24 7.87827 22.24 10V14.24C22.24 18.6583 18.6583 22.24 14.24 22.24H10C5.58172 22.24 2 18.6583 2 14.24V10C2 5.58172 5.58172 2 10 2ZM14.24 20.74C17.8276 20.7345 20.7345 17.8276 20.74 14.24V10C20.7345 6.41243 17.8276 3.50551 14.24 3.5H10C6.41243 3.50551 3.50551 6.41243 3.5 10V14.24C3.50551 17.8276 6.41243 20.7345 10 20.74H14.24Z" fill="black"/>
</svg>
