<svg width="24" height="24" viewBox="0 0 24 24" fill="none" xmlns="http://www.w3.org/2000/svg">
<path fill-rule="evenodd" clip-rule="evenodd" d="M10 2H14.24C16.3617 2 18.3966 2.84285 19.8969 4.34315C21.3971 5.84344 22.24 7.87827 22.24 10V14.24C22.24 18.6583 18.6583 22.24 14.24 22.24H10C5.58172 22.24 2 18.6583 2 14.24V10C2 5.58172 5.58172 2 10 2ZM12.12 18.12C12.6723 18.12 13.12 17.6723 13.12 17.12V12.12C13.1215 11.8542 13.0172 11.5987 12.83 11.41L8.83 7.41C8.57634 7.15634 8.20663 7.05728 7.86012 7.15012C7.51362 7.24297 7.24297 7.51362 7.15012 7.86012C7.05728 8.20663 7.15634 8.57634 7.41 8.83L11.12 12.53V17.12C11.12 17.6723 11.5677 18.12 12.12 18.12Z" fill="black"/>
</svg>
