<svg width="24" height="24" viewBox="0 0 24 24" fill="none" xmlns="http://www.w3.org/2000/svg">
<path fill-rule="evenodd" clip-rule="evenodd" d="M16.5 4.5V12.5C16.5 14.7091 14.7091 16.5 12.5 16.5H4.5C2.29086 16.5 0.5 14.7091 0.5 12.5V4.5C0.5 2.29086 2.29086 0.5 4.5 0.5H12.5C14.7091 0.5 16.5 2.29086 16.5 4.5ZM2 4.5V12.5C2 13.163 2.26339 13.7989 2.73223 14.2678C3.20107 14.7366 3.83696 15 4.5 15H12.5C13.8807 15 15 13.8807 15 12.5V4.5C15 3.11929 13.8807 2 12.5 2H4.5C3.11929 2 2 3.11929 2 4.5Z" fill="black"/>
<path d="M19.5 6.75C19.088 6.75539 18.7554 7.08804 18.75 7.5V15.5C18.7445 17.2926 17.2926 18.7445 15.5 18.75H7.5C7.08579 18.75 6.75 19.0858 6.75 19.5C6.75 19.9142 7.08579 20.25 7.5 20.25H15.5C18.1234 20.25 20.25 18.1234 20.25 15.5V7.5C20.2446 7.08804 19.912 6.75539 19.5 6.75Z" fill="black"/>
</svg>
