<svg width="24" height="24" viewBox="0 0 24 24" fill="none" xmlns="http://www.w3.org/2000/svg">
<path fill-rule="evenodd" clip-rule="evenodd" d="M17.5617 2H6.44174C3.92064 2.08698 1.93992 4.18816 2.00174 6.71V20.44C1.97593 20.9013 2.23859 21.3304 2.66118 21.5172C3.08377 21.7041 3.5779 21.6096 3.90174 21.28L6.27174 18.75C6.72329 18.2764 7.34739 18.0058 8.00175 18H17.5217C18.7508 17.9688 19.9163 17.4468 20.758 16.5507C21.5997 15.6545 22.0476 14.4586 22.0017 13.23V6.71C22.0636 4.18816 20.0828 2.08698 17.5617 2ZM8.25174 7.22H13.2517C13.666 7.22 14.0017 7.55579 14.0017 7.97C14.0017 8.38421 13.666 8.72 13.2517 8.72H8.25174C7.83753 8.72 7.50174 8.38421 7.50174 7.97C7.50174 7.55579 7.83753 7.22 8.25174 7.22ZM8.25174 12.72H15.7517C16.166 12.72 16.5017 12.3842 16.5017 11.97C16.5017 11.5558 16.166 11.22 15.7517 11.22H8.25174C7.83753 11.22 7.50174 11.5558 7.50174 11.97C7.50174 12.3842 7.83753 12.72 8.25174 12.72Z" fill="black"/>
</svg>
