<svg width="24" height="24" viewBox="0 0 24 24" fill="none" xmlns="http://www.w3.org/2000/svg">
<path d="M2 6C2 3.79086 3.79086 2 6 2H14C16.2091 2 18 3.79086 18 6V14C18 16.2091 16.2091 18 14 18H6C3.79086 18 2 16.2091 2 14V6Z" fill="black"/>
<path d="M17 21.75H9C8.58417 21.7445 8.24996 21.4059 8.25 20.99C8.25547 20.5797 8.58966 20.25 9 20.25H17C17.8637 20.25 18.6919 19.9062 19.3016 19.2946C19.9114 18.6829 20.2527 17.8537 20.25 16.99V8.99C20.25 8.57579 20.5858 8.24 21 8.24C21.4142 8.24 21.75 8.57579 21.75 8.99V16.99C21.75 19.615 19.625 21.7445 17 21.75Z" fill="black"/>
</svg>
