<svg width="24" height="24" viewBox="0 0 24 24" fill="none" xmlns="http://www.w3.org/2000/svg">
<path fill-rule="evenodd" clip-rule="evenodd" d="M15.5604 2.43994H8.44043C5.12672 2.43994 2.44043 5.12623 2.44043 8.43994V15.5599C2.44043 18.8736 5.12672 21.5599 8.44043 21.5599H15.5604C18.8741 21.5599 21.5604 18.8736 21.5604 15.5599V8.43994C21.5604 5.12623 18.8741 2.43994 15.5604 2.43994ZM5.36043 8.06994C5.36582 7.65798 5.69847 7.32533 6.11043 7.31994H7.32043V6.10994C7.32043 5.69573 7.65622 5.35994 8.07043 5.35994C8.48464 5.35994 8.82043 5.69573 8.82043 6.10994V7.31994H13.7504C15.3663 7.32543 16.6749 8.63403 16.6804 10.2499V13.9999C16.6804 14.4142 16.3446 14.7499 15.9304 14.7499C15.5162 14.7499 15.1804 14.4142 15.1804 13.9999V10.2499C15.175 9.46244 14.5379 8.82539 13.7504 8.81994H6.11043C5.69622 8.81994 5.36043 8.48416 5.36043 8.06994ZM16.6804 16.6799H17.8904V16.6399C18.3046 16.6399 18.6404 16.3042 18.6404 15.8899C18.6404 15.4757 18.3046 15.1399 17.8904 15.1399H10.2504C9.46293 15.1345 8.82588 14.4974 8.82043 13.7099V9.99994C8.82043 9.58573 8.48464 9.24994 8.07043 9.24994C7.65622 9.24994 7.32043 9.58573 7.32043 9.99994V13.7499C7.32592 15.3659 8.63451 16.6745 10.2504 16.6799H15.1804V17.8899C15.1804 18.3042 15.5162 18.6399 15.9304 18.6399C16.3446 18.6399 16.6804 18.3042 16.6804 17.8899V16.6799Z" fill="black"/>
</svg>
