<svg width="24" height="24" viewBox="0 0 24 24" fill="none" xmlns="http://www.w3.org/2000/svg">
<path d="M14.6999 6.66988C15.3974 6.66988 16.0664 6.94697 16.5596 7.44019C17.0528 7.93341 17.3299 8.60236 17.3299 9.29988V14.9999C17.3299 15.4141 17.6657 15.7499 18.0799 15.7499C18.4941 15.7499 18.8299 15.4141 18.8299 14.9999V9.29988C18.8299 8.20454 18.3948 7.15406 17.6202 6.37953C16.8457 5.60501 15.7952 5.16988 14.6999 5.16988H6.69988V2.87988C6.69988 2.46567 6.3641 2.12988 5.94988 2.12988C5.53567 2.12988 5.19988 2.46567 5.19988 2.87988V5.16988H2.87988C2.46567 5.16988 2.12988 5.50567 2.12988 5.91988C2.12988 6.3341 2.46567 6.66988 2.87988 6.66988H14.6999Z" fill="black"/>
<path d="M21.1199 17.3299H9.29988C8.60236 17.3299 7.93341 17.0528 7.44019 16.5596C6.94697 16.0664 6.66988 15.3974 6.66988 14.6999V8.99988C6.66988 8.58567 6.3341 8.24988 5.91988 8.24988C5.50567 8.24988 5.16988 8.58567 5.16988 8.99988V14.6999C5.16988 16.9808 7.01895 18.8299 9.29988 18.8299H17.2999V21.1199C17.2999 21.5341 17.6357 21.8699 18.0499 21.8699C18.4641 21.8699 18.7999 21.5341 18.7999 21.1199V18.8299H21.0899C21.5041 18.8299 21.8399 18.4941 21.8399 18.0799C21.8399 17.6657 21.5041 17.3299 21.0899 17.3299H21.1199Z" fill="black"/>
</svg>
