<svg width="24" height="24" viewBox="0 0 24 24" fill="none" xmlns="http://www.w3.org/2000/svg">
<path fill-rule="evenodd" clip-rule="evenodd" d="M8.44442 5.00123H19.4044C19.9469 4.98223 20.4738 5.18453 20.8641 5.56168C21.2545 5.93883 21.4748 6.45844 21.4744 7.00123V16.5012C21.4748 17.044 21.2545 17.5636 20.8641 17.9408C20.4738 18.3179 19.9469 18.5202 19.4044 18.5012H8.40442C7.8289 18.5034 7.27701 18.2725 6.87442 17.8612L2.55442 13.3412C1.83486 12.5886 1.81311 11.4099 2.50442 10.6312L6.87442 5.75123C7.26552 5.28705 7.83757 5.01377 8.44442 5.00123ZM17.728 14.0012C17.728 13.8016 17.6474 13.6105 17.5044 13.4712L15.8644 11.8312L17.5044 10.1812C17.6474 10.0419 17.728 9.85081 17.728 9.65123C17.728 9.45164 17.6474 9.26051 17.5044 9.12123C17.2116 8.82877 16.7372 8.82877 16.4444 9.12123L14.8044 10.7512L13.1744 9.12123C12.8816 8.82877 12.4072 8.82877 12.1144 9.12123C11.9715 9.26051 11.8909 9.45164 11.8909 9.65123C11.8909 9.85081 11.9715 10.0419 12.1144 10.1812L13.7544 11.8312L12.1144 13.4712C11.9715 13.6105 11.8909 13.8016 11.8909 14.0012C11.8909 14.2008 11.9715 14.3919 12.1144 14.5312C12.2523 14.6759 12.4447 14.7557 12.6444 14.7512C12.84 14.7495 13.027 14.6704 13.1644 14.5312L14.8044 12.8912L16.4444 14.5312C16.5843 14.6729 16.7754 14.7522 16.9744 14.7512C17.1742 14.7557 17.3666 14.6759 17.5044 14.5312C17.6474 14.3919 17.728 14.2008 17.728 14.0012Z" fill="black"/>
</svg>
