<svg width="24" height="24" viewBox="0 0 24 24" fill="none" xmlns="http://www.w3.org/2000/svg">
<path d="M16.4496 9.1209C16.7424 8.82845 17.2168 8.82845 17.5096 9.1209C17.6513 9.26153 17.7301 9.45342 17.7282 9.65301C17.7263 9.8526 17.6439 10.043 17.4996 10.1809L15.8596 11.8309L17.4996 13.4709C17.6426 13.6102 17.7232 13.8013 17.7232 14.0009C17.7232 14.2005 17.6426 14.3916 17.4996 14.5309C17.3604 14.6735 17.1689 14.753 16.9696 14.7509C16.7706 14.7518 16.5795 14.6725 16.4396 14.5309L14.7996 12.8909L13.1496 14.5309C13.0118 14.6755 12.8194 14.7554 12.6196 14.7509C12.4206 14.7518 12.2295 14.6725 12.0896 14.5309C11.7972 14.2381 11.7972 13.7637 12.0896 13.4709L13.7396 11.8309L12.0996 10.1809C11.8243 9.88539 11.8324 9.42489 12.118 9.13928C12.4036 8.85367 12.8641 8.84554 13.1596 9.1209L14.8096 10.7509L16.4496 9.1209Z" fill="black"/>
<path fill-rule="evenodd" clip-rule="evenodd" d="M19.4096 5.0009H8.40962C7.81687 5.0247 7.26152 5.29694 6.87962 5.7509L2.49962 10.6309C1.81107 11.4121 1.83717 12.5909 2.55962 13.3409L6.87962 17.8609C7.27848 18.2716 7.82711 18.5026 8.39962 18.5009H19.3996C19.9421 18.5199 20.469 18.3176 20.8593 17.9405C21.2497 17.5633 21.47 17.0437 21.4696 16.5009V7.0009C21.4699 6.45991 21.2509 5.94189 20.8628 5.56504C20.4746 5.1882 19.9504 4.98467 19.4096 5.0009ZM19.9796 16.5009C19.972 16.6434 19.9072 16.7768 19.7999 16.8709C19.6926 16.965 19.5519 17.0119 19.4096 17.0009H8.40962C8.24766 17.0025 8.09217 16.9374 7.97962 16.8209L3.63962 12.3009C3.46308 12.1125 3.46308 11.8193 3.63962 11.6309L7.99962 6.6909C8.1173 6.56866 8.27994 6.49999 8.44962 6.5009H19.4496C19.5919 6.48993 19.7326 6.53679 19.8399 6.6309C19.9472 6.72501 20.012 6.8584 20.0196 7.0009L19.9796 16.5009Z" fill="black"/>
</svg>
