<svg width="24" height="24" viewBox="0 0 24 24" fill="none" xmlns="http://www.w3.org/2000/svg">
<path fill-rule="evenodd" clip-rule="evenodd" d="M22.2134 7.76657C22.5816 8.65329 22.3521 9.67573 21.6403 10.32C21.1655 10.7488 20.8937 11.3581 20.8918 11.9978C20.8899 12.6375 21.1581 13.2484 21.6303 13.68C22.3403 14.3231 22.5702 15.3428 22.2048 16.2284C21.8393 17.114 20.9572 17.6748 20.0003 17.63C19.3633 17.6013 18.7437 17.8417 18.2928 18.2926C17.842 18.7434 17.6015 19.3631 17.6303 20C17.6511 20.9338 17.0979 21.785 16.2362 22.1452C15.3744 22.5053 14.38 22.3009 13.7303 21.63C13.3 21.1566 12.69 20.8866 12.0503 20.8866C11.4105 20.8866 10.8005 21.1566 10.3703 21.63C9.73611 22.3829 8.689 22.6413 7.77742 22.2698C6.86585 21.8983 6.29756 20.9817 6.37025 20C6.39899 19.3631 6.15853 18.7434 5.70769 18.2926C5.25685 17.8417 4.63719 17.6013 4.00025 17.63C3.0665 17.6509 2.21528 17.0977 1.85511 16.2359C1.49495 15.3742 1.69936 14.3798 2.37025 13.73C2.84371 13.2998 3.11366 12.6897 3.11366 12.05C3.11366 11.4103 2.84371 10.8002 2.37025 10.37C1.61737 9.73587 1.35899 8.68876 1.73046 7.77718C2.10193 6.86561 3.01858 6.29732 4.00025 6.37001C4.63719 6.39875 5.25685 6.15829 5.70769 5.70745C6.15853 5.25661 6.39899 4.63695 6.37025 4.00001C6.32546 3.04304 6.88628 2.16096 7.77187 1.79552C8.65745 1.43007 9.67713 1.65994 10.3203 2.37001C10.7505 2.84347 11.3605 3.11342 12.0003 3.11342C12.64 3.11342 13.25 2.84347 13.6803 2.37001C14.3234 1.65994 15.3431 1.43007 16.2286 1.79552C17.1142 2.16096 17.675 3.04304 17.6303 4.00001C17.6015 4.63695 17.842 5.25661 18.2928 5.70745C18.7437 6.15829 19.3633 6.39875 20.0003 6.37001C20.9591 6.32065 21.8453 6.87986 22.2134 7.76657ZM10.1603 9.75001C10.1603 9.3358 9.82447 9.00001 9.41025 9.00001C8.99829 9.0054 8.66564 9.33805 8.66025 9.75001C8.66025 10.1642 8.99604 10.5 9.41025 10.5C9.82447 10.5 10.1603 10.1642 10.1603 9.75001ZM14.6803 15C14.266 15 13.9303 14.6642 13.9303 14.25C13.9303 13.8358 14.266 13.5 14.6803 13.5C15.0945 13.5 15.4303 13.8358 15.4303 14.25C15.4249 14.662 15.0922 14.9946 14.6803 15ZM9.65025 15.41L15.4103 9.64001V9.65001C15.6856 9.3545 15.6775 8.894 15.3919 8.60839C15.1063 8.32278 14.6458 8.31465 14.3503 8.59001L8.59025 14.35C8.44731 14.4893 8.36668 14.6804 8.36668 14.88C8.36668 15.0796 8.44731 15.2707 8.59025 15.41C8.7281 15.5547 8.9205 15.6345 9.12025 15.63C9.31932 15.631 9.51037 15.5516 9.65025 15.41Z" fill="black"/>
</svg>
