<svg width="24" height="24" viewBox="0 0 24 24" fill="none" xmlns="http://www.w3.org/2000/svg">
<path d="M14.801 8.93999L9.03096 14.71C8.7385 15.0028 8.7385 15.4772 9.03096 15.77C9.17084 15.9116 9.36189 15.9909 9.56096 15.99C9.76025 15.9921 9.95173 15.9126 10.091 15.77L15.861 9.99999C16.0616 9.81302 16.1442 9.53143 16.0763 9.2657C16.0085 8.99996 15.801 8.79246 15.5352 8.7246C15.2695 8.65674 14.9879 8.73933 14.801 8.93999Z" fill="black"/>
<path d="M10.601 10.1C10.601 10.5142 10.2652 10.85 9.85096 10.85C9.43674 10.85 9.10096 10.5142 9.10096 10.1C9.10096 9.68577 9.43674 9.34999 9.85096 9.34999C10.2652 9.34999 10.601 9.68577 10.601 10.1Z" fill="black"/>
<path d="M15.881 14.61C15.881 15.0242 15.5452 15.36 15.131 15.36C14.7167 15.36 14.381 15.0242 14.381 14.61C14.381 14.1958 14.7167 13.86 15.131 13.86C15.5452 13.86 15.881 14.1958 15.881 14.61Z" fill="black"/>
<path fill-rule="evenodd" clip-rule="evenodd" d="M22.6397 8.22134C22.97 9.0765 22.7535 10.0464 22.0908 10.6799C21.6112 11.1086 21.337 11.7215 21.337 12.3649C21.337 13.0083 21.6112 13.6211 22.0908 14.0499C22.7828 14.6786 23.0185 15.6672 22.6847 16.5405C22.3508 17.4138 21.5157 17.9931 20.5808 17.9999H20.3308C19.7101 18.0046 19.1181 18.2622 18.6916 18.7133C18.265 19.1644 18.0409 19.7698 18.0709 20.3899C18.104 21.0133 17.8779 21.6226 17.446 22.0734C17.0142 22.5242 16.4151 22.7763 15.7908 22.7699C15.1554 22.7701 14.5506 22.4969 14.1308 22.0199C13.7004 21.5431 13.0882 21.271 12.4458 21.271C11.8035 21.271 11.1913 21.5431 10.7608 22.0199C10.3411 22.4969 9.73627 22.7701 9.10085 22.7699C8.47293 22.7766 7.87051 22.5219 7.438 22.0666C7.0055 21.6113 6.78191 20.9966 6.82085 20.3699C6.84802 19.7515 6.62261 19.1487 6.19639 18.6998C5.77018 18.251 5.1798 17.9947 4.56085 17.9899H4.31085C3.4165 17.9474 2.63065 17.3832 2.30446 16.5494C1.97828 15.7156 2.1727 14.7679 2.80085 14.1299C3.27717 13.7013 3.54916 13.0906 3.54916 12.4499C3.54916 11.8091 3.27717 11.1985 2.80085 10.7699C2.06957 10.1489 1.80758 9.13533 2.1464 8.23781C2.48521 7.34029 3.35166 6.75266 4.31085 6.76988H4.56085C5.18807 6.76849 5.78675 6.50764 6.21485 6.04924C6.64295 5.59083 6.8623 4.97573 6.82085 4.34988C6.79898 3.73327 7.03017 3.13452 7.46075 2.69261C7.89133 2.25069 8.48388 2.00403 9.10085 2.00988C9.73872 2.00815 10.3454 2.28589 10.7608 2.76988C11.1955 3.2426 11.8087 3.51108 12.4508 3.50988C13.0895 3.50829 13.6985 3.24004 14.1308 2.76988C14.5445 2.28216 15.1514 2.00065 15.7908 1.99988C16.4169 1.9933 17.0177 2.24674 17.4498 2.69977C17.882 3.1528 18.1069 3.76481 18.0709 4.38988C18.0408 5.00901 18.2653 5.6135 18.6921 6.06299C19.1189 6.51248 19.711 6.76788 20.3308 6.76988H20.5808C21.4973 6.79358 22.3095 7.36617 22.6397 8.22134ZM20.9909 15.8799C21.0733 15.7057 21.0234 15.4976 20.8708 15.3799V15.3199C20.0328 14.5474 19.5561 13.4596 19.5561 12.3199C19.5561 11.1801 20.0328 10.0923 20.8708 9.31988C21.0234 9.20212 21.0733 8.99404 20.9909 8.81988C20.9334 8.64316 20.7666 8.5252 20.5809 8.52988H20.3309C19.2152 8.52767 18.1492 8.06873 17.3808 7.25988C16.6193 6.4512 16.2155 5.36981 16.2608 4.25988C16.2776 4.14053 16.2411 4.01984 16.1608 3.92988C16.064 3.82897 15.9307 3.7713 15.7908 3.76988C15.6483 3.75667 15.5089 3.81698 15.4208 3.92988C14.6528 4.77726 13.5645 5.2634 12.4208 5.26988C11.2775 5.26218 10.1896 4.77624 9.42085 3.92988C9.34337 3.83151 9.22603 3.77284 9.10085 3.76988C8.96102 3.7713 8.82765 3.82897 8.73085 3.92988C8.65063 4.01984 8.61406 4.14053 8.63085 4.25988C8.69692 5.38118 8.2978 6.48011 7.52756 7.29767C6.75731 8.11523 5.68409 8.57907 4.56085 8.57988H4.34085C4.14519 8.56482 3.96416 8.68414 3.90085 8.86988C3.81838 9.04404 3.86832 9.25212 4.02085 9.36988C4.8662 10.1394 5.35192 11.2268 5.36085 12.3699C5.35437 13.5135 4.86823 14.6019 4.02085 15.3699C3.86832 15.4876 3.81838 15.6957 3.90085 15.8699C3.95163 16.0527 4.12123 16.1768 4.31085 16.1699H4.56085C5.67585 16.1741 6.74078 16.6334 7.50913 17.4414C8.27749 18.2494 8.68265 19.3361 8.63085 20.4499C8.61278 20.5663 8.64972 20.6845 8.73085 20.7699C8.83889 20.8776 8.9888 20.9325 9.14085 20.9199C9.26379 20.9168 9.37983 20.8624 9.46085 20.7699C10.231 19.9095 11.3311 19.4178 12.4858 19.4178C13.6406 19.4178 14.7407 19.9095 15.5108 20.7699C15.5806 20.8567 15.6806 20.9139 15.7908 20.9299C15.9307 20.9285 16.064 20.8708 16.1608 20.7699C16.242 20.6845 16.2789 20.5663 16.2608 20.4499C16.22 19.3407 16.6231 18.261 17.3808 17.4499C18.1519 16.6449 19.2162 16.1867 20.3309 16.1799H20.5508C20.7503 16.1975 20.9344 16.072 20.9909 15.8799Z" fill="black"/>
</svg>
