<svg width="24" height="24" viewBox="0 0 24 24" fill="none" xmlns="http://www.w3.org/2000/svg">
<path fill-rule="evenodd" clip-rule="evenodd" d="M9.49994 2.22012C10.1802 2.07387 10.8741 2.00013 11.5699 2.00012C14.3518 1.98651 17.0031 3.17908 18.8385 5.26958C20.6739 7.36009 21.5134 10.1434 21.1399 12.9001C20.5399 17.5001 15.9999 21.2201 11.3599 21.2201H4.69994C4.13381 21.2204 3.60916 20.9232 3.31819 20.4376C3.02722 19.952 3.0127 19.3492 3.27994 18.8501L3.54994 18.3301C3.81866 17.8293 3.79959 17.2231 3.49994 16.7401C1.82164 14.1017 1.53349 10.8113 2.72768 7.92133C3.92187 5.0314 6.44873 2.90416 9.49994 2.22012ZM11.2799 19.7101C15.3566 19.6458 18.8235 16.7184 19.5699 12.7101C19.909 10.3872 19.2106 8.03257 17.6599 6.27011C16.1239 4.51239 13.9042 3.50279 11.5699 3.50012C10.9787 3.50124 10.3891 3.56155 9.80993 3.68012C7.23508 4.25302 5.09972 6.04239 4.08517 8.4773C3.07063 10.9122 3.30366 13.6884 4.70993 15.9201C5.30823 16.86 5.35032 18.0503 4.81993 19.0301L4.54993 19.5401C4.52795 19.5735 4.52795 19.6167 4.54993 19.6501C4.58993 19.7101 4.64993 19.7101 4.64993 19.7101H11.2799Z" fill="black"/>
</svg>
