<svg width="24" height="24" viewBox="0 0 24 24" fill="none" xmlns="http://www.w3.org/2000/svg">
<path d="M11.3104 16.54L7.58037 12.82C7.42221 12.6624 7.33331 12.4483 7.33331 12.225C7.33331 12.0017 7.42221 11.7876 7.58037 11.63C7.913 11.3113 8.43773 11.3113 8.77037 11.63L11.0604 13.93V3.84C11.0604 3.37608 11.4364 3 11.9004 3C12.3643 3 12.7404 3.37608 12.7404 3.84V13.93L15.0304 11.63C15.363 11.3113 15.8877 11.3113 16.2204 11.63C16.3785 11.7876 16.4674 12.0017 16.4674 12.225C16.4674 12.4483 16.3785 12.6624 16.2204 12.82L12.4904 16.54C12.3364 16.7009 12.123 16.7913 11.9004 16.79C11.6772 16.7937 11.4629 16.7029 11.3104 16.54Z" fill="black"/>
<path d="M17.1204 8.42H18.3304C20.8466 8.47468 22.845 10.5536 22.8004 13.07V16.88C22.845 19.3964 20.8466 21.4753 18.3304 21.53L5.47038 21.45C2.95413 21.3953 0.955723 19.3164 1.00037 16.8V12.99C0.970866 11.7762 1.42562 10.6005 2.26425 9.72245C3.10289 8.84442 4.25647 8.33621 5.47038 8.31H6.68038C7.14429 8.31 7.52037 8.68608 7.52037 9.15C7.52037 9.61392 7.14429 9.99 6.68038 9.99H5.47038C4.70103 10.0134 3.97305 10.3437 3.44888 10.9074C2.9247 11.471 2.64795 12.221 2.68037 12.99V16.77C2.64795 17.539 2.9247 18.289 3.44888 18.8526C3.97305 19.4163 4.70103 19.7466 5.47038 19.77L18.3304 19.91C19.0997 19.8866 19.8277 19.5563 20.3519 18.9926C20.876 18.429 21.1528 17.679 21.1204 16.91V13.1C21.1528 12.331 20.876 11.581 20.3519 11.0174C19.8277 10.4537 19.0997 10.1234 18.3304 10.1H17.1204C16.6565 10.1 16.2804 9.72392 16.2804 9.26C16.2804 8.79608 16.6565 8.42 17.1204 8.42Z" fill="black"/>
</svg>
