<svg width="24" height="24" viewBox="0 0 24 24" fill="none" xmlns="http://www.w3.org/2000/svg">
<path d="M18.9998 10.1502H14.1598C13.51 10.1476 12.8879 9.8869 12.4303 9.42556C11.9727 8.96422 11.7171 8.34 11.7198 7.69022V2.93022C11.7198 2.65407 11.4959 2.43022 11.2198 2.43022H8.5498C6.34067 2.43022 4.5498 4.22108 4.5498 6.43022V17.5702C4.5498 19.7794 6.34067 21.5702 8.5498 21.5702H15.4498C16.5107 21.5702 17.5281 21.1488 18.2782 20.3986C19.0284 19.6485 19.4498 18.6311 19.4498 17.5702V10.6502C19.4466 10.3942 19.254 10.1803 18.9998 10.1502Z" fill="black"/>
<path d="M14.2498 9.05022H18.8798C19.1267 9.07056 19.3575 8.92634 19.4475 8.69558C19.5375 8.46483 19.4653 8.20236 19.2698 8.05022L13.7198 2.60022C13.5668 2.40238 13.3011 2.33001 13.0689 2.4229C12.8367 2.51579 12.6942 2.75142 12.7198 3.00022V7.57022C12.7196 7.97155 12.8823 8.35578 13.1708 8.63482C13.4593 8.91385 13.8487 9.06377 14.2498 9.05022Z" fill="black"/>
</svg>
