<svg width="24" height="24" viewBox="0 0 24 24" fill="none" xmlns="http://www.w3.org/2000/svg">
<path d="M14.17 9.14017H18.79C19.0368 9.16051 19.2677 9.01629 19.3577 8.78553C19.4477 8.55478 19.3754 8.29231 19.18 8.14017L13.63 2.69017C13.4778 2.49472 13.2154 2.42244 12.9846 2.51243C12.7538 2.60243 12.6096 2.83332 12.63 3.08017V7.65017C12.6297 8.05416 12.7936 8.44092 13.0839 8.72183C13.3742 9.00275 13.7662 9.15372 14.17 9.14017Z" fill="black"/>
<path fill-rule="evenodd" clip-rule="evenodd" d="M14.07 10.2402H18.85C19.1261 10.2402 19.35 10.464 19.35 10.7402V17.6602C19.35 19.8693 17.5591 21.6602 15.35 21.6602H8.45996C6.25082 21.6602 4.45996 19.8693 4.45996 17.6602V6.50017C4.45996 4.29103 6.25082 2.50017 8.45996 2.50017H11.13C11.4039 2.50549 11.6246 2.72626 11.63 3.00017V7.78017C11.6273 8.42995 11.8829 9.05417 12.3405 9.51551C12.7981 9.97685 13.4202 10.2375 14.07 10.2402ZM8.84996 18.2802C9.3025 18.5646 9.82548 18.717 10.36 18.7202L10.4 18.6702C11.9684 18.6702 13.24 17.3987 13.24 15.8302C13.24 14.2617 11.9684 12.9902 10.4 12.9902C8.83147 12.9902 7.55996 14.2617 7.55996 15.8302C7.562 16.2916 7.67884 16.7452 7.89996 17.1502C7.85432 17.1767 7.81085 17.2068 7.76996 17.2402L6.70996 18.3402C6.50152 18.5568 6.44259 18.877 6.56022 19.1536C6.67786 19.4303 6.94933 19.61 7.24996 19.6102C7.45496 19.6163 7.65235 19.5322 7.78996 19.3802L8.84996 18.2802Z" fill="black"/>
<path d="M10.36 14.5302C9.81305 14.5261 9.31773 14.8524 9.10562 15.3566C8.89351 15.8607 9.00653 16.443 9.39182 16.8312C9.77712 17.2193 10.3586 17.3367 10.8642 17.1283C11.3699 16.92 11.6999 16.4271 11.7 15.8802C11.7 15.1385 11.1016 14.5357 10.36 14.5302Z" fill="black"/>
</svg>
