<svg width="24" height="24" viewBox="0 0 24 24" fill="none" xmlns="http://www.w3.org/2000/svg">
<path fill-rule="evenodd" clip-rule="evenodd" d="M5.08119 15.0215C5.77005 13.7728 7.08413 12.9982 8.51024 13.0002C10.1975 13.0251 11.6783 14.1297 12.1832 15.7397C12.6881 17.3498 12.1032 19.1022 10.7324 20.0862C9.36155 21.0701 7.51415 21.0637 6.15024 20.0702L4.70024 21.5802C4.55705 21.7242 4.36332 21.8067 4.16024 21.8102C3.96586 21.8122 3.7787 21.7366 3.64024 21.6002C3.34779 21.3073 3.34779 20.833 3.64024 20.5402L5.09024 19.0002H5.20024C4.43794 17.7949 4.39232 16.2702 5.08119 15.0215ZM6.10024 16.9102C6.10024 18.2412 7.17923 19.3202 8.51024 19.3202V19.2902C9.82962 19.2903 10.9038 18.2294 10.9202 16.9102C10.9202 15.5791 9.84124 14.5002 8.51024 14.5002C7.17923 14.5002 6.10024 15.5791 6.10024 16.9102Z" fill="black"/>
<path fill-rule="evenodd" clip-rule="evenodd" d="M13.3501 2.38016L20.3501 9.38016C20.5169 9.51898 20.6154 9.72322 20.6201 9.94016V16.9402C20.6201 18.1999 20.1197 19.4081 19.2289 20.2989C18.3381 21.1897 17.1299 21.6902 15.8701 21.6902H13.0001C12.5859 21.6902 12.2501 21.3544 12.2501 20.9402C12.2501 20.5259 12.5859 20.1902 13.0001 20.1902H15.8201C17.6151 20.1902 19.0701 18.7351 19.0701 16.9402V10.6902H14.8201C13.3036 10.6847 12.0756 9.45666 12.0701 7.94016V3.69016H9.82015C8.0275 3.69565 6.57564 5.14751 6.57015 6.94016V11.9402C6.57015 12.3544 6.23436 12.6902 5.82015 12.6902C5.40593 12.6902 5.07015 12.3544 5.07015 11.9402V6.94016C5.06216 5.67519 5.55907 4.45929 6.45074 3.56199C7.3424 2.66469 8.55515 2.16013 9.82015 2.16016H12.8201C13.019 2.16033 13.2096 2.23946 13.3501 2.38016ZM13.5701 4.72016V7.94016C13.5701 8.63051 14.1298 9.19016 14.8201 9.19016H18.0001L13.5701 4.72016Z" fill="black"/>
</svg>
