<svg width="24" height="24" viewBox="0 0 24 24" fill="none" xmlns="http://www.w3.org/2000/svg">
<path d="M22.6611 13.33V17.25C22.7058 19.3561 21.0371 21.1008 18.9311 21.15L5.73109 21.08C3.62351 21.0254 1.95634 19.2778 2.00109 17.17V13.25C1.97693 12.2368 2.35641 11.2555 3.05598 10.5222C3.75555 9.78886 4.71787 9.36359 5.73109 9.34H11.4711V14.19L9.12109 11.86C8.95965 11.6976 8.7401 11.6062 8.51109 11.6062C8.28207 11.6062 8.06252 11.6976 7.90109 11.86C7.73351 12.0186 7.63858 12.2392 7.63858 12.47C7.63858 12.7008 7.73351 12.9214 7.90109 13.08L11.7211 16.9C12.0596 17.2329 12.6025 17.2329 12.9411 16.9L16.7611 13.08C16.9287 12.9214 17.0236 12.7008 17.0236 12.47C17.0236 12.2392 16.9287 12.0186 16.7611 11.86C16.5997 11.6976 16.3801 11.6062 16.1511 11.6062C15.9221 11.6062 15.7025 11.6976 15.5411 11.86L13.1911 14.22V9.38H18.9311C19.9514 9.40345 20.92 9.83424 21.6207 10.5763C22.3214 11.3184 22.6961 12.31 22.6611 13.33Z" fill="black"/>
<path d="M13.1911 3.86L13.1911 9.38H11.4711V3.86C11.4711 3.38504 11.8561 3 12.3311 3C12.8061 3 13.1911 3.38504 13.1911 3.86Z" fill="black"/>
</svg>
