<svg width="24" height="24" viewBox="0 0 24 24" fill="none" xmlns="http://www.w3.org/2000/svg">
<path d="M14.17 9.14017H18.79C19.0368 9.16051 19.2677 9.01629 19.3577 8.78553C19.4477 8.55478 19.3754 8.29231 19.18 8.14017L13.63 2.69017C13.4778 2.49472 13.2154 2.42244 12.9846 2.51243C12.7538 2.60243 12.6096 2.83332 12.63 3.08017V7.65017C12.6297 8.05416 12.7936 8.44092 13.0839 8.72183C13.3742 9.00275 13.7662 9.15372 14.17 9.14017Z" fill="black"/>
<path fill-rule="evenodd" clip-rule="evenodd" d="M14.07 10.2402H18.85C19.1261 10.2402 19.35 10.464 19.35 10.7402V17.6602C19.35 19.8693 17.5591 21.6602 15.35 21.6602H8.45996C6.25082 21.6602 4.45996 19.8693 4.45996 17.6602V6.50017C4.45996 4.29103 6.25082 2.50017 8.45996 2.50017H11.13C11.4039 2.50549 11.6246 2.72626 11.63 3.00017V7.78017C11.6273 8.42995 11.8829 9.05417 12.3405 9.51551C12.7981 9.97685 13.4202 10.2375 14.07 10.2402ZM9.61996 18.0002H10.54C10.9542 18.0002 11.29 17.6644 11.29 17.2502C11.29 16.836 10.9542 16.5002 10.54 16.5002H9.61996V15.5902C9.61996 15.176 9.28417 14.8402 8.86996 14.8402C8.45575 14.8402 8.11996 15.176 8.11996 15.5902V16.5002H7.20996C6.79575 16.5002 6.45996 16.836 6.45996 17.2502C6.45996 17.6644 6.79575 18.0002 7.20996 18.0002H8.11996V18.9102C8.11996 19.3244 8.45575 19.6602 8.86996 19.6602C9.28417 19.6602 9.61996 19.3244 9.61996 18.9102V18.0002Z" fill="black"/>
</svg>
