<svg width="24" height="24" viewBox="0 0 24 24" fill="none" xmlns="http://www.w3.org/2000/svg">
<path d="M15.49 2.55739V6.68739C15.49 7.42745 16.0899 8.02739 16.83 8.02739H21C21.2016 8.0231 21.3817 7.90044 21.4596 7.71443C21.5375 7.52843 21.4984 7.31401 21.36 7.16739L16.36 2.16739C16.2149 2.0046 15.9811 1.95458 15.7822 2.04377C15.5832 2.13296 15.465 2.34079 15.49 2.55739Z" fill="black"/>
<path d="M16.74 9.02739C15.5217 9.01641 14.54 8.02569 14.54 6.80739V2.49739C14.54 2.24886 14.3385 2.04739 14.09 2.04739H11.68C9.68625 2.04739 8.07 3.66364 8.07 5.65739V15.7274C8.07 17.7211 9.68625 19.3374 11.68 19.3374H17.9C19.8954 19.3374 21.5145 17.7228 21.52 15.7274V9.47739C21.5146 9.22725 21.3102 9.02733 21.06 9.02739H16.74Z" fill="black"/>
<path d="M6.83 16.1374C6.82999 18.547 8.78042 20.5019 11.19 20.5074L15.78 20.5174C15.122 21.7454 13.8432 22.5135 12.45 22.5174H6.78C4.69236 22.5174 3 20.825 3 18.7374V9.28739C3 8.28487 3.39825 7.32341 4.10714 6.61452C4.81602 5.90564 5.77748 5.50739 6.78 5.50739H6.89C6.85521 5.69554 6.83515 5.88612 6.83 6.07739V16.1374Z" fill="black"/>
</svg>
