<svg width="24" height="24" viewBox="0 0 24 24" fill="none" xmlns="http://www.w3.org/2000/svg">
<path fill-rule="evenodd" clip-rule="evenodd" d="M5.28977 13.27H9.28977C10.5507 13.2476 11.5924 14.2491 11.6198 15.51V19.51C11.6143 20.7724 10.5922 21.7945 9.32977 21.8H5.32977C4.06883 21.8167 3.03168 20.8108 3.00977 19.55V15.55C3.00977 14.2908 4.03056 13.27 5.28977 13.27ZM9.28977 20.3C9.72607 20.3 10.0798 19.9463 10.0798 19.51V15.51C10.0798 15.3013 9.99623 15.1014 9.84778 14.9549C9.69934 14.8083 9.49836 14.7273 9.28977 14.73H5.28977C5.0829 14.73 4.8845 14.8121 4.73822 14.9584C4.59194 15.1047 4.50977 15.3031 4.50977 15.51V19.51C4.50973 19.9424 4.85737 20.2945 5.28977 20.3H9.28977Z" fill="black"/>
<path d="M8.05977 16.78V16.21C8.05977 15.7957 7.72398 15.46 7.30977 15.46C6.89555 15.46 6.55977 15.7957 6.55977 16.21V16.78H5.99977C5.58555 16.78 5.24977 17.1157 5.24977 17.53C5.24977 17.9442 5.58555 18.28 5.99977 18.28H6.56977V18.86C6.56977 19.2742 6.90555 19.61 7.31977 19.61C7.73398 19.61 8.06977 19.2742 8.06977 18.86V18.28H8.64977C9.06398 18.28 9.39977 17.9442 9.39977 17.53C9.39977 17.1157 9.06398 16.78 8.64977 16.78H8.05977Z" fill="black"/>
<path fill-rule="evenodd" clip-rule="evenodd" d="M13.0498 2.42996L20.0498 9.42996C20.1986 9.58149 20.2782 9.78775 20.2698 9.99996V17C20.2698 19.6233 18.1431 21.75 15.5198 21.75H12.6498C12.2356 21.75 11.8998 21.4142 11.8998 21C11.8998 20.5857 12.2356 20.25 12.6498 20.25H15.5198C17.3147 20.25 18.7698 18.7949 18.7698 17V10.75H14.5198C13.001 10.75 11.7698 9.51874 11.7698 7.99996V3.73996H9.51977C7.72322 3.74547 6.26976 5.20341 6.26977 6.99996V12C6.26977 12.4142 5.93398 12.75 5.51977 12.75C5.10555 12.75 4.76977 12.4142 4.76977 12V6.99996C4.7591 5.73327 5.25483 4.51478 6.14679 3.61532C7.03874 2.71585 8.25303 2.20992 9.51977 2.20996H12.5198C12.7186 2.21014 12.9092 2.28927 13.0498 2.42996ZM13.2698 4.76996V7.99996C13.2753 8.68641 13.8333 9.23998 14.5198 9.23996H17.7398L13.2698 4.76996Z" fill="black"/>
</svg>
