<svg width="24" height="24" viewBox="0 0 24 24" fill="none" xmlns="http://www.w3.org/2000/svg">
<path d="M9.7498 14.6299C9.93795 14.987 9.80979 15.4289 9.4598 15.6299C9.34852 15.6877 9.2252 15.7186 9.0998 15.7199C8.82763 15.7206 8.57589 15.5756 8.4398 15.3399L7.1498 12.9999C6.95873 12.6394 7.09098 12.1922 7.44742 11.9936C7.80386 11.795 8.25371 11.9177 8.45981 12.2699L9.7498 14.6299Z" fill="black"/>
<path fill-rule="evenodd" clip-rule="evenodd" d="M14.1598 10.1499H18.9398C19.2159 10.1499 19.4398 10.3738 19.4398 10.6499V17.5699C19.4398 19.7791 17.6489 21.5699 15.4398 21.5699H8.5498C6.34067 21.5699 4.5498 19.7791 4.5498 17.5699V6.41992C4.5498 4.21078 6.34067 2.41992 8.5498 2.41992H11.2198C11.4937 2.42524 11.7145 2.64601 11.7198 2.91992V7.68992C11.7171 8.3397 11.9727 8.96393 12.4303 9.42527C12.8879 9.88661 13.51 10.1473 14.1598 10.1499ZM11.8717 20.1725C12.0034 20.1012 12.081 19.9593 12.0698 19.8099L12.1298 17.8299C12.1263 17.5501 12.0542 17.2754 11.9198 17.0299L9.2898 12.2299C8.91986 11.3347 7.90786 10.8928 6.9998 11.2299C6.21503 11.8152 6.03782 12.9183 6.5998 13.7199L9.2198 18.5399C9.35272 18.7873 9.54956 18.9945 9.7898 19.1399L11.4598 20.1399C11.5787 20.231 11.74 20.2437 11.8717 20.1725Z" fill="black"/>
<path d="M12.7698 2.99992V7.56992C12.7698 8.3873 13.4324 9.04992 14.2498 9.04992H18.8798C19.1267 9.07027 19.3575 8.92604 19.4475 8.69529C19.5375 8.46453 19.4653 8.20207 19.2698 8.04992L13.7198 2.59992C13.5586 2.44348 13.3195 2.3985 13.1125 2.48567C12.9055 2.57284 12.7706 2.77529 12.7698 2.99992Z" fill="black"/>
</svg>
