<svg width="24" height="24" viewBox="0 0 24 24" fill="none" xmlns="http://www.w3.org/2000/svg">
<path fill-rule="evenodd" clip-rule="evenodd" d="M7.79007 15.2699L8.52007 11.8599C8.62635 11.3861 8.86574 10.9524 9.21007 10.6099L15.8801 3.99993C16.5565 3.3109 17.4748 2.91271 18.4401 2.88993C19.1681 2.8795 19.8701 3.1603 20.3901 3.66993C21.5263 5.01239 21.3796 7.01715 20.0601 8.17993L13.3901 14.8499C13.0476 15.1943 12.6139 15.4337 12.1401 15.5399L8.73007 16.2699H8.54007C8.29078 16.2795 8.05268 16.1661 7.903 15.9665C7.75332 15.7669 7.71111 15.5066 7.79007 15.2699ZM10.2701 11.6799C10.13 11.8157 10.0326 11.9895 9.99007 12.1799L9.50007 14.5099L11.8301 14.0099C12.0205 13.9674 12.1943 13.87 12.3301 13.7299L19.0001 7.05993C19.7308 6.47495 19.8758 5.42041 19.3301 4.65993C19.0911 4.43164 18.7704 4.3091 18.4401 4.31993C17.8706 4.34279 17.3326 4.58673 16.9401 4.99993L10.2701 11.6799Z" fill="black"/>
<path d="M19.9101 10.9299C19.4981 10.9353 19.1655 11.268 19.1601 11.6799V17.3699C19.1735 18.1742 18.8633 18.9502 18.2993 19.5236C17.7352 20.0971 16.9645 20.42 16.1601 20.4199H6.63008C4.96745 20.3873 3.63519 19.0329 3.63008 17.3699V7.87993C3.65738 6.21502 5.01494 4.87971 6.68008 4.87993H12.3701C12.7843 4.87993 13.1201 4.54414 13.1201 4.12993C13.1201 3.71572 12.7843 3.37993 12.3701 3.37993H6.63008C4.13658 3.37978 2.10748 5.38658 2.08008 7.87993V17.3699C2.08008 19.8828 4.11718 21.9199 6.63008 21.9199H16.1201C18.6291 21.9144 20.6601 19.8789 20.6601 17.3699V11.6799C20.6547 11.268 20.322 10.9353 19.9101 10.9299Z" fill="black"/>
</svg>
