<svg width="24" height="24" viewBox="0 0 24 24" fill="none" xmlns="http://www.w3.org/2000/svg">
<path d="M13.2398 15.6201L9.82976 16.3501C9.69683 16.3648 9.56269 16.3648 9.42976 16.3501C8.95674 16.3542 8.50222 16.1666 8.16976 15.8301C7.74249 15.3919 7.56567 14.7673 7.69976 14.1701L8.42976 10.7701C8.58484 10.1016 8.93251 9.49316 9.42976 9.02014L15.1298 3.32014H6.12976C5.0144 3.30658 3.94077 3.74367 3.15203 4.53241C2.3633 5.32114 1.92621 6.39478 1.93976 7.51014V17.8601C1.93976 20.1466 3.7933 22.0001 6.07976 22.0001H16.4398C18.7262 22.0001 20.5798 20.1466 20.5798 17.8601V9.07014L14.9998 14.6601C14.5193 15.1449 13.9075 15.4786 13.2398 15.6201Z" fill="black"/>
<path fill-rule="evenodd" clip-rule="evenodd" d="M16.7698 3.11014C17.9271 1.7824 19.9365 1.63091 21.2798 2.77014C21.8428 3.41841 22.1236 4.26471 22.0597 5.12097C21.9959 5.97723 21.5927 6.77252 20.9398 7.33014L14.2698 14.0001C13.918 14.3329 13.4765 14.5554 12.9998 14.6401L9.61976 15.4001C9.34167 15.4812 9.04161 15.3993 8.84322 15.1883C8.64482 14.9772 8.58166 14.6727 8.67976 14.4001L9.40976 11.0001C9.52129 10.537 9.76032 10.1144 10.0998 9.78014L16.7698 3.11014ZM17.1798 7.77014L19.4198 5.53014C19.6951 5.23463 19.687 4.77413 19.4014 4.48851C19.1158 4.2029 18.6553 4.19478 18.3598 4.47014L16.1198 6.71014C15.8273 7.00295 15.8273 7.47732 16.1198 7.77014C16.4126 8.06259 16.8869 8.06259 17.1798 7.77014Z" fill="black"/>
</svg>
