<svg width="24" height="24" viewBox="0 0 24 24" fill="none" xmlns="http://www.w3.org/2000/svg">
<path d="M8.5 20H5C4.44772 20 4 19.5523 4 19V15.5C4 14.9477 3.55228 14.5 3 14.5C2.44772 14.5 2 14.9477 2 15.5V19C2 20.6569 3.34315 22 5 22H8.5C9.05228 22 9.5 21.5523 9.5 21C9.5 20.4477 9.05228 20 8.5 20Z" fill="black"/>
<path d="M21 14.5C20.4477 14.5 20 14.9477 20 15.5V19C20 19.5523 19.5523 20 19 20H15.5C14.9477 20 14.5 20.4477 14.5 21C14.5 21.5523 14.9477 22 15.5 22H19C20.6569 22 22 20.6569 22 19V15.5C22 14.9477 21.5523 14.5 21 14.5Z" fill="black"/>
<path d="M19 2H15.5C14.9477 2 14.5 2.44772 14.5 3C14.5 3.55228 14.9477 4 15.5 4H19C19.5523 4 20 4.44772 20 5V8.5C20 9.05228 20.4477 9.5 21 9.5C21.5523 9.5 22 9.05228 22 8.5V5C22 3.34315 20.6569 2 19 2Z" fill="black"/>
<path d="M8.5 2H5C3.34315 2 2 3.34315 2 5V8.5C2 9.05228 2.44772 9.5 3 9.5C3.55228 9.5 4 9.05228 4 8.5V5C4 4.44772 4.44772 4 5 4H8.5C9.05228 4 9.5 3.55228 9.5 3C9.5 2.44772 9.05228 2 8.5 2Z" fill="black"/>
</svg>
