<svg width="24" height="24" viewBox="0 0 24 24" fill="none" xmlns="http://www.w3.org/2000/svg">
<path d="M17.34 7.04L13.1 11.28C12.8072 11.5725 12.3328 11.5725 12.04 11.28C11.7475 10.9872 11.7475 10.5128 12.04 10.22L16.28 5.98C15.5612 5.48675 14.7117 5.2187 13.84 5.21H7.33C4.95027 5.20994 3.01649 7.13033 3 9.51V15.99C3 18.3814 4.93861 20.32 7.33 20.32H13.81C16.2014 20.32 18.14 18.3814 18.14 15.99V9.54C18.1384 8.64397 17.8589 7.77049 17.34 7.04Z" fill="black"/>
<path d="M20.26 3.46C20.1878 3.27701 20.043 3.13217 19.86 3.06C19.7683 3.02092 19.6697 3.00053 19.57 3H14.57C14.1558 3 13.82 3.33579 13.82 3.75C13.82 4.16421 14.1558 4.5 14.57 4.5H17.76L16.29 5.97C16.7007 6.26085 17.0591 6.61927 17.35 7.03L18.82 5.56V8.75C18.82 9.16421 19.1558 9.5 19.57 9.5C19.9842 9.5 20.32 9.16421 20.32 8.75V3.75C20.3195 3.65031 20.2991 3.55172 20.26 3.46Z" fill="black"/>
</svg>
