<svg width="24" height="24" viewBox="0 0 24 24" fill="none" xmlns="http://www.w3.org/2000/svg">
<path fill-rule="evenodd" clip-rule="evenodd" d="M17.0276 7.64929L21.2076 10.9893C21.4779 11.2056 21.6352 11.5331 21.6352 11.8793C21.6352 12.2255 21.4779 12.5529 21.2076 12.7693L17.0276 16.1093C14.2726 18.3083 10.3626 18.3083 7.60761 16.1093L3.42761 12.7693C3.15733 12.5529 3 12.2255 3 11.8793C3 11.5331 3.15733 11.2056 3.42761 10.9893L7.60761 7.64929C10.3626 5.45024 14.2726 5.45024 17.0276 7.64929ZM10.0176 11.8793C10.0176 13.1495 11.0474 14.1793 12.3176 14.1793C13.5879 14.1793 14.6176 13.1495 14.6176 11.8793C14.6176 10.609 13.5879 9.57929 12.3176 9.57929C11.0474 9.57929 10.0176 10.609 10.0176 11.8793Z" fill="black"/>
</svg>
