<svg width="24" height="24" viewBox="0 0 24 24" fill="none" xmlns="http://www.w3.org/2000/svg">
<path d="M14.06 9.91H15.06C15.189 9.91003 15.3127 9.85809 15.403 9.76589C15.4933 9.6737 15.5427 9.54903 15.54 9.42V7.82C15.5409 7.56977 15.3494 7.36085 15.1 7.34C15.1 7.34 14.39 7.28 13.52 7.28C11.38 7.28 10.2 8.55 10.2 10.85V12.62H8.22999C8.10186 12.6172 7.97817 12.6669 7.88754 12.7576C7.79692 12.8482 7.74724 12.9719 7.74999 13.1V14.56C7.74724 14.6881 7.79692 14.8118 7.88754 14.9024C7.97817 14.9931 8.10186 15.0428 8.22999 15.04H10.17V20.7H13.09V15.04H14.85C15.0917 15.0375 15.2955 14.8592 15.33 14.62L15.51 13.16C15.5283 13.0218 15.4844 12.8826 15.39 12.78C15.2984 12.6776 15.1674 12.6194 15.03 12.62H13.09V10.91C13.0897 10.3692 13.5195 9.92622 14.06 9.91Z" fill="black"/>
<path fill-rule="evenodd" clip-rule="evenodd" d="M2 11.91C2 6.43686 6.43686 2 11.91 2C14.5383 2 17.0589 3.04409 18.9174 4.90257C20.7759 6.76106 21.82 9.2817 21.82 11.91C21.82 17.3831 17.3831 21.82 11.91 21.82C6.43686 21.82 2 17.3831 2 11.91ZM20.32 11.91C20.32 7.26529 16.5547 3.5 11.91 3.5C7.26984 3.511 3.51099 7.26985 3.5 11.91C3.5 16.5547 7.26528 20.32 11.91 20.32C16.5547 20.32 20.32 16.5547 20.32 11.91Z" fill="black"/>
</svg>
