<svg width="24" height="24" viewBox="0 0 24 24" fill="none" xmlns="http://www.w3.org/2000/svg">
<path fill-rule="evenodd" clip-rule="evenodd" d="M18.3119 4.56678C18.8192 6.1024 18.2821 7.79014 16.9805 8.75001C18.2969 9.7025 18.8477 11.396 18.3435 12.9407C17.8392 14.4853 16.3953 15.5277 14.7705 15.52C13.956 15.5187 13.1649 15.2479 12.5205 14.75V17.75C12.5205 19.5135 11.2918 21.0387 9.56869 21.4141C7.84563 21.7894 6.09383 20.9135 5.36029 19.3099C4.62675 17.7062 5.10969 15.8081 6.52047 14.75C5.56476 14.0493 5.00011 12.9351 5.00011 11.75C5.00011 10.5649 5.56476 9.45076 6.52047 8.75001C5.21888 7.79014 4.68171 6.1024 5.18903 4.56678C5.69635 3.03117 7.13323 1.99559 8.75047 2.00001H14.7505C16.3677 1.99559 17.8046 3.03117 18.3119 4.56678ZM14.7505 8.00001C15.9853 7.98904 16.9805 6.98489 16.9805 5.75001H17.0005C17.0005 4.50737 15.9931 3.50001 14.7505 3.50001H12.5005V8.00001H14.7505ZM6.50047 5.75001C6.50047 4.50737 7.50783 3.50001 8.75047 3.50001H11.0005V8.00001H8.75047C7.50783 8.00001 6.50047 6.99266 6.50047 5.75001ZM8.75047 9.50001C7.50783 9.50001 6.50047 10.5074 6.50047 11.75C6.50047 12.9927 7.50783 14 8.75047 14H11.0005V9.50001H8.75047ZM11.0005 17.75C11.0005 18.9927 9.99311 20 8.75047 20C7.50783 20 6.50047 18.9927 6.50047 17.75C6.50047 16.5074 7.50783 15.5 8.75047 15.5H11.0005V17.75ZM12.5005 11.75C12.5005 12.9927 13.5078 14 14.7505 14C15.9931 14 17.0005 12.9927 17.0005 11.75C17.0005 10.5074 15.9931 9.50001 14.7505 9.50001C13.5078 9.50001 12.5005 10.5074 12.5005 11.75Z" fill="black"/>
</svg>
