<svg width="24" height="24" viewBox="0 0 24 24" fill="none" xmlns="http://www.w3.org/2000/svg">
<path d="M15 9C13.4182 8.99648 12.1054 10.2217 12 11.8V9H15C16.6569 9 18 7.65685 18 6C18 4.34315 16.6569 3 15 3H9C7.34315 3 6 4.34315 6 6C6 7.65685 7.34315 9 9 9C7.34315 9 6 10.3431 6 12C6 13.6569 7.34315 15 9 15C7.34315 15 6 16.3431 6 18C6 19.6569 7.34315 21 9 21C10.6569 21 12 19.6569 12 18V12.2C12.1087 13.8264 13.4961 15.0684 15.1245 14.9971C16.7529 14.9259 18.0265 13.5674 17.9927 11.9377C17.9588 10.3081 16.63 9.00363 15 9Z" fill="black"/>
</svg>
