<svg width="24" height="24" viewBox="0 0 24 24" fill="none" xmlns="http://www.w3.org/2000/svg">
<path fill-rule="evenodd" clip-rule="evenodd" d="M13.7691 10.6179C14.6701 10.5963 15.4749 10.0491 15.8263 9.21925C15.9013 9.25087 15.9815 9.2683 16.0629 9.27067H20.1771C20.6032 9.27067 20.9486 8.92534 20.9486 8.49935C20.9486 8.07336 20.6032 7.72802 20.1771 7.72802H16.1143C16.0699 7.72221 16.025 7.72221 15.9806 7.72802C15.686 6.57063 14.5523 5.83303 13.3746 6.0325C12.1969 6.23197 11.3695 7.30174 11.4726 8.49158C11.5756 9.68142 12.5747 10.593 13.7691 10.5871V10.6179ZM13.7691 7.58404C14.1838 7.58404 14.52 7.92017 14.52 8.3348C14.52 8.74943 14.1838 9.08556 13.7691 9.08556C13.3545 9.08556 13.0183 8.74943 13.0183 8.3348C13.0183 7.92017 13.3545 7.58404 13.7691 7.58404Z" fill="black"/>
<path d="M3.77143 7.72802H9.94286C10.3689 7.72802 10.7143 8.07336 10.7143 8.49935C10.7143 8.92534 10.3689 9.27067 9.94286 9.27067H3.77143C3.34538 9.27067 3 8.92534 3 8.49935C3 8.07336 3.34538 7.72802 3.77143 7.72802Z" fill="black"/>
<path fill-rule="evenodd" clip-rule="evenodd" d="M5.736 15.9555C6.05818 15.0444 6.91918 14.4347 7.88571 14.4334V14.4128C9.04884 14.4114 10.029 15.2806 10.1663 16.4354C10.3037 17.5902 9.55477 18.6651 8.42374 18.9364C7.29271 19.2077 6.13762 18.5896 5.736 17.4981H3.77143C3.34538 17.4981 3 17.1528 3 16.7268C3 16.3008 3.34538 15.9555 3.77143 15.9555H5.736ZM7.1361 16.7809C7.14317 17.19 7.47652 17.5181 7.88571 17.5187V17.4776C8.3004 17.4776 8.63657 17.1414 8.63657 16.7268C8.61415 16.3183 8.26871 16.0029 7.85978 16.0177C7.45086 16.0324 7.12903 16.3718 7.1361 16.7809Z" fill="black"/>
<path d="M12 15.9555H20.2286C20.6546 15.9555 21 16.3008 21 16.7268C21 17.1528 20.6546 17.4981 20.2286 17.4981H12C11.574 17.4981 11.2286 17.1528 11.2286 16.7268C11.2286 16.3008 11.574 15.9555 12 15.9555Z" fill="black"/>
</svg>
