<svg width="24" height="24" viewBox="0 0 24 24" fill="none" xmlns="http://www.w3.org/2000/svg">
<path d="M4.89887 2H19.0789C20.2514 2.00049 21.3083 2.70705 21.757 3.79038C22.2056 4.87372 21.9577 6.12063 21.1289 6.95L16.3589 11.72C15.8215 12.2721 15.5172 13.0097 15.5089 13.78V18.17C15.5073 19.0824 15.0779 19.9413 14.3489 20.49L13.1089 21.43C12.2287 22.0902 11.0507 22.1954 10.0675 21.7016C9.08422 21.2079 8.46507 20.2002 8.46887 19.1V13.78C8.46054 13.0097 8.15619 12.2721 7.61887 11.72L2.84887 6.95C2.01999 6.12063 1.77211 4.87372 2.22077 3.79038C2.66942 2.70705 3.7263 2.00049 4.89887 2Z" fill="black"/>
</svg>
