<svg width="24" height="24" viewBox="0 0 24 24" fill="none" xmlns="http://www.w3.org/2000/svg">
<path d="M12.0513 2L10.6813 4.8C9.70235 6.80035 8.39031 8.61962 6.8013 10.18L6.6213 10.35C5.60076 11.3408 5.01766 12.6977 5.0013 14.12V14.3C4.97427 17.0851 6.63391 19.6101 9.2013 20.69L9.4613 20.8C11.1452 21.5152 13.0474 21.5152 14.7313 20.8H14.7913C17.3779 19.6762 19.0375 17.1099 19.0013 14.29V9.95C18.1393 11.9185 16.5739 13.4946 14.6113 14.37C14.6113 14.37 14.6113 14.37 14.5513 14.37C14.4913 14.37 13.7913 14.66 13.4913 14.37C13.2234 14.0989 13.1977 13.6712 13.4313 13.37L13.5013 13.32H13.5513C15.8471 11.575 16.3823 8.34172 14.7713 5.95C13.4713 3.97 12.0513 2 12.0513 2Z" fill="black"/>
</svg>
