<svg width="24" height="24" viewBox="0 0 24 24" fill="none" xmlns="http://www.w3.org/2000/svg">
<path d="M17.16 7.25H16.25C15.3419 7.3012 14.5637 6.60792 14.51 5.7V5.62C14.4843 5.1821 14.2852 4.77247 13.9569 4.48162C13.6285 4.19078 13.1978 4.04266 12.76 4.07H6.5V3.75C6.5 3.33579 6.16421 3 5.75 3C5.33579 3 5 3.33579 5 3.75V20.75C5 21.1642 5.33579 21.5 5.75 21.5C6.16421 21.5 6.5 21.1642 6.5 20.75V12.47H7.67C8.57807 12.4188 9.35632 13.1121 9.41 14.02V14.08C9.46368 14.9879 10.2419 15.6812 11.15 15.63H17.15C18.0581 15.6812 18.8363 14.9879 18.89 14.08V8.78C18.8207 7.88669 18.0551 7.20954 17.16 7.25Z" fill="black"/>
</svg>
