<svg width="24" height="24" viewBox="0 0 24 24" fill="none" xmlns="http://www.w3.org/2000/svg">
<path fill-rule="evenodd" clip-rule="evenodd" d="M14.5601 14.36H14.6201C16.5849 13.4928 18.1518 11.9187 19.0101 9.95V14.31C19.0181 17.1046 17.3632 19.6362 14.8001 20.75H14.7301C13.8827 21.1089 12.9704 21.2893 12.0501 21.28C11.1606 21.2824 10.2797 21.1056 9.46012 20.76L9.20012 20.65C6.64265 19.58 4.98392 17.0722 5.00012 14.3V14.12C5.0193 12.7003 5.59786 11.3456 6.61012 10.35L6.79012 10.18C8.38136 8.62154 9.69369 6.80186 10.6701 4.8L12.0401 2C12.0401 2 13.4601 4 14.7801 6C16.3899 8.38859 15.8545 11.6186 13.5601 13.36H13.4401C13.2019 13.6598 13.2278 14.0908 13.5001 14.36C13.614 14.4562 13.7616 14.503 13.9101 14.49C14.1322 14.4807 14.3515 14.4368 14.5601 14.36ZM14.1201 19.36H14.1901V19.35C16.1896 18.4737 17.4864 16.503 17.5001 14.32C16.8257 14.9135 16.0546 15.3871 15.2201 15.72L15.0901 15.77C14.7137 15.9166 14.314 15.9945 13.9101 16C13.3627 16.0193 12.8314 15.8133 12.4401 15.43C11.6231 14.6226 11.5456 13.3293 12.2601 12.43C12.3474 12.321 12.4482 12.2235 12.5601 12.14H12.6301C14.3163 10.8822 14.713 8.51958 13.5301 6.78C13.1001 6.14 12.6701 5.5 12.2701 4.93L12.0201 5.45C10.9617 7.58318 9.54826 9.52081 7.84013 11.18L7.66013 11.35C6.93381 12.0668 6.51736 13.0397 6.50013 14.06V14.25C6.47303 16.4292 7.77047 18.407 9.78013 19.25L10.0401 19.36C11.3438 19.9135 12.8164 19.9135 14.1201 19.36Z" fill="black"/>
</svg>
