<svg width="24" height="24" viewBox="0 0 24 24" fill="none" xmlns="http://www.w3.org/2000/svg">
<path d="M15.9083 15.1365L17.8898 13.1445C18.0858 12.9342 18.381 12.8476 18.6596 12.9187C18.9382 12.9899 19.1558 13.2074 19.2269 13.486C19.2981 13.7646 19.2115 14.0598 19.0011 14.2558L17.0196 16.2478C16.873 16.3963 16.6727 16.4794 16.464 16.4784C16.2545 16.4832 16.0528 16.3994 15.9083 16.2478C15.7584 16.1018 15.6739 15.9014 15.6739 15.6921C15.6739 15.4829 15.7584 15.2825 15.9083 15.1365Z" fill="black"/>
<path fill-rule="evenodd" clip-rule="evenodd" d="M18.9487 6.19361H13.9268C12.7688 6.19361 11.83 5.25484 11.83 4.09681C11.83 2.93877 10.8912 2 9.73321 2H4.71136C2.6681 2.00572 1.01152 3.65763 1.00001 5.70086V18.1244C0.99722 19.1096 1.38734 20.0552 2.08396 20.7518C2.78058 21.4485 3.7262 21.8386 4.71136 21.8358H18.9487C20.9984 21.8358 22.66 20.1742 22.66 18.1244V9.91544C22.66 7.86402 21.0001 6.19939 18.9487 6.19361ZM19.9447 15.126L15.8664 19.0156C15.6537 19.2273 15.3775 19.3636 15.0801 19.4035L12.8784 19.739C12.7039 19.7706 12.5248 19.717 12.3964 19.5947C12.2679 19.4725 12.2055 19.2963 12.2284 19.1204L12.5744 17.0236C12.6207 16.7381 12.7609 16.4761 12.9728 16.2792L17.072 12.3897C17.8705 11.5893 19.1598 11.5661 19.9866 12.3372C20.3675 12.7039 20.5793 13.2121 20.5713 13.7407C20.5634 14.2694 20.3364 14.771 19.9447 15.126Z" fill="black"/>
</svg>
