<svg width="24" height="24" viewBox="0 0 24 24" fill="none" xmlns="http://www.w3.org/2000/svg">
<path d="M5.89427 20.5919H13.3352C13.7693 20.5919 14.1212 20.9438 14.1212 21.3779C14.1212 21.812 13.7693 22.1639 13.3352 22.1639H5.89427C3.19364 22.1582 1.00578 19.9703 1.00001 17.2697V6.91522C0.997229 5.6144 1.51131 4.36576 2.42916 3.44397C3.34701 2.52219 4.59345 2.00278 5.89427 2H9.93963C11.4619 2 12.6959 3.23404 12.6959 4.7563C12.7016 5.40798 13.2285 5.93487 13.8802 5.94056H17.9256C20.6262 5.94633 22.8141 8.13419 22.8198 10.8348C22.8258 11.2783 22.477 11.6457 22.0338 11.6628C21.8283 11.6713 21.6282 11.5956 21.4798 11.4532C21.3314 11.3107 21.2476 11.1139 21.2478 10.9082C21.2618 10.0161 20.9186 9.15541 20.2947 8.51768C19.6707 7.87995 18.8177 7.51808 17.9256 7.51259H13.8802C12.3579 7.51259 11.1239 6.27856 11.1239 4.7563C11.107 4.11282 10.5833 3.59842 9.93963 3.59299H5.89427C4.05946 3.59299 2.57204 5.0804 2.57204 6.91522V17.2697C2.57204 19.1045 4.05946 20.5919 5.89427 20.5919Z" fill="black"/>
<path fill-rule="evenodd" clip-rule="evenodd" d="M18.4286 10.9606H19.026C19.6623 10.9494 20.2767 11.1936 20.7316 11.6387C21.1866 12.0838 21.4442 12.6926 21.4469 13.3291V14.0522C21.4469 15.5282 20.2504 16.7247 18.7745 16.7247C17.2985 16.7247 16.102 15.5282 16.102 14.0522V13.3291C16.1018 12.0372 17.1369 10.9834 18.4286 10.9606ZM18.7325 15.1527C19.3403 15.1527 19.833 14.66 19.833 14.0522V13.3291C19.8272 12.8875 19.4676 12.5326 19.026 12.5326H18.4286C17.9887 12.5326 17.6321 12.8892 17.6321 13.3291V14.0522C17.6321 14.66 18.1248 15.1527 18.7325 15.1527Z" fill="black"/>
<path fill-rule="evenodd" clip-rule="evenodd" d="M20.5875 17.2697C21.6135 17.29 22.4864 18.0232 22.6836 19.0303L22.7779 19.5124C22.9142 20.1819 22.7451 20.8772 22.3168 21.4094C21.917 21.9087 21.311 22.1982 20.6714 22.1954H16.7832C16.1472 22.195 15.5458 21.9058 15.1483 21.4094C14.7121 20.881 14.5387 20.1835 14.6767 19.5124L14.7815 19.0303C14.975 18.0211 15.85 17.286 16.8775 17.2697H20.5875ZM20.6714 20.6233C20.8375 20.6163 20.9933 20.5404 21.1011 20.4137C21.2284 20.2466 21.278 20.033 21.2373 19.8268L21.143 19.3448C21.0946 19.0657 20.8599 18.8571 20.5771 18.8417H16.8775C16.5972 18.858 16.366 19.0673 16.3221 19.3448L16.2278 19.8268C16.1761 20.033 16.2268 20.2514 16.364 20.4137C16.465 20.5432 16.619 20.6202 16.7832 20.6233H20.6714Z" fill="black"/>
</svg>
