<svg width="24" height="24" viewBox="0 0 24 24" fill="none" xmlns="http://www.w3.org/2000/svg">
<path fill-rule="evenodd" clip-rule="evenodd" d="M21.45 10.1299V10.4099C21.9453 11.0319 22.146 11.8383 22 12.6199L19.92 19.1199C19.5115 20.1785 18.4947 20.8776 17.36 20.8799H4.7C3.21076 20.8476 2.01584 19.6394 2 18.1499V6.87988C1.99982 4.82819 3.64848 3.15724 5.7 3.12988H10C11.3807 3.12988 12.5 4.24917 12.5 5.62988C12.5 6.18217 12.9477 6.62988 13.5 6.62988H18C19.9134 6.65722 21.4502 8.21625 21.45 10.1299ZM5.7 4.62988C4.45736 4.62988 3.45 5.63724 3.45 6.87988V13.9999L4.52 11.2199C4.91802 10.1387 5.94784 9.42018 7.1 9.41988H19.35C19.523 9.40483 19.697 9.40483 19.87 9.41988C19.5751 8.64324 18.8308 8.12977 18 8.12988H13.5C12.1216 8.1244 11.0055 7.00832 11 5.62988C11 5.0776 10.5523 4.62988 10 4.62988H5.7Z" fill="black"/>
</svg>
