<svg width="24" height="24" viewBox="0 0 24 24" fill="none" xmlns="http://www.w3.org/2000/svg">
<path fill-rule="evenodd" clip-rule="evenodd" d="M6.40099 2.00001H10.3716C12.0947 2.00001 13.4914 3.50339 13.4914 5.3579C13.4914 5.41374 13.5121 5.46729 13.5487 5.50677C13.5854 5.54625 13.6352 5.56843 13.687 5.56843H17.599C20.0274 5.57422 21.9946 7.69159 22 10.3053V17.2632C21.9946 19.8768 20.0274 21.9942 17.599 22H6.40099C3.97039 22 2.00001 19.8792 2.00001 17.2632V6.73685C1.99741 5.47971 2.46024 4.27324 3.28615 3.38431C4.11206 2.49537 5.23298 1.99721 6.40099 2.00001ZM11.9951 5.3579C11.9951 4.37542 11.2551 3.57896 10.3423 3.57896H6.40099C4.78059 3.57896 3.467 4.99279 3.467 6.73685V17.2632C3.467 19.0072 4.78059 20.4211 6.40099 20.4211H17.5697C19.1901 20.4211 20.5037 19.0072 20.5037 17.2632V10.3053C20.5037 8.56121 19.1901 7.14738 17.5697 7.14738H13.6577C12.7395 7.14738 11.9951 6.3462 11.9951 5.3579Z" fill="black"/>
</svg>
