<svg width="24" height="24" viewBox="0 0 24 24" fill="none" xmlns="http://www.w3.org/2000/svg">
<path d="M5.88712 20.5647H11.8312C12.2647 20.5647 12.616 20.9161 12.616 21.3496C12.616 21.7831 12.2647 22.1345 11.8312 22.1345H5.88712C3.19043 22.1287 1.00577 19.944 1.00001 17.2474V6.90804C0.997233 5.60912 1.51056 4.3623 2.42707 3.44186C3.34359 2.52143 4.5882 2.00277 5.88712 2H9.92657C11.4466 2 12.6788 3.23223 12.6788 4.75227C12.6845 5.403 13.2106 5.92912 13.8614 5.9348H17.9008C20.5975 5.94056 22.7822 8.12522 22.7879 10.8219C22.7939 11.2648 22.4457 11.6316 22.0031 11.6486C21.7978 11.6572 21.598 11.5816 21.4499 11.4394C21.3017 11.2971 21.218 11.1006 21.2182 10.8952C21.2322 10.0044 20.8895 9.14496 20.2665 8.50816C19.6434 7.87136 18.7917 7.51001 17.9008 7.50454H13.8614C12.3413 7.50454 11.1091 6.2723 11.1091 4.75227C11.0922 4.10973 10.5693 3.59608 9.92657 3.59066H5.88712C4.05498 3.59066 2.56975 5.0759 2.56975 6.90804V17.2474C2.56975 19.0795 4.05498 20.5647 5.88712 20.5647Z" fill="black"/>
<path fill-rule="evenodd" clip-rule="evenodd" d="M22.631 13.4486C21.5018 12.3971 19.752 12.3971 18.6229 13.4486L14.5521 17.3415C14.2169 17.6591 13.9962 18.0785 13.9242 18.5345L13.5788 20.6275C13.5013 21.0657 13.6556 21.5129 13.987 21.8101C14.2458 22.0741 14.6009 22.2215 14.9707 22.2182H15.1799L17.3566 21.8833C17.8113 21.8087 18.2337 21.6011 18.5706 21.2868L22.631 17.3939C23.1886 16.8741 23.5068 16.147 23.51 15.3846C23.4991 14.6451 23.1806 13.9435 22.631 13.4486ZM21.4903 16.2637L17.4194 20.1566C17.3231 20.2449 17.2031 20.3031 17.0741 20.324L15.2113 20.6066L15.4939 18.8799C15.5136 18.7626 15.5727 18.6556 15.6613 18.5764L19.7217 14.6835C19.9809 14.4432 20.3206 14.3088 20.674 14.3067C20.9932 14.3001 21.3018 14.4206 21.5321 14.6416C21.7448 14.8388 21.8661 15.1155 21.867 15.4055C21.865 15.7313 21.7287 16.0417 21.4903 16.2637Z" fill="black"/>
</svg>
