<svg width="24" height="24" viewBox="0 0 24 24" fill="none" xmlns="http://www.w3.org/2000/svg">
<path fill-rule="evenodd" clip-rule="evenodd" d="M18.9487 6.19361H13.9268C12.7688 6.19361 11.83 5.25484 11.83 4.09681C11.83 2.93877 10.8912 2 9.73321 2H4.71136C2.6681 2.00572 1.01152 3.65763 1.00001 5.70086V18.1244C0.99722 19.1096 1.38734 20.0552 2.08396 20.7518C2.78058 21.4485 3.7262 21.8386 4.71136 21.8358H18.9487C20.9984 21.8358 22.66 20.1742 22.66 18.1244V9.91544C22.66 7.86402 21.0001 6.19939 18.9487 6.19361ZM15.3736 12.9558C15.3793 12.0839 16.0848 11.3784 16.9567 11.3727H17.5648C17.9874 11.3699 18.3939 11.5352 18.6947 11.832C18.9955 12.1289 19.1661 12.5332 19.1688 12.9558V13.6792C19.1688 14.7214 18.3239 15.5663 17.2817 15.5663C16.2395 15.5663 15.3946 14.7214 15.3946 13.6792L15.3736 12.9558ZM15.3107 19.739H19.1688C19.5983 19.737 20.0037 19.5401 20.2708 19.2037C20.5378 18.8673 20.6377 18.4279 20.5422 18.0091L20.4374 17.5268C20.322 16.8793 19.7636 16.4044 19.1059 16.3946H15.4156C14.7563 16.4003 14.1956 16.8771 14.0841 17.5268L13.9792 18.0091C13.8851 18.4208 13.9798 18.8531 14.2374 19.1877C14.495 19.5224 14.8886 19.7246 15.3107 19.739Z" fill="black"/>
</svg>
