<svg width="24" height="24" viewBox="0 0 24 24" fill="none" xmlns="http://www.w3.org/2000/svg">
<path d="M8.54994 10.3901V12.8901H12.1099C11.664 14.4734 10.1939 15.5471 8.54994 15.4901C6.79536 15.4994 5.24491 14.3503 4.74353 12.6688C4.24216 10.9874 4.91006 9.17674 6.38325 8.22366C7.85643 7.27058 9.78174 7.40354 11.1099 8.55007L12.9499 6.71007C10.7902 4.7384 7.58399 4.44018 5.09765 5.97968C2.6113 7.51919 1.44919 10.5222 2.25151 13.3344C3.05383 16.1465 5.62556 18.0843 8.54994 18.0801C14.0399 18.0801 15.2499 12.9501 14.7099 10.4001L8.54994 10.3901Z" fill="black"/>
<path d="M22.0799 10.8201H19.9999V8.74007H18.5399V10.8201H16.4699V12.2701H18.5399V14.3501H19.9999V12.2701H22.0799V10.8201Z" fill="black"/>
</svg>
