<svg width="24" height="24" viewBox="0 0 24 24" fill="none" xmlns="http://www.w3.org/2000/svg">
<path d="M12.1 20.8C11.6 20.8 11 20.6 10.6 20.2C4.1 14.5 4 14.4 4 14.3L3.9 14.2C2.7 13 2 11.3 2 9.6V9.4C2.1 5.8 5 3 8.6 3C9.7 3 11.2 3.6 12.1 4.8C13 3.6 14.6 3 15.7 3C19.3 3 22.1 5.8 22.3 9.4V9.6C22.3 11.4 21.6 13 20.4 14.3L20.3 14.4C20.2 14.5 19.4 15.2 13.7 20.3C13.2 20.6 12.7 20.8 12.1 20.8ZM5.5 14C5.9 14.4 7.9 15.8 11.6 19C11.9 19.3 12.3 19.3 12.6 19C16.4 15.6 18.6 13.7 19.1 13.3L19.2 13.2C20.2 12.2 20.7 10.9 20.7 9.6V9.4C20.6 6.6 18.4 4.5 15.6 4.5C14.9 4.5 13.5 5 13 6.1C12.8 6.5 12.4 6.7 12 6.7C11.6 6.7 11.2 6.5 11 6.1C10.5 5.1 9.2 4.5 8.4 4.5C5.7 4.5 3.4 6.7 3.3 9.4V9.7C3.3 11 3.9 12.3 4.8 13.2L5.5 14Z" fill="black"/>
</svg>
