<svg width="24" height="24" viewBox="0 0 24 24" fill="none" xmlns="http://www.w3.org/2000/svg">
<path fill-rule="evenodd" clip-rule="evenodd" d="M14.4537 3.8032L19.4558 7.49793C20.4198 8.1956 20.9934 9.31112 21 10.5011V17.1895C20.938 19.3342 19.1566 21.0268 17.0116 20.979H6.99789C4.8492 21.032 3.06195 19.338 3 17.1895V10.5011C3.00659 9.31112 3.58019 8.1956 4.54421 7.49793L9.54632 3.8032C11.0068 2.73227 12.9932 2.73227 14.4537 3.8032ZM7.73684 16.9716H16.2632C16.6556 16.9716 16.9737 16.6535 16.9737 16.2611C16.9737 15.8687 16.6556 15.5506 16.2632 15.5506H7.73684C7.34443 15.5506 7.02632 15.8687 7.02632 16.2611C7.02632 16.6535 7.34443 16.9716 7.73684 16.9716Z" fill="black"/>
</svg>
