<svg width="24" height="24" viewBox="0 0 24 24" fill="none" xmlns="http://www.w3.org/2000/svg">
<path fill-rule="evenodd" clip-rule="evenodd" d="M18.0025 4H5.00247C3.27409 4.08106 1.93465 5.54105 2.00247 7.27V12.73C1.93465 14.4589 3.27409 15.9189 5.00247 16H8.76247C8.65347 16.6386 8.49295 17.2673 8.28247 17.88L7.94247 18.82C7.84025 19.071 7.86233 19.3555 8.00206 19.5877C8.14179 19.82 8.38281 19.9727 8.65247 20H14.3625C14.6323 19.974 14.8735 19.8208 15.0119 19.5876C15.1502 19.3544 15.169 19.0693 15.0625 18.82L14.7325 17.88C14.5129 17.2701 14.3522 16.6405 14.2525 16H18.0025C19.7308 15.9189 21.0703 14.4589 21.0025 12.73V7.27C21.0703 5.54105 19.7308 4.08106 18.0025 4ZM10.9325 14.08C10.9325 13.6658 11.2683 13.33 11.6825 13.33C12.0967 13.33 12.4325 13.6658 12.4325 14.08C12.4325 14.4942 12.0967 14.83 11.6825 14.83C11.2683 14.83 10.9325 14.4942 10.9325 14.08ZM4.50247 12.47H18.5025V12.5C18.9167 12.5 19.2525 12.1642 19.2525 11.75C19.2525 11.3358 18.9167 11 18.5025 11H4.50247C4.20447 10.9395 3.89944 11.0649 3.73017 11.3175C3.5609 11.5701 3.5609 11.8999 3.73017 12.1525C3.89944 12.4051 4.20447 12.5305 4.50247 12.47Z" fill="black"/>
</svg>
