<svg width="24" height="24" viewBox="0 0 24 24" fill="none" xmlns="http://www.w3.org/2000/svg">
<path fill-rule="evenodd" clip-rule="evenodd" d="M18.4995 4.41992H5.49954C3.77116 4.50099 2.43172 5.96098 2.49954 7.68992V13.1499C2.43172 14.8789 3.77116 16.3389 5.49954 16.4199H9.23954C9.13707 17.058 8.98324 17.6867 8.77954 18.2999L8.43954 19.2399C8.33732 19.4909 8.3594 19.7754 8.49913 20.0077C8.63886 20.2399 8.87989 20.3927 9.14954 20.4199H14.8495C15.1192 20.3927 15.3602 20.2399 15.4999 20.0077C15.6397 19.7754 15.6618 19.4909 15.5595 19.2399L15.2195 18.2999C15.0158 17.6867 14.862 17.058 14.7595 16.4199H18.4995C20.2279 16.3389 21.5674 14.8789 21.4995 13.1499V7.68992C21.5674 5.96098 20.2279 4.50099 18.4995 4.41992ZM10.1495 18.9199V18.7999C10.3663 18.1877 10.5336 17.559 10.6495 16.9199H13.2695C13.3902 17.5579 13.5573 18.1863 13.7695 18.7999V18.9199H10.1495ZM18.4995 14.9199C19.3973 14.8353 20.0633 14.0494 19.9995 13.1499V7.68992C20.0633 6.79044 19.3973 6.00458 18.4995 5.91992H5.49954C4.60178 6.00458 3.9358 6.79044 3.99954 7.68992V13.1499C3.9358 14.0494 4.60178 14.8353 5.49954 14.9199H18.4995Z" fill="black"/>
</svg>
