<svg width="24" height="24" viewBox="0 0 24 24" fill="none" xmlns="http://www.w3.org/2000/svg">
<path d="M8.12 10.08C9.22457 10.08 10.12 9.18457 10.12 8.08C10.12 6.97543 9.22457 6.08 8.12 6.08C7.01543 6.08 6.12 6.97543 6.12 8.08C6.12 9.18457 7.01543 10.08 8.12 10.08Z" fill="black"/>
<path fill-rule="evenodd" clip-rule="evenodd" d="M14.24 2H10C5.58172 2 2 5.58172 2 10V14.24C2 18.6583 5.58172 22.24 10 22.24H14.24C18.6583 22.24 22.24 18.6583 22.24 14.24V10C22.24 7.87827 21.3971 5.84344 19.8969 4.34315C18.3966 2.84285 16.3617 2 14.24 2ZM10 3.5H14.24C17.4859 3.50507 20.2306 5.90396 20.67 9.12H19.12C14.9468 9.1234 11.0879 11.3382 8.98 14.94C7.66362 13.8943 6.03116 13.3267 4.35 13.33H3.5V10C3.50551 6.41243 6.41243 3.50551 10 3.5ZM4.35 14.83H3.53C3.74723 17.1883 5.22988 19.2418 7.4 20.19C7.47167 18.8552 7.77274 17.5426 8.29 16.31C7.19845 15.3571 5.79895 14.8314 4.35 14.83ZM14.24 20.74H10C9.62404 20.7385 9.24906 20.7017 8.88 20.63C9.00486 15.0613 13.55 10.6095 19.12 10.6H20.74V14.24C20.7345 17.8276 17.8276 20.7345 14.24 20.74Z" fill="black"/>
</svg>
