<svg width="24" height="24" viewBox="0 0 24 24" fill="none" xmlns="http://www.w3.org/2000/svg">
<path d="M11.79 8.04C11.4065 8.08421 11.117 8.40894 11.117 8.795C11.117 9.18106 11.4065 9.50579 11.79 9.55C11.9915 9.5528 12.1854 9.47329 12.327 9.32985C12.4685 9.18641 12.5455 8.99145 12.54 8.79C12.5346 8.37804 12.202 8.04539 11.79 8.04Z" fill="black"/>
<path d="M11.79 10.92C11.5903 10.9173 11.3979 10.9954 11.2567 11.1367C11.1154 11.2779 11.0373 11.4703 11.04 11.67V14.79C11.04 15.2042 11.3758 15.54 11.79 15.54C12.2042 15.54 12.54 15.2042 12.54 14.79V11.69C12.5454 11.4876 12.4688 11.2917 12.3275 11.1467C12.1863 11.0017 11.9924 10.9199 11.79 10.92Z" fill="black"/>
<path fill-rule="evenodd" clip-rule="evenodd" d="M11.79 2C6.38542 2.00551 2.00551 6.38542 2 11.79C2 17.1969 6.38313 21.58 11.79 21.58C17.1969 21.58 21.58 17.1969 21.58 11.79C21.5745 6.38542 17.1946 2.00551 11.79 2ZM11.79 20.08C7.21156 20.08 3.5 16.3684 3.5 11.79C3.5 7.21156 7.21156 3.5 11.79 3.5C16.3684 3.5 20.08 7.21156 20.08 11.79C20.0745 16.3662 16.3662 20.0745 11.79 20.08Z" fill="black"/>
</svg>
