<svg width="24" height="24" viewBox="0 0 24 24" fill="none" xmlns="http://www.w3.org/2000/svg">
<path fill-rule="evenodd" clip-rule="evenodd" d="M18.7135 3C19.9865 3.07812 21.0343 4.03026 21.2335 5.29L21.9135 17.1C22.0535 19.54 20.4235 21.54 18.3635 21.54H5.57352C3.47352 21.54 1.83352 19.45 2.01352 17.01L2.88352 5.29C3.08275 4.03026 4.13052 3.07812 5.40352 3H18.7135ZM16.8635 14.13H18.7135L18.6135 14.17C19.0056 14.17 19.3235 13.8521 19.3235 13.46C19.3235 13.0679 19.0056 12.75 18.6135 12.75H16.7635C15.4721 12.815 14.3203 13.5829 13.7635 14.75C13.4047 15.477 12.6642 15.9372 11.8535 15.9372C11.0428 15.9372 10.3024 15.477 9.94352 14.75C9.39024 13.5799 8.2364 12.8107 6.94352 12.75H5.21352C4.8214 12.75 4.50352 13.0679 4.50352 13.46C4.50352 13.8521 4.8214 14.17 5.21352 14.17H6.94352C7.72361 14.1994 8.4237 14.6572 8.76352 15.36C9.37072 16.5461 10.591 17.2923 11.9235 17.2923C13.256 17.2923 14.4763 16.5461 15.0835 15.36C15.4055 14.6538 16.0891 14.1814 16.8635 14.13Z" fill="black"/>
</svg>
