<svg width="24" height="24" viewBox="0 0 24 24" fill="none" xmlns="http://www.w3.org/2000/svg">
<path fill-rule="evenodd" clip-rule="evenodd" d="M8 2H15.7C19.0137 2 21.7 4.68629 21.7 8V15.7C21.7 19.0137 19.0137 21.7 15.7 21.7H8C4.68629 21.7 2 19.0137 2 15.7V8C2 4.68629 4.68629 2 8 2ZM20.2 8C20.1945 5.517 18.183 3.5055 15.7 3.5H8C5.517 3.5055 3.5055 5.517 3.5 8V15.7C3.5055 18.183 5.517 20.1945 8 20.2H15.7C18.183 20.1945 20.1945 18.183 20.2 15.7V8Z" fill="black"/>
<path fill-rule="evenodd" clip-rule="evenodd" d="M7.55 11.85C7.5555 9.47746 9.47746 7.5555 11.85 7.55C14.2225 7.5555 16.1445 9.47746 16.15 11.85C16.15 14.2248 14.2248 16.15 11.85 16.15C9.47518 16.15 7.55 14.2248 7.55 11.85ZM14.65 11.85C14.65 10.3036 13.3964 9.05 11.85 9.05C10.3059 9.05549 9.05549 10.3059 9.05 11.85C9.05 13.3964 10.3036 14.65 11.85 14.65C13.3964 14.65 14.65 13.3964 14.65 11.85Z" fill="black"/>
<path d="M15.51 6.505C15.51 5.90577 15.9958 5.42 16.595 5.42C17.1942 5.42 17.68 5.90577 17.68 6.505C17.68 7.10423 17.1942 7.59 16.595 7.59C15.9958 7.59 15.51 7.10423 15.51 6.505Z" fill="black"/>
</svg>
