<svg width="24" height="24" viewBox="0 0 24 24" fill="none" xmlns="http://www.w3.org/2000/svg">
<path fill-rule="evenodd" clip-rule="evenodd" d="M21.2334 5.29C21.0342 4.03026 19.9865 3.07812 18.7134 3H5.40345C4.13045 3.07812 3.08268 4.03026 2.88345 5.29L2.01345 17.01C1.83345 19.45 3.48345 21.54 5.57345 21.54H18.3634C20.4234 21.54 22.0534 19.54 21.9134 17.1L21.2334 5.29ZM5.40345 4.54H18.7134C19.2257 4.62644 19.627 5.02776 19.7134 5.54L20.1334 12.7H16.8634C15.5508 12.7455 14.3719 13.516 13.8034 14.7C13.4484 15.4133 12.7202 15.8643 11.9234 15.8643C11.1267 15.8643 10.3985 15.4133 10.0434 14.7C9.47672 13.5144 8.2968 12.7432 6.98345 12.7H3.84345L4.37345 5.55C4.4626 5.0262 4.87801 4.61886 5.40345 4.54ZM18.3634 20.04C18.8606 20.026 19.3303 19.8092 19.6634 19.44C20.1994 18.8266 20.463 18.0216 20.3934 17.21L20.2234 14.21H16.8434C16.0875 14.2614 15.4201 14.7217 15.1034 15.41C14.4943 16.6151 13.2588 17.375 11.9084 17.375C10.5581 17.375 9.32263 16.6151 8.71345 15.41C8.39335 14.7202 7.72229 14.26 6.96345 14.21H3.73345L3.51345 17.12C3.4389 17.9552 3.70587 18.785 4.25345 19.42C4.58779 19.8016 5.06626 20.0264 5.57345 20.04H18.3634Z" fill="black"/>
</svg>
