<svg width="24" height="24" viewBox="0 0 24 24" fill="none" xmlns="http://www.w3.org/2000/svg">
<path fill-rule="evenodd" clip-rule="evenodd" d="M8.36167 2.00041H16.6383C17.2551 1.98882 17.851 2.2235 18.2942 2.6525C18.7375 3.0815 18.9915 3.66945 19 4.28624V20.2979C18.9763 21.5801 17.9206 22.6019 16.6383 22.5837H8.36167C7.07941 22.6019 6.02373 21.5801 6 20.2979V4.28624C6.02373 3.00408 7.07941 1.9823 8.36167 2.00041ZM10.875 5.25041H14.125C14.5737 5.25041 14.9375 4.88664 14.9375 4.43791C14.9375 3.98918 14.5737 3.62541 14.125 3.62541H10.875C10.4263 3.62541 10.0625 3.98918 10.0625 4.43791C10.0625 4.88664 10.4263 5.25041 10.875 5.25041Z" fill="black"/>
</svg>
