<svg width="24" height="24" viewBox="0 0 24 24" fill="none" xmlns="http://www.w3.org/2000/svg">
<path d="M12.5 19C13.0523 19 13.5 18.5523 13.5 18C13.5 17.4477 13.0523 17 12.5 17C11.9477 17 11.5 17.4477 11.5 18C11.5 18.5523 11.9477 19 12.5 19Z" fill="black"/>
<path fill-rule="evenodd" clip-rule="evenodd" d="M18 2H7C5.89543 2 5 2.89543 5 4V20C5 21.1046 5.89543 22 7 22H18C19.1046 22 20 21.1046 20 20V4C20 3.46957 19.7893 2.96086 19.4142 2.58579C19.0391 2.21071 18.5304 2 18 2ZM18.36 20C18.36 20.1988 18.1988 20.36 18 20.36H7C6.80118 20.36 6.64 20.1988 6.64 20V4C6.64 3.90452 6.67793 3.81295 6.74544 3.74544C6.81295 3.67793 6.90452 3.64 7 3.64H18C18.1988 3.64 18.36 3.80118 18.36 4V20Z" fill="black"/>
</svg>
