<svg width="24" height="24" viewBox="0 0 24 24" fill="none" xmlns="http://www.w3.org/2000/svg">
<path fill-rule="evenodd" clip-rule="evenodd" d="M16.6383 2.00024H8.36167C7.07941 1.98212 6.02373 3.00391 6 4.28607V20.2977C6.02373 21.5799 7.07941 22.6017 8.36167 22.5836H16.6383C17.9206 22.6017 18.9763 21.5799 19 20.2977V4.28607C18.9763 3.00391 17.9206 1.98212 16.6383 2.00024ZM11.1458 3.62524H13.8542V4.1669C13.8542 4.31648 13.7329 4.43774 13.5833 4.43774H11.4167C11.2671 4.43774 11.1458 4.31648 11.1458 4.1669V3.62524ZM16.6383 20.9586C17.0234 20.9771 17.3517 20.6825 17.375 20.2977V4.28607C17.3517 3.90129 17.0234 3.60674 16.6383 3.62524H15.4792V4.1669C15.4792 4.66971 15.2794 5.15192 14.9239 5.50746C14.5684 5.863 14.0861 6.06274 13.5833 6.06274H11.4167C10.3696 6.06274 9.52083 5.21394 9.52083 4.1669V3.62524H8.36167C7.97662 3.60674 7.64828 3.90129 7.625 4.28607V20.2977C7.64828 20.6825 7.97662 20.9771 8.36167 20.9586H16.6383Z" fill="black"/>
</svg>
