<svg width="24" height="24" viewBox="0 0 24 24" fill="none" xmlns="http://www.w3.org/2000/svg">
<path fill-rule="evenodd" clip-rule="evenodd" d="M4.85714 4H19.1429C20.7208 4 22 5.34315 22 7V17C22 18.6569 20.7208 20 19.1429 20H4.85714C3.27919 20 2 18.6569 2 17V7C2 5.34315 3.27919 4 4.85714 4ZM19.1426 18.4899C19.9264 18.4899 20.5617 17.8228 20.5617 16.9999V6.99989C20.5643 6.5995 20.4133 6.21486 20.1428 5.93267C19.8722 5.65049 19.5049 5.49451 19.1236 5.49989H4.83789C4.45987 5.49988 4.09748 5.65824 3.83109 5.93983C3.56469 6.22143 3.4163 6.60299 3.41884 6.99989V16.9999C3.4188 17.3986 3.57092 17.7806 3.84118 18.0606C4.11144 18.3406 4.47729 18.4952 4.85693 18.4899H19.1426Z" fill="black"/>
<path d="M5.32403 11.9524C5.32403 11.4264 5.75043 11 6.27641 11C6.8024 11 7.22879 11.4264 7.22879 11.9524V12.0476C7.22879 12.5736 6.8024 13 6.27641 13C5.75043 13 5.32403 12.5736 5.32403 12.0476V11.9524Z" fill="black"/>
<path d="M9.13356 11.9524C9.13356 11.4264 9.55995 11 10.0859 11C10.6119 11 11.0383 11.4264 11.0383 11.9524V12.0476C11.0383 12.5736 10.6119 13 10.0859 13C9.55995 13 9.13356 12.5736 9.13356 12.0476V11.9524Z" fill="black"/>
<path d="M12.9431 11.9524C12.9431 11.4264 13.3695 11 13.8955 11C14.4214 11 14.8478 11.4264 14.8478 11.9524V12.0476C14.8478 12.5736 14.4214 13 13.8955 13C13.3695 13 12.9431 12.5736 12.9431 12.0476V11.9524Z" fill="black"/>
<path d="M16.7526 11.9524C16.7526 11.4264 17.179 11 17.705 11C18.231 11 18.6574 11.4264 18.6574 11.9524V12.0476C18.6574 12.5736 18.231 13 17.705 13C17.179 13 16.7526 12.5736 16.7526 12.0476V11.9524Z" fill="black"/>
<path d="M5.32403 7.95238C5.32403 7.4264 5.75043 7 6.27641 7C6.8024 7 7.22879 7.4264 7.22879 7.95238V8.04762C7.22879 8.5736 6.8024 9 6.27641 9C5.75043 9 5.32403 8.5736 5.32403 8.04762V7.95238Z" fill="black"/>
<path d="M9.13356 7.95238C9.13356 7.4264 9.55995 7 10.0859 7C10.6119 7 11.0383 7.4264 11.0383 7.95238V8.04762C11.0383 8.5736 10.6119 9 10.0859 9C9.55995 9 9.13356 8.5736 9.13356 8.04762V7.95238Z" fill="black"/>
<path d="M12.9431 7.95238C12.9431 7.4264 13.3695 7 13.8955 7C14.4214 7 14.8478 7.4264 14.8478 7.95238V8.04762C14.8478 8.5736 14.4214 9 13.8955 9C13.3695 9 12.9431 8.5736 12.9431 8.04762V7.95238Z" fill="black"/>
<path d="M16.7526 7.95238C16.7526 7.4264 17.179 7 17.705 7C18.231 7 18.6574 7.4264 18.6574 7.95238V8.04762C18.6574 8.5736 18.231 9 17.705 9C17.179 9 16.7526 8.5736 16.7526 8.04762V7.95238Z" fill="black"/>
<path d="M7.70499 15.96C7.70499 15.4298 8.13479 15 8.66499 15H15.3164C15.8466 15 16.2764 15.4298 16.2764 15.96V16.04C16.2764 16.5702 15.8466 17 15.3164 17H8.66498C8.13479 17 7.70499 16.5702 7.70499 16.04V15.96Z" fill="black"/>
</svg>
