<svg width="24" height="24" viewBox="0 0 24 24" fill="none" xmlns="http://www.w3.org/2000/svg">
<path fill-rule="evenodd" clip-rule="evenodd" d="M4.85714 4H19.1429C20.7208 4 22 5.34315 22 7V17C22 18.6569 20.7208 20 19.1429 20H4.85714C3.27919 20 2 18.6569 2 17V7C2 5.34315 3.27919 4 4.85714 4ZM13.8955 7C13.3695 7 12.9431 7.44772 12.9431 8C12.9431 8.55228 13.3695 9 13.8955 9C14.4214 9 14.8478 8.55228 14.8478 8C14.8478 7.44772 14.4214 7 13.8955 7ZM12.9431 12C12.9431 11.4477 13.3695 11 13.8955 11C14.4214 11 14.8478 11.4477 14.8478 12C14.8478 12.5523 14.4214 13 13.8955 13C13.3695 13 12.9431 12.5523 12.9431 12ZM10.0859 7C9.55995 7 9.13356 7.44772 9.13356 8C9.13356 8.55228 9.55995 9 10.0859 9C10.6119 9 11.0383 8.55228 11.0383 8C11.0383 7.44772 10.6119 7 10.0859 7ZM9.13356 12C9.13356 11.4477 9.55995 11 10.0859 11C10.6119 11 11.0383 11.4477 11.0383 12C11.0383 12.5523 10.6119 13 10.0859 13C9.55995 13 9.13356 12.5523 9.13356 12ZM6.27641 13C6.8024 13 7.22879 12.5523 7.22879 12C7.22879 11.4477 6.8024 11 6.27641 11C5.75043 11 5.32403 11.4477 5.32403 12C5.32403 12.5523 5.75043 13 6.27641 13ZM7.22879 8C7.22879 8.55228 6.8024 9 6.27641 9C5.75043 9 5.32403 8.55228 5.32403 8C5.32403 7.44772 5.75043 7 6.27641 7C6.8024 7 7.22879 7.44772 7.22879 8ZM15.324 17C15.85 17 16.2764 16.5523 16.2764 16H16.3145C16.3145 15.4477 15.8881 15 15.3621 15H8.61923C8.09325 15 7.66685 15.4477 7.66685 16C7.66685 16.5523 8.09325 17 8.61923 17H15.324ZM18.6574 12C18.6574 12.5523 18.231 13 17.705 13C17.179 13 16.7526 12.5523 16.7526 12C16.7526 11.4477 17.179 11 17.705 11C18.231 11 18.6574 11.4477 18.6574 12ZM17.705 9C18.231 9 18.6574 8.55228 18.6574 8C18.6574 7.44772 18.231 7 17.705 7C17.179 7 16.7526 7.44772 16.7526 8C16.7526 8.55228 17.179 9 17.705 9Z" fill="black"/>
</svg>
