<svg width="24" height="24" viewBox="0 0 24 24" fill="none" xmlns="http://www.w3.org/2000/svg">
<path d="M3 5.25977C3 4.01713 4.00736 3.00977 5.25 3.00977H8.34C9.58264 3.00977 10.59 4.01713 10.59 5.25977V8.34976C10.59 9.59241 9.58264 10.5998 8.34 10.5998H5.25C4.00736 10.5998 3 9.59241 3 8.34977V5.25977Z" fill="black"/>
<path d="M13.41 5.25977C13.41 4.01713 14.4174 3.00977 15.66 3.00977H18.75C19.9926 3.00977 21 4.01713 21 5.25977V8.34976C21 9.59241 19.9926 10.5998 18.75 10.5998H15.66C14.4174 10.5998 13.41 9.59241 13.41 8.34977V5.25977Z" fill="black"/>
<path d="M3 15.6598C3 14.4171 4.00736 13.4098 5.25 13.4098H8.34C9.58264 13.4098 10.59 14.4171 10.59 15.6598V18.7498C10.59 19.9924 9.58264 20.9998 8.34 20.9998H5.25C4.00736 20.9998 3 19.9924 3 18.7498V15.6598Z" fill="black"/>
<path d="M13.41 15.6598C13.41 14.4171 14.4174 13.4098 15.66 13.4098H18.75C19.9926 13.4098 21 14.4171 21 15.6598V18.7498C21 19.9924 19.9926 20.9998 18.75 20.9998H15.66C14.4174 20.9998 13.41 19.9924 13.41 18.7498V15.6598Z" fill="black"/>
</svg>
