<svg width="24" height="24" viewBox="0 0 24 24" fill="none" xmlns="http://www.w3.org/2000/svg">
<path fill-rule="evenodd" clip-rule="evenodd" d="M17.9745 16.977C17.9761 17.1751 17.9123 17.232 17.7196 17.2275C17.1721 17.217 16.6245 17.2087 16.0778 17.2305C15.8033 17.2417 15.7207 17.1705 15.7245 16.8848C15.7411 15.654 15.7305 14.4225 15.7327 13.1911C15.7327 12.8536 15.7103 12.5191 15.5865 12.201C15.3765 11.664 15.0142 11.3003 14.4136 11.2477C13.7745 11.1915 13.3103 11.4825 12.9968 12.0218C12.7913 12.3751 12.7441 12.7695 12.7448 13.173C12.7478 14.4172 12.7381 15.6607 12.7522 16.9042C12.7561 17.1721 12.6742 17.2387 12.4177 17.2297C11.871 17.211 11.3235 17.2156 10.7761 17.2283C10.5661 17.2335 10.5022 17.1705 10.5022 16.9575C10.5091 14.3955 10.5082 11.8335 10.5038 9.27156C10.5038 9.08781 10.5413 9.00524 10.7482 9.00981C11.3325 9.02249 11.9175 9.02249 12.5017 9.00981C12.7042 9.00606 12.7575 9.07949 12.7492 9.26856C12.7365 9.57531 12.7462 9.88274 12.7462 10.2697C13.6126 9.19874 14.6557 8.84706 15.8948 9.09681C17.0948 9.33899 17.9205 10.4191 17.955 11.8658C17.9955 13.5682 17.9656 15.273 17.9745 16.977ZM7.89081 8.05656C7.16398 8.05499 6.59548 7.47899 6.59706 6.74706C6.59848 6.02399 7.18431 5.43456 7.89823 5.43599C8.61306 5.43824 9.19356 6.02999 9.19131 6.75374C9.18973 7.48731 8.61981 8.05799 7.89081 8.05656ZM8.69481 17.2305C8.14874 17.2087 7.60056 17.217 7.05381 17.2275C6.85799 17.2313 6.76956 17.1952 6.77024 16.9672C6.77781 14.4067 6.77699 11.8471 6.77099 9.28649C6.77024 9.08106 6.81981 9.00374 7.03874 9.00981C7.59756 9.02399 8.15774 9.02781 8.71581 9.00824C8.97299 8.99924 9.02024 9.09449 9.01881 9.32699C9.00906 10.5945 9.01424 11.862 9.01424 13.1302C9.01424 14.385 9.00681 15.6406 9.01956 16.896C9.02256 17.151 8.96399 17.2411 8.69481 17.2305ZM20.9182 6.03756C20.8672 5.63024 20.8605 5.21099 20.6355 4.84656C19.9073 3.66531 18.9022 2.99249 17.4615 3.00006C13.8166 3.01881 10.1716 3.00006 6.52649 3.01281C5.97906 3.01424 5.41581 3.03224 4.91856 3.32624C3.70498 4.04474 2.99248 5.04899 3.00006 6.52124C3.01723 10.1783 3.00006 13.8352 3.01198 17.493C3.01423 18.0082 3.02181 18.5475 3.29173 19.0117C3.92923 20.1098 4.76931 20.9251 6.14924 20.9197C6.18899 20.9197 6.21981 20.9385 6.25281 20.9557H17.7466C17.8103 20.8987 17.8883 20.9272 17.9603 20.9182C18.3735 20.8665 18.8003 20.8642 19.167 20.6272C20.1922 19.9642 20.946 19.1295 20.9228 17.8102C20.9228 17.787 20.9392 17.7661 20.9566 17.7466V6.25281C20.9055 6.18756 20.9272 6.11024 20.9182 6.03756Z" fill="black"/>
</svg>
