<svg width="24" height="24" viewBox="0 0 24 24" fill="none" xmlns="http://www.w3.org/2000/svg">
<path d="M11.949 8.5C11.5371 8.49461 11.2044 8.16196 11.199 7.75V2.75C11.199 2.33579 11.5348 2 11.949 2C12.3632 2 12.699 2.33579 12.699 2.75V7.75C12.6936 8.16196 12.361 8.49461 11.949 8.5Z" fill="black"/>
<path d="M11.949 22.5C11.5371 22.4946 11.2044 22.162 11.199 21.75V16.75C11.199 16.3358 11.5348 16 11.949 16C12.3632 16 12.699 16.3358 12.699 16.75V21.75C12.6936 22.162 12.361 22.4946 11.949 22.5Z" fill="black"/>
<path d="M9.36904 9.31C9.12231 9.31181 8.89049 9.19215 8.74903 8.99L5.88903 4.9C5.77279 4.73718 5.72642 4.53467 5.76022 4.33749C5.79402 4.14031 5.9052 3.96481 6.06903 3.85C6.40182 3.6478 6.8336 3.72984 7.06903 4.04L9.94904 8.13C10.1169 8.35682 10.1411 8.65933 10.0115 8.90998C9.88196 9.16062 9.62113 9.31577 9.33904 9.31H9.36904Z" fill="black"/>
<path d="M17.399 20.78C17.1523 20.7818 16.9205 20.6622 16.779 20.46L13.949 16.37C13.7116 16.0303 13.7944 15.5625 14.134 15.325C14.4737 15.0875 14.9416 15.1703 15.179 15.51L18.039 19.6C18.2069 19.8268 18.2311 20.1293 18.1015 20.38C17.972 20.6306 17.7111 20.7858 17.429 20.78H17.399Z" fill="black"/>
<path d="M7.71904 11.46C7.63292 11.4738 7.54515 11.4738 7.45904 11.46L2.76904 9.71C2.57406 9.64058 2.41584 9.49464 2.33091 9.30591C2.24598 9.11717 2.24169 8.90197 2.31904 8.71C2.38557 8.51312 2.53183 8.35329 2.72206 8.26959C2.91228 8.18589 3.12893 8.18604 3.31904 8.27L7.94904 10.01C8.2848 10.1391 8.48164 10.4884 8.41815 10.8424C8.35466 11.1965 8.04873 11.4556 7.68904 11.46H7.71904Z" fill="black"/>
<path d="M20.879 16.25C20.7902 16.2479 20.7023 16.231 20.619 16.2L15.949 14.49C15.7522 14.423 15.5921 14.2774 15.5068 14.0878C15.4214 13.8982 15.4187 13.6817 15.499 13.49C15.5685 13.295 15.7144 13.1368 15.9031 13.0519C16.0919 12.9669 16.3071 12.9627 16.499 13.04L21.189 14.75C21.384 14.8194 21.5422 14.9654 21.6272 15.1541C21.7121 15.3428 21.7164 15.558 21.639 15.75C21.5272 16.0688 21.2161 16.2735 20.879 16.25Z" fill="black"/>
<path d="M2.76904 15.46C2.38462 15.4697 2.05513 15.1871 2.00617 14.8057C1.9572 14.4243 2.20463 14.0677 2.57904 13.98L7.40904 12.69C7.60133 12.6381 7.80637 12.6648 7.97896 12.7642C8.15155 12.8636 8.2775 13.0276 8.32904 13.22C8.43138 13.6197 8.19614 14.028 7.79904 14.14L2.94904 15.43C2.89063 15.4479 2.8301 15.458 2.76904 15.46Z" fill="black"/>
<path d="M16.299 11.84C15.9575 11.8386 15.6589 11.6095 15.569 11.28C15.5171 11.0877 15.5438 10.8827 15.6432 10.7101C15.7426 10.5375 15.9066 10.4115 16.099 10.36L20.949 9.07C21.3494 8.9623 21.7613 9.19959 21.869 9.6C21.9767 10.0004 21.7394 10.4123 21.339 10.52L16.509 11.81C16.4412 11.8318 16.3702 11.8419 16.299 11.84Z" fill="black"/>
<path d="M5.83904 20.25C5.54919 20.2476 5.28669 20.0784 5.16481 19.8154C5.04294 19.5524 5.08352 19.2427 5.26904 19.02L8.47904 15.25C8.75152 14.9415 9.21844 14.9019 9.53904 15.16C9.69206 15.2883 9.7876 15.4723 9.8045 15.6713C9.82139 15.8703 9.75824 16.0677 9.62904 16.22L6.41904 20.01C6.27089 20.1721 6.0584 20.26 5.83904 20.25Z" fill="black"/>
<path d="M14.839 9.55C14.6637 9.55369 14.493 9.49324 14.359 9.38C14.206 9.25171 14.1105 9.06769 14.0936 8.86872C14.0767 8.66975 14.1398 8.47225 14.269 8.32L17.479 4.49C17.6073 4.33698 17.7913 4.24144 17.9903 4.22454C18.1893 4.20765 18.3868 4.2708 18.539 4.4C18.8252 4.65889 18.8643 5.09418 18.629 5.4L15.419 9.25C15.2798 9.43108 15.0673 9.54099 14.839 9.55Z" fill="black"/>
<path d="M11.949 8.5C11.5371 8.49461 11.2044 8.16196 11.199 7.75V2.75C11.199 2.33579 11.5348 2 11.949 2C12.3632 2 12.699 2.33579 12.699 2.75V7.75C12.6936 8.16196 12.361 8.49461 11.949 8.5Z" fill="black"/>
<path d="M11.949 22.5C11.5371 22.4946 11.2044 22.162 11.199 21.75V16.75C11.199 16.3358 11.5348 16 11.949 16C12.3632 16 12.699 16.3358 12.699 16.75V21.75C12.6936 22.162 12.361 22.4946 11.949 22.5Z" fill="black"/>
<path d="M9.36904 9.31C9.12231 9.31181 8.89049 9.19215 8.74903 8.99L5.88903 4.9C5.77279 4.73718 5.72642 4.53467 5.76022 4.33749C5.79402 4.14031 5.9052 3.96481 6.06903 3.85C6.40182 3.6478 6.8336 3.72984 7.06903 4.04L9.94904 8.13C10.1169 8.35682 10.1411 8.65933 10.0115 8.90998C9.88196 9.16062 9.62113 9.31577 9.33904 9.31H9.36904Z" fill="black"/>
<path d="M17.399 20.78C17.1523 20.7818 16.9205 20.6622 16.779 20.46L13.949 16.37C13.7116 16.0303 13.7944 15.5625 14.134 15.325C14.4737 15.0875 14.9416 15.1703 15.179 15.51L18.039 19.6C18.2069 19.8268 18.2311 20.1293 18.1015 20.38C17.972 20.6306 17.7111 20.7858 17.429 20.78H17.399Z" fill="black"/>
<path d="M7.71904 11.46C7.63292 11.4738 7.54515 11.4738 7.45904 11.46L2.76904 9.71C2.57406 9.64058 2.41584 9.49464 2.33091 9.30591C2.24598 9.11717 2.24169 8.90197 2.31904 8.71C2.38557 8.51312 2.53183 8.35329 2.72206 8.26959C2.91228 8.18589 3.12893 8.18604 3.31904 8.27L7.94904 10.01C8.2848 10.1391 8.48164 10.4884 8.41815 10.8424C8.35466 11.1965 8.04873 11.4556 7.68904 11.46H7.71904Z" fill="black"/>
<path d="M20.879 16.25C20.7902 16.2479 20.7023 16.231 20.619 16.2L15.949 14.49C15.7522 14.423 15.5921 14.2774 15.5068 14.0878C15.4214 13.8982 15.4187 13.6817 15.499 13.49C15.5685 13.295 15.7144 13.1368 15.9031 13.0519C16.0919 12.9669 16.3071 12.9627 16.499 13.04L21.189 14.75C21.384 14.8194 21.5422 14.9654 21.6272 15.1541C21.7121 15.3428 21.7164 15.558 21.639 15.75C21.5272 16.0688 21.2161 16.2735 20.879 16.25Z" fill="black"/>
<path d="M2.76904 15.46C2.38462 15.4697 2.05513 15.1871 2.00617 14.8057C1.9572 14.4243 2.20463 14.0677 2.57904 13.98L7.40904 12.69C7.60133 12.6381 7.80637 12.6648 7.97896 12.7642C8.15155 12.8636 8.2775 13.0276 8.32904 13.22C8.43138 13.6197 8.19614 14.028 7.79904 14.14L2.94904 15.43C2.89063 15.4479 2.8301 15.458 2.76904 15.46Z" fill="black"/>
<path d="M16.299 11.84C15.9575 11.8386 15.6589 11.6095 15.569 11.28C15.5171 11.0877 15.5438 10.8827 15.6432 10.7101C15.7426 10.5375 15.9066 10.4115 16.099 10.36L20.949 9.07C21.3494 8.9623 21.7613 9.19959 21.869 9.6C21.9767 10.0004 21.7394 10.4123 21.339 10.52L16.509 11.81C16.4412 11.8318 16.3702 11.8419 16.299 11.84Z" fill="black"/>
<path d="M5.83904 20.25C5.54919 20.2476 5.28669 20.0784 5.16481 19.8154C5.04294 19.5524 5.08352 19.2427 5.26904 19.02L8.47904 15.25C8.75152 14.9415 9.21844 14.9019 9.53904 15.16C9.69206 15.2883 9.7876 15.4723 9.8045 15.6713C9.82139 15.8703 9.75824 16.0677 9.62904 16.22L6.41904 20.01C6.27089 20.1721 6.0584 20.26 5.83904 20.25Z" fill="black"/>
<path d="M14.839 9.55C14.6637 9.55369 14.493 9.49324 14.359 9.38C14.206 9.25171 14.1105 9.06769 14.0936 8.86872C14.0767 8.66975 14.1398 8.47225 14.269 8.32L17.479 4.49C17.6073 4.33698 17.7913 4.24144 17.9903 4.22454C18.1893 4.20765 18.3868 4.2708 18.539 4.4C18.8252 4.65889 18.8643 5.09418 18.629 5.4L15.419 9.25C15.2798 9.43108 15.0673 9.54099 14.839 9.55Z" fill="black"/>
</svg>
