<svg width="24" height="24" viewBox="0 0 24 24" fill="none" xmlns="http://www.w3.org/2000/svg">
<path d="M11.949 2C11.5371 2.00539 11.2044 2.33804 11.199 2.75V7.75C11.199 8.16421 11.5348 8.5 11.949 8.5C12.3632 8.5 12.699 8.16421 12.699 7.75V2.75C12.6936 2.33804 12.361 2.00539 11.949 2Z" fill="black"/>
<path d="M11.949 16C11.5371 16.0054 11.2044 16.338 11.199 16.75V21.75C11.199 22.1642 11.5348 22.5 11.949 22.5C12.3632 22.5 12.699 22.1642 12.699 21.75V16.75C12.6936 16.338 12.361 16.0054 11.949 16Z" fill="black"/>
<path d="M7.11903 4.04C6.8836 3.72984 6.45182 3.6478 6.11903 3.85C5.9552 3.96481 5.84402 4.14031 5.81022 4.33749C5.77642 4.53467 5.82279 4.73718 5.93903 4.9L8.74903 8.99C8.87789 9.26089 9.15577 9.42894 9.45552 9.41726C9.75527 9.40558 10.0192 9.21641 10.1266 8.93631C10.234 8.65622 10.1642 8.33907 9.94903 8.13L7.11903 4.04Z" fill="black"/>
<path d="M15.149 15.51C14.9116 15.1703 14.4437 15.0875 14.104 15.325C13.7644 15.5625 13.6816 16.0303 13.919 16.37L16.779 20.46C17.0165 20.7997 17.4844 20.8825 17.824 20.645C18.1637 20.4075 18.2465 19.9397 18.009 19.6L15.149 15.51Z" fill="black"/>
<path d="M2.76903 9.71L7.46903 11.42C7.55175 11.4344 7.63632 11.4344 7.71903 11.42C8.04162 11.3719 8.29614 11.1208 8.34865 10.7989C8.40116 10.477 8.23961 10.1581 7.94903 10.01L3.27903 8.3C3.08893 8.21604 2.87228 8.21589 2.68205 8.29959C2.49183 8.38329 2.34557 8.54312 2.27903 8.74C2.213 8.93355 2.22775 9.14555 2.31996 9.32809C2.41217 9.51063 2.57406 9.6483 2.76903 9.71Z" fill="black"/>
<path d="M21.129 14.79L16.429 13.08C16.2371 13.0027 16.0219 13.0069 15.8331 13.0919C15.6444 13.1768 15.4985 13.335 15.429 13.53C15.3487 13.7217 15.3514 13.9382 15.4368 14.1278C15.5221 14.3174 15.6822 14.463 15.879 14.53L20.619 16.25C20.7023 16.281 20.7902 16.2979 20.879 16.3C21.1917 16.2985 21.4706 16.1033 21.579 15.81C21.663 15.6158 21.6621 15.3953 21.5767 15.2018C21.4913 15.0082 21.3291 14.8589 21.129 14.79Z" fill="black"/>
<path d="M8.32904 13.25C8.2775 13.0576 8.15155 12.8936 7.97896 12.7942C7.80637 12.6948 7.60133 12.6681 7.40904 12.72L2.57904 13.98C2.20463 14.0677 1.9572 14.4243 2.00617 14.8057C2.05513 15.1871 2.38462 15.4697 2.76904 15.46C2.83535 15.4697 2.90272 15.4697 2.96904 15.46L7.79904 14.17C8.19614 14.058 8.43138 13.6497 8.32904 13.25Z" fill="black"/>
<path d="M15.569 11.25C15.6618 11.5775 15.9587 11.8052 16.299 11.81C16.362 11.8196 16.4261 11.8196 16.489 11.81L21.319 10.52C21.5947 10.4695 21.8192 10.2695 21.9012 10.0015C21.9831 9.7335 21.9087 9.44217 21.7084 9.24617C21.5081 9.05018 21.2152 8.98223 20.949 9.07L16.119 10.36C15.7282 10.4632 15.4865 10.8543 15.569 11.25Z" fill="black"/>
<path d="M8.47903 15.25L5.26903 19.05C5.10148 19.2729 5.07148 19.5705 5.19114 19.8224C5.3108 20.0743 5.56036 20.239 5.83903 20.25C6.06329 20.2525 6.2766 20.1532 6.41903 19.98L9.62903 16.15C9.75824 15.9977 9.82139 15.8003 9.80449 15.6013C9.7876 15.4023 9.69206 15.2183 9.53903 15.09C9.20049 14.8482 8.73113 14.9191 8.47903 15.25Z" fill="black"/>
<path d="M14.839 9.55C15.0673 9.54099 15.2798 9.43108 15.419 9.25L18.629 5.45C18.8643 5.14418 18.8252 4.70889 18.539 4.45C18.3868 4.3208 18.1893 4.25765 17.9903 4.27454C17.7913 4.29144 17.6073 4.38698 17.479 4.54L14.269 8.32C14.1398 8.47225 14.0767 8.66975 14.0936 8.86872C14.1105 9.06769 14.206 9.25171 14.359 9.38C14.493 9.49324 14.6637 9.55369 14.839 9.55Z" fill="black"/>
</svg>
