<svg width="24" height="24" viewBox="0 0 24 24" fill="none" xmlns="http://www.w3.org/2000/svg">
<path fill-rule="evenodd" clip-rule="evenodd" d="M16.5515 7.12202V4.00202C16.5521 3.18694 16.2209 2.40672 15.6343 1.84084C15.0477 1.27496 14.256 0.972133 13.4415 1.00202H10.1615C9.34698 0.972133 8.55535 1.27496 7.96872 1.84084C7.38209 2.40672 7.05096 3.18694 7.05151 4.00202V7.12202C4.9827 7.85462 3.72437 9.95184 4.05151 12.122L5.00151 17.892C5.45817 20.2117 7.5179 21.8663 9.88151 21.812H13.7615C16.1251 21.8663 18.1849 20.2117 18.6415 17.892L19.5915 12.122C19.9138 9.94089 18.6362 7.8397 16.5515 7.12202ZM12.8015 14.932L13.0115 15.552C13.1036 15.8358 13.0555 16.1464 12.8819 16.3891C12.7083 16.6317 12.4298 16.7775 12.1315 16.782H11.3915C11.0932 16.7775 10.8147 16.6317 10.6411 16.3891C10.4675 16.1464 10.4194 15.8358 10.5115 15.552L10.7215 14.932C10.8347 14.5818 10.7464 14.1976 10.4915 13.932C9.92486 13.2588 9.98199 12.2604 10.6217 11.6562C11.2615 11.052 12.2615 11.052 12.9013 11.6562C13.541 12.2604 13.5982 13.2588 13.0315 13.932C12.7766 14.1976 12.6883 14.5818 12.8015 14.932ZM8.55151 6.78202H8.91151V6.79202H15.0515V4.00202C15.0137 3.14965 14.2941 2.48815 13.4415 2.52202H10.1615C9.30898 2.48815 8.58937 3.14965 8.55151 4.00202V6.78202Z" fill="black"/>
</svg>
