<svg width="24" height="24" viewBox="0 0 24 24" fill="none" xmlns="http://www.w3.org/2000/svg">
<path fill-rule="evenodd" clip-rule="evenodd" d="M13.29 2.54291L20.14 7.35291C21.205 8.10138 21.8392 9.32124 21.84 10.6229V17.7529C21.8374 18.8854 21.3849 19.9704 20.5823 20.7693C19.7796 21.5682 18.6925 22.0156 17.56 22.0129H6.28C5.14753 22.0156 4.06038 21.5682 3.25772 20.7693C2.45507 19.9704 2.00265 18.8854 2 17.7529V10.6229C2.00085 9.32124 2.63503 8.10138 3.7 7.35291L10.55 2.54291C11.3199 1.81903 12.5201 1.81903 13.29 2.54291ZM19.5216 19.7087C20.043 19.1911 20.3374 18.4876 20.34 17.7529V10.6229C20.326 9.82531 19.9322 9.08228 19.28 8.62291L12.43 3.81291L12.32 3.73291C12.2147 3.62541 12.0705 3.56483 11.92 3.56483C11.7695 3.56483 11.6253 3.62541 11.52 3.73291L11.41 3.81291L4.56 8.62291C3.90781 9.08228 3.51401 9.82531 3.5 10.6229V17.7529C3.50265 18.4876 3.79703 19.1911 4.31838 19.7087C4.83973 20.2263 5.54535 20.5156 6.28 20.5129H17.56C18.2947 20.5156 19.0003 20.2263 19.5216 19.7087Z" fill="black"/>
<path d="M17.99 11.0129L12.45 14.8829C12.286 15.047 12.0608 15.1349 11.829 15.1254C11.5973 15.1159 11.38 15.0098 11.23 14.8329L5.85 11.0129C5.63389 10.826 5.33035 10.7781 5.0672 10.8894C4.80405 11.0007 4.62701 11.2519 4.61062 11.5372C4.59422 11.8224 4.74133 12.0922 4.99 12.2329L10.29 16.0129C10.7246 16.4175 11.2962 16.6426 11.89 16.6429C12.4484 16.6288 12.9808 16.4037 13.38 16.0129L18.85 12.1929C19.1645 11.9602 19.2472 11.5248 19.04 11.1929C18.7977 10.8566 18.3305 10.7765 17.99 11.0129Z" fill="black"/>
</svg>
