<svg width="24" height="24" viewBox="0 0 24 24" fill="none" xmlns="http://www.w3.org/2000/svg">
<path fill-rule="evenodd" clip-rule="evenodd" d="M13.29 2.52501L20.14 7.33501C21.2079 8.0855 21.8424 9.3098 21.84 10.615V17.745C21.8374 18.8775 21.3849 19.9625 20.5823 20.7614C19.7796 21.5603 18.6925 22.0077 17.56 22.005H6.28001C5.14753 22.0077 4.06038 21.5603 3.25773 20.7614C2.45507 19.9625 2.00266 18.8775 2.00001 17.745V10.615C1.9976 9.3098 2.63214 8.0855 3.70001 7.33501L10.55 2.52501C11.3292 1.825 12.5108 1.825 13.29 2.52501ZM13.38 16.005L18.85 12.195L18.81 12.245C19.0297 12.0914 19.1508 11.8322 19.1276 11.5651C19.1044 11.298 18.9405 11.0636 18.6976 10.9501C18.4547 10.8366 18.1697 10.8614 17.95 11.015L12.41 14.885C12.246 15.0491 12.0208 15.137 11.789 15.1275C11.5573 15.118 11.34 15.0119 11.19 14.835L5.81001 11.015C5.48165 10.8005 5.04297 10.8795 4.81001 11.195C4.60069 11.5244 4.67896 11.9593 4.99001 12.195L10.29 15.955C10.7272 16.3554 11.2972 16.5798 11.89 16.585C12.4424 16.5884 12.9753 16.3809 13.38 16.005Z" fill="black"/>
</svg>
