<svg width="24" height="24" viewBox="0 0 24 24" fill="none" xmlns="http://www.w3.org/2000/svg">
<path fill-rule="evenodd" clip-rule="evenodd" d="M4 7.5C4 5.567 5.567 4 7.5 4C9.433 4 11 5.567 11 7.5C11 9.433 9.433 11 7.5 11C5.567 11 4 9.433 4 7.5ZM9.5 7.5C9.5 6.39543 8.60457 5.5 7.5 5.5C6.39543 5.5 5.5 6.39543 5.5 7.5C5.5 8.60457 6.39543 9.5 7.5 9.5C8.60457 9.5 9.5 8.60457 9.5 7.5Z" fill="black"/>
<path fill-rule="evenodd" clip-rule="evenodd" d="M14 7.5C14 5.567 15.567 4 17.5 4C19.433 4 21 5.567 21 7.5C21 9.433 19.433 11 17.5 11C15.567 11 14 9.433 14 7.5ZM19.5 7.5C19.5 6.39543 18.6046 5.5 17.5 5.5C16.3954 5.5 15.5 6.39543 15.5 7.5C15.5 8.60457 16.3954 9.5 17.5 9.5C18.6046 9.5 19.5 8.60457 19.5 7.5Z" fill="black"/>
<path fill-rule="evenodd" clip-rule="evenodd" d="M4 17.5C4 15.567 5.567 14 7.5 14C9.433 14 11 15.567 11 17.5C11 19.433 9.433 21 7.5 21C5.567 21 4 19.433 4 17.5ZM9.5 17.5C9.5 16.3954 8.60457 15.5 7.5 15.5C6.39543 15.5 5.5 16.3954 5.5 17.5C5.5 18.6046 6.39543 19.5 7.5 19.5C8.60457 19.5 9.5 18.6046 9.5 17.5Z" fill="black"/>
<path fill-rule="evenodd" clip-rule="evenodd" d="M14 17.5C14 15.567 15.567 14 17.5 14C19.433 14 21 15.567 21 17.5C21 19.433 19.433 21 17.5 21C15.567 21 14 19.433 14 17.5ZM19.5 17.5C19.5 16.3954 18.6046 15.5 17.5 15.5C16.3954 15.5 15.5 16.3954 15.5 17.5C15.5 18.6046 16.3954 19.5 17.5 19.5C18.6046 19.5 19.5 18.6046 19.5 17.5Z" fill="black"/>
</svg>
