<svg width="24" height="24" viewBox="0 0 24 24" fill="none" xmlns="http://www.w3.org/2000/svg">
<path d="M19.8413 11.4692C19.8899 15.5983 16.7879 19.0859 12.6813 19.5192V21.9692C12.6813 22.3889 12.3411 22.7292 11.9213 22.7292C11.5016 22.7292 11.1613 22.3889 11.1613 21.9692V19.5592C7.07399 19.1277 3.97862 15.6692 4.00134 11.5592C3.98526 11.2877 4.11526 11.0282 4.34236 10.8785C4.56947 10.7288 4.85918 10.7117 5.10236 10.8335C5.34555 10.9553 5.50526 11.1977 5.52134 11.4692C5.49193 13.1949 6.15005 14.8614 7.35062 16.1014C8.55118 17.3413 10.1956 18.0529 11.9213 18.0792C13.6471 18.0529 15.2915 17.3413 16.4921 16.1014C17.6926 14.8614 18.3507 13.1949 18.3213 11.4692C18.3213 11.0494 18.6616 10.7092 19.0813 10.7092C19.5011 10.7092 19.8413 11.0494 19.8413 11.4692Z" fill="black"/>
<path fill-rule="evenodd" clip-rule="evenodd" d="M10.0251 1.37362C11.8923 0.608405 14.0363 1.0405 15.4613 2.46918C16.3887 3.39886 16.9132 4.65606 16.9213 5.96918V10.9692C16.9213 13.7306 14.6828 15.9692 11.9213 15.9692C9.15991 15.9692 6.92134 13.7306 6.92134 10.9692V5.96918C6.93384 3.95137 8.158 2.13884 10.0251 1.37362ZM13 10.2177V5.78967C12.9904 5.35668 12.5462 5.00747 11.9953 5C11.4457 5.00027 11.0003 5.35035 11 5.78229L11 10.2103C11.0095 10.6433 11.4538 10.9925 12.0046 11C12.5542 10.9997 12.9996 10.6496 13 10.2177Z" fill="black"/>
</svg>
