<svg width="24" height="24" viewBox="0 0 24 24" fill="none" xmlns="http://www.w3.org/2000/svg">
<path d="M19.8201 11.75C19.8201 11.3358 19.4843 11 19.0701 11C18.6559 11 18.3201 11.3358 18.3201 11.75C18.3495 13.4783 17.6904 15.1474 16.4879 16.3892C15.2855 17.6311 13.6385 18.3437 11.9101 18.37C10.1817 18.3437 8.53477 17.6311 7.33233 16.3892C6.1299 15.1474 5.47072 13.4783 5.50012 11.75C5.50012 11.3358 5.16434 11 4.75012 11C4.33591 11 4.00012 11.3358 4.00012 11.75C3.97741 15.86 7.07278 19.3185 11.1601 19.75V22.25C11.1601 22.6642 11.4959 23 11.9101 23C12.3243 23 12.6601 22.6642 12.6601 22.25V19.83C16.7783 19.3957 19.8844 15.8905 19.8201 11.75Z" fill="black"/>
<path fill-rule="evenodd" clip-rule="evenodd" d="M17 12C17 14.7614 14.7614 17 12 17C9.23858 17 7 14.7614 7 12V7C7 4.23858 9.23858 2 12 2C14.7614 2 17 4.23858 17 7V12ZM12 3.5C10.067 3.5 8.5 5.067 8.5 7V12C8.5 13.933 10.067 15.5 12 15.5C13.933 15.5 15.5 13.933 15.5 12V7C15.5 5.067 13.933 3.5 12 3.5Z" fill="black"/>
</svg>
