<svg width="24" height="24" viewBox="0 0 24 24" fill="none" xmlns="http://www.w3.org/2000/svg">
<path fill-rule="evenodd" clip-rule="evenodd" d="M11.8 2.00001H12.2C14.0043 1.99735 15.7354 2.71292 17.0113 3.98874C18.2871 5.26457 19.0027 6.99572 19 8.80001V15.2C19.0027 17.0043 18.2871 18.7354 17.0113 20.0113C15.7354 21.2871 14.0043 22.0027 12.2 22H11.8C9.99572 22.0027 8.26457 21.2871 6.98874 20.0113C5.71292 18.7354 4.99735 17.0043 5.00001 15.2V8.80001C4.99735 6.99572 5.71292 5.26457 6.98874 3.98874C8.26457 2.71292 9.99572 1.99735 11.8 2.00001ZM12 12.75C12.4142 12.75 12.75 12.4142 12.75 12V7.00001C12.75 6.58579 12.4142 6.25001 12 6.25001C11.5858 6.25001 11.25 6.58579 11.25 7.00001V12C11.25 12.4142 11.5858 12.75 12 12.75Z" fill="black"/>
</svg>
