<svg width="24" height="24" viewBox="0 0 24 24" fill="none" xmlns="http://www.w3.org/2000/svg">
<path fill-rule="evenodd" clip-rule="evenodd" d="M10 2H14.24C16.3617 2 18.3966 2.84285 19.8969 4.34315C21.3971 5.84344 22.24 7.87827 22.24 10V14.24C22.24 18.6583 18.6583 22.24 14.24 22.24H10C5.58172 22.24 2 18.6583 2 14.24V10C2 5.58172 5.58172 2 10 2ZM16.37 11.87C16.7842 11.87 17.12 11.5342 17.12 11.12L17.13 7.87C17.13 7.45579 16.7942 7.12 16.38 7.12H13.12C12.6892 7.12 12.34 7.46922 12.34 7.9C12.34 8.33078 12.6892 8.68 13.12 8.68H14.51L8.62 14.56V13.12C8.62 12.7058 8.28421 12.37 7.87 12.37C7.45579 12.37 7.12 12.7058 7.12 13.12V16.34C7.10033 16.4357 7.10033 16.5343 7.12 16.63C7.18933 16.8523 7.35437 17.032 7.57 17.12C7.66279 17.1343 7.75721 17.1343 7.85 17.12H11.12C11.5342 17.12 11.87 16.7842 11.87 16.37C11.87 15.9558 11.5342 15.62 11.12 15.62H9.62L15.62 9.62V11.12C15.62 11.5342 15.9558 11.87 16.37 11.87Z" fill="black"/>
</svg>
