<svg width="24" height="24" viewBox="0 0 24 24" fill="none" xmlns="http://www.w3.org/2000/svg">
<path d="M20.129 3H13.9277C13.4467 3 13.0568 3.3935 13.0568 3.87891C13.0568 4.36431 13.4467 4.75781 13.9277 4.75781H17.8645L4.74194 18V13.8633C4.74194 13.3779 4.35199 12.9844 3.87097 12.9844C3.38995 12.9844 3 13.3779 3 13.8633V20.1211C3.00625 20.6039 3.39256 20.9937 3.87097 21H10.0723C10.5533 21 10.9432 20.6065 10.9432 20.1211C10.9432 19.6357 10.5533 19.2422 10.0723 19.2422H5.9729L19.2581 5.83594V10.1367C19.2581 10.6221 19.648 11.0156 20.129 11.0156C20.6101 11.0156 21 10.6221 21 10.1367V3.87891C20.9937 3.39614 20.6074 3.00631 20.129 3Z" fill="black"/>
</svg>
