<svg width="24" height="24" viewBox="0 0 24 24" fill="none" xmlns="http://www.w3.org/2000/svg">
<path d="M19.75 6.29997C19.7192 5.36424 19.2291 4.50384 18.44 3.99997C17.3724 3.30529 16.0343 3.17111 14.85 3.63997L10.3 5.40997C9.14461 5.81718 8.35287 6.88603 8.30002 8.10997V15.43C7.90012 15.2167 7.45325 15.1067 7.00003 15.11C5.87067 15.11 4.85271 15.7908 4.42146 16.8346C3.99021 17.8784 4.23075 19.0792 5.03076 19.8763C5.83077 20.6735 7.03243 20.9097 8.07466 20.4747C9.11688 20.0397 9.79407 19.0193 9.79003 17.89C9.7943 17.8367 9.7943 17.7832 9.79003 17.73V8.10997C9.84836 7.49685 10.2709 6.97953 10.86 6.79997L15.4 4.99997C16.1264 4.71778 16.9439 4.79953 17.6 5.21997C17.9846 5.45246 18.2283 5.86109 18.25 6.30997V13.58C17.8516 13.3605 17.4049 13.2436 16.95 13.24C15.4252 13.231 14.1757 14.4478 14.1441 15.9722C14.1126 17.4967 15.3108 18.7641 16.8347 18.8182C18.3585 18.8722 19.6435 17.6929 19.72 16.17C19.7247 16.1234 19.7247 16.0765 19.72 16.03L19.75 6.29997Z" fill="black"/>
</svg>
