<svg width="24" height="24" viewBox="0 0 24 24" fill="none" xmlns="http://www.w3.org/2000/svg">
<path fill-rule="evenodd" clip-rule="evenodd" d="M19.6399 6.87998C19.6258 5.92897 19.1332 5.04916 18.3299 4.53998C17.2657 3.83707 15.9251 3.6989 14.7399 4.16998L10.1899 5.99998C9.03446 6.4072 8.24273 7.47604 8.18988 8.69998V16C7.79893 15.7915 7.36296 15.6816 6.91988 15.68C5.37901 15.68 4.12988 16.9291 4.12988 18.47C4.12988 20.0109 5.37901 21.26 6.91988 21.26C8.46076 21.26 9.70988 20.0109 9.70988 18.47V8.67998C9.76527 8.07112 10.1846 7.5568 10.7699 7.37998L15.3099 5.56998C16.034 5.2798 16.8538 5.35805 17.5099 5.77998C17.8947 6.01698 18.1379 6.42854 18.1599 6.87998V14.14C17.759 13.9281 17.3133 13.815 16.8599 13.81C15.3337 13.8007 14.0834 15.0194 14.0535 16.5453C14.0235 18.0711 15.2252 19.3379 16.7505 19.3884C18.2759 19.4389 19.5587 18.2545 19.6299 16.73C19.6346 16.6834 19.6346 16.6365 19.6299 16.59L19.6399 6.87998ZM6.91988 19.75C6.21564 19.7595 5.6339 19.2025 5.61294 18.4985C5.59198 17.7945 6.13955 17.2038 6.84311 17.1715C7.54667 17.1391 8.14614 17.677 8.18988 18.38V18.55C8.15268 19.2239 7.59483 19.751 6.91988 19.75ZM15.641 17.0906C15.8438 17.5723 16.3172 17.884 16.8399 17.88C17.1811 17.88 17.5082 17.7438 17.7485 17.5015C17.9889 17.2593 18.1225 16.9312 18.1199 16.59C18.1199 16.0673 17.8045 15.5963 17.3212 15.3972C16.8379 15.1982 16.2823 15.3104 15.9142 15.6814C15.546 16.0524 15.4382 16.6089 15.641 17.0906Z" fill="black"/>
</svg>
