<svg width="24" height="24" viewBox="0 0 24 24" fill="none" xmlns="http://www.w3.org/2000/svg">
<path d="M8.17873 4.33873C9.18824 3.82408 10.3056 3.55674 11.4387 3.55873C15.0587 3.55873 17.9987 6.19873 17.9987 9.44873V13.9287C17.9972 14.6917 18.3209 15.4191 18.8887 15.9287C19.029 16.0549 19.2101 16.1259 19.3987 16.1287C19.6087 16.125 19.8078 16.0345 19.9487 15.8787C20.0828 15.7316 20.1528 15.5372 20.1434 15.3384C20.134 15.1395 20.046 14.9526 19.8987 14.8187C19.6515 14.6045 19.5062 14.2958 19.4987 13.9687V9.44873C19.4987 5.36873 15.8887 2.05873 11.4387 2.05873C10.0699 2.05883 8.7202 2.38083 7.49873 2.99873C7.1287 3.18651 6.98095 3.6387 7.16873 4.00873C7.3565 4.37876 7.8087 4.52651 8.17873 4.33873Z" fill="black"/>
<path fill-rule="evenodd" clip-rule="evenodd" d="M21.2987 20.2387L3.29873 2.23873C3.11176 2.03808 2.83017 1.95548 2.56444 2.02334C2.29871 2.09121 2.09121 2.29871 2.02334 2.56444C1.95548 2.83017 2.03808 3.11176 2.23873 3.29873L4.33873 5.40873C3.69576 6.47848 3.35051 7.70068 3.33873 8.94873V13.4287C3.33501 13.7545 3.19327 14.0634 2.94873 14.2787C2.14421 14.9897 1.86179 16.1234 2.23873 17.1287C2.69494 18.2514 3.79719 18.9756 5.00873 18.9487H8.21873C8.21873 20.6663 9.61112 22.0587 11.3287 22.0587C13.0463 22.0587 14.4387 20.6663 14.4387 18.9487H17.9187L20.2387 21.2587C20.5315 21.5512 21.0059 21.5512 21.2987 21.2587C21.5655 20.9711 21.5655 20.5264 21.2987 20.2387ZM11.2987 20.5587C10.4562 20.517 9.78866 19.8321 9.76873 18.9887H12.9887C12.9783 19.4176 12.7971 19.8245 12.4855 20.1192C12.1739 20.414 11.7575 20.5722 11.3287 20.5587H11.2987ZM3.63873 16.6287C3.86683 17.1769 4.4159 17.5216 5.00873 17.4887L16.4487 17.5187L5.44873 6.51873C5.06292 7.27121 4.8575 8.10315 4.84873 8.94873V13.3887C4.85679 14.1531 4.53193 14.8831 3.95873 15.3887C3.5949 15.6892 3.46574 16.1897 3.63873 16.6287Z" fill="black"/>
</svg>
