<svg width="24" height="24" viewBox="0 0 24 24" fill="none" xmlns="http://www.w3.org/2000/svg">
<path d="M18.9986 13.9274V9.99735C18.9986 6.14735 15.5586 2.99735 11.3086 2.99735C9.99058 2.99245 8.69071 3.30455 7.5186 3.90735L18.9986 14.7374C18.9986 14.7374 18.9986 14.4874 18.9986 13.9274Z" fill="black"/>
<path fill-rule="evenodd" clip-rule="evenodd" d="M3.8586 2.48735L22.5286 19.7174H22.5386C22.7887 19.9985 22.8599 20.3963 22.7227 20.7467C22.5855 21.0971 22.2631 21.3408 21.8886 21.3774C21.6477 21.3813 21.4147 21.2917 21.2386 21.1274L19.2386 19.2474H14.1086C14.1086 20.9042 12.7655 22.2474 11.1086 22.2474C9.45175 22.2474 8.1086 20.9042 8.1086 19.2474H4.5686C3.68478 19.3323 2.84447 18.8469 2.47655 18.0388C2.10863 17.2307 2.29422 16.2782 2.9386 15.6674C3.36126 15.291 3.60471 14.7533 3.6086 14.1874V9.47735C3.66098 8.21064 4.03618 6.97833 4.6986 5.89735L2.5586 3.89735C2.17571 3.70898 1.95453 3.2984 2.00788 2.87503C2.06123 2.45166 2.37736 2.10879 2.79501 2.0213C3.21266 1.93382 3.63982 2.12099 3.8586 2.48735ZM9.5486 19.2574C9.59121 20.0765 10.2684 20.7185 11.0886 20.7174V20.7074C11.9013 20.7035 12.5711 20.0687 12.6186 19.2574H9.5486Z" fill="black"/>
</svg>
