<svg width="24" height="24" viewBox="0 0 24 24" fill="none" xmlns="http://www.w3.org/2000/svg">
<path fill-rule="evenodd" clip-rule="evenodd" d="M16 2H8C4.68629 2 2 4.68629 2 8V16C2 19.3137 4.68629 22 8 22H16C19.3137 22 22 19.3137 22 16V8C22 4.68629 19.3137 2 16 2ZM10.5 15C10.5 15.5523 10.0523 16 9.5 16C8.94772 16 8.5 15.5523 8.5 15V9C8.5 8.44772 8.94772 8 9.5 8C10.0523 8 10.5 8.44772 10.5 9V15ZM14.5 16C15.0523 16 15.5 15.5523 15.5 15V9C15.5 8.44772 15.0523 8 14.5 8C13.9477 8 13.5 8.44772 13.5 9V15C13.5 15.5523 13.9477 16 14.5 16Z" fill="black"/>
</svg>
