<svg width="24" height="24" viewBox="0 0 24 24" fill="none" xmlns="http://www.w3.org/2000/svg">
<path d="M9.5 8.25C9.08804 8.25539 8.75539 8.58804 8.75 9V15C8.75 15.4142 9.08579 15.75 9.5 15.75C9.91421 15.75 10.25 15.4142 10.25 15V9C10.2446 8.58804 9.91196 8.25539 9.5 8.25Z" fill="black"/>
<path d="M14.5 8.25C14.088 8.25539 13.7554 8.58804 13.75 9V15C13.75 15.4142 14.0858 15.75 14.5 15.75C14.9142 15.75 15.25 15.4142 15.25 15V9C15.2446 8.58804 14.912 8.25539 14.5 8.25Z" fill="black"/>
<path fill-rule="evenodd" clip-rule="evenodd" d="M8 2H16C19.3137 2 22 4.68629 22 8V16C22 19.3137 19.3137 22 16 22H8C4.68629 22 2 19.3137 2 16V8C2 4.68629 4.68629 2 8 2ZM19.0919 19.0919C19.9113 18.2725 20.3681 17.1588 20.36 16V8C20.3681 6.84121 19.9113 5.72753 19.0919 4.90812C18.2725 4.08871 17.1588 3.63194 16 3.64H8C6.84121 3.63194 5.72754 4.08871 4.90813 4.90812C4.08872 5.72753 3.63195 6.84121 3.64 8V16C3.63195 17.1588 4.08872 18.2725 4.90813 19.0919C5.72754 19.9113 6.84121 20.3681 8 20.36H16C17.1588 20.3681 18.2725 19.9113 19.0919 19.0919Z" fill="black"/>
</svg>
