<svg width="24" height="24" viewBox="0 0 24 24" fill="none" xmlns="http://www.w3.org/2000/svg">
<path fill-rule="evenodd" clip-rule="evenodd" d="M10.1104 5.50996L17.3604 9.69996C18.2856 10.2367 18.855 11.2254 18.855 12.295C18.855 13.3646 18.2856 14.3533 17.3604 14.89L10.1104 19.08C9.18185 19.616 8.03785 19.6158 7.10952 19.0795C6.18119 18.5431 5.60967 17.5521 5.61035 16.48V8.10996C5.60967 7.03782 6.18119 6.0468 7.10952 5.51044C8.03785 4.97407 9.18185 4.97389 10.1104 5.50996ZM9.21036 17.52L16.4604 13.34C16.8334 13.127 17.0627 12.7295 17.0604 12.3C17.0642 11.8674 16.835 11.4662 16.4604 11.25L9.21036 7.06996C9.02902 6.96096 8.82191 6.90228 8.61036 6.89996C7.94209 6.89996 7.40036 7.44169 7.40036 8.10996V16.48C7.40036 16.8009 7.52784 17.1086 7.75476 17.3356C7.98168 17.5625 8.28944 17.69 8.61036 17.69C8.82191 17.6876 9.02902 17.629 9.21036 17.52Z" fill="black"/>
</svg>
