<svg width="24" height="24" viewBox="0 0 24 24" fill="none" xmlns="http://www.w3.org/2000/svg">
<path fill-rule="evenodd" clip-rule="evenodd" d="M10.7545 10.0367C10.3931 10.633 9.74729 10.9979 9.05006 11H5.11006C4.40573 11.0121 3.74698 10.6527 3.37584 10.054C3.0047 9.45524 2.97592 8.70541 3.30006 8.07998L5.30006 4.27998C5.6472 3.61905 6.33353 3.20648 7.08006 3.20998C7.8122 3.22123 8.47967 3.63168 8.82006 4.27998L10.8201 8.07998C11.1408 8.69906 11.116 9.44048 10.7545 10.0367ZM9.05006 8.99998L7.11006 5.20998L5.11006 8.99998H9.05006Z" fill="black"/>
<path fill-rule="evenodd" clip-rule="evenodd" d="M20.9001 7C20.9001 9.20914 19.1092 11 16.9001 11C14.6909 11 12.9001 9.20914 12.9001 7C12.9001 4.79086 14.6909 3 16.9001 3C19.1092 3 20.9001 4.79086 20.9001 7ZM18.9001 7C18.9001 5.89543 18.0046 5 16.9001 5C15.7955 5 14.9001 5.89543 14.9001 7C14.9001 8.10457 15.7955 9 16.9001 9C18.0046 9 18.9001 8.10457 18.9001 7Z" fill="black"/>
<path fill-rule="evenodd" clip-rule="evenodd" d="M14.9001 13H18.9001C20.0046 13 20.9001 13.8954 20.9001 15V19C20.9001 20.1046 20.0046 21 18.9001 21H14.9001C13.7955 21 12.9001 20.1046 12.9001 19V15C12.9001 13.8954 13.7955 13 14.9001 13ZM14.9001 19H18.9001V15H14.9001V19Z" fill="black"/>
<path d="M10.7801 13C10.39 12.6123 9.7601 12.6123 9.37006 13L7.08006 15.27L4.78006 13C4.3833 12.6602 3.79187 12.6831 3.4225 13.0524C3.05313 13.4218 3.03029 14.0132 3.37006 14.41L5.66006 16.71L3.37006 19C3.0816 19.2861 2.9949 19.7183 3.15069 20.0935C3.30648 20.4687 3.6738 20.7124 4.08006 20.71C4.34383 20.7062 4.59543 20.5984 4.78006 20.41L7.08006 18.12L9.37006 20.41C9.55714 20.6009 9.81282 20.7089 10.0801 20.71C10.4845 20.7083 10.8481 20.4632 11.0013 20.0889C11.1546 19.7146 11.0672 19.2848 10.7801 19L8.49006 16.69L10.7801 14.39C11.1547 14.0024 11.1547 13.3876 10.7801 13Z" fill="black"/>
</svg>
