<svg width="24" height="24" viewBox="0 0 24 24" fill="none" xmlns="http://www.w3.org/2000/svg">
<path fill-rule="evenodd" clip-rule="evenodd" d="M7.08049 3.20998C7.82343 3.21021 8.50502 3.62224 8.85049 4.27998L10.8205 8.07998C11.1412 8.69906 11.1164 9.44048 10.755 10.0367C10.3936 10.633 9.74771 10.9979 9.05049 11H5.11049C4.40615 11.0121 3.7474 10.6527 3.37626 10.054C3.00513 9.45524 2.97634 8.70541 3.30049 8.07998L5.30049 4.27998C5.64762 3.61905 6.33396 3.20648 7.08049 3.20998ZM9.05049 9.51998C9.22601 9.521 9.38922 9.42991 9.48049 9.27998V9.25998C9.57154 9.12355 9.58662 8.95007 9.52049 8.79998L7.52049 4.99998C7.44542 4.84008 7.28703 4.73578 7.11049 4.72998C6.9231 4.72341 6.74839 4.82435 6.66049 4.98998L4.66049 8.78998C4.57968 8.94594 4.58663 9.13286 4.6788 9.28239C4.77097 9.43191 4.93485 9.52211 5.11049 9.51998H9.05049Z" fill="black"/>
<path fill-rule="evenodd" clip-rule="evenodd" d="M20.9005 7C20.9005 9.20914 19.1096 11 16.9005 11C14.6913 11 12.9005 9.20914 12.9005 7C12.9005 4.79086 14.6913 3 16.9005 3C19.1096 3 20.9005 4.79086 20.9005 7ZM19.4005 7C19.4005 5.61929 18.2812 4.5 16.9005 4.5C16.2374 4.5 15.6016 4.76339 15.1327 5.23223C14.6639 5.70107 14.4005 6.33696 14.4005 7C14.4005 8.38071 15.5198 9.5 16.9005 9.5C18.2812 9.5 19.4005 8.38071 19.4005 7Z" fill="black"/>
<path fill-rule="evenodd" clip-rule="evenodd" d="M14.9005 13H18.9005C20.0051 13 20.9005 13.8954 20.9005 15V19C20.9005 20.1046 20.0051 21 18.9005 21H14.9005C13.7959 21 12.9005 20.1046 12.9005 19V15C12.9005 13.8954 13.7959 13 14.9005 13ZM18.9005 19.5C19.1766 19.5 19.4005 19.2761 19.4005 19V15C19.4005 14.7239 19.1766 14.5 18.9005 14.5H14.9005C14.6243 14.5 14.4005 14.7239 14.4005 15V19C14.4005 19.2761 14.6243 19.5 14.9005 19.5H18.9005Z" fill="black"/>
<path d="M10.6105 13.16C10.4712 13.0171 10.2801 12.9364 10.0805 12.9364C9.8809 12.9364 9.68978 13.0171 9.55049 13.16L7.08049 15.63L4.61049 13.16C4.31498 12.8846 3.85448 12.8928 3.56887 13.1784C3.28325 13.464 3.27513 13.9245 3.55049 14.22L6.00049 16.69L3.55049 19.16C3.40754 19.2993 3.32692 19.4904 3.32692 19.69C3.32692 19.8896 3.40754 20.0807 3.55049 20.22C3.69221 20.3589 3.88207 20.4377 4.08049 20.44C4.27849 20.4357 4.46764 20.3572 4.61049 20.22L7.08049 17.75L9.55049 20.22C9.69221 20.3589 9.88207 20.4377 10.0805 20.44C10.2785 20.4357 10.4676 20.3572 10.6105 20.22C10.9029 19.9272 10.9029 19.4528 10.6105 19.16L8.14049 16.69L10.6105 14.22C10.9029 13.9272 10.9029 13.4528 10.6105 13.16Z" fill="black"/>
</svg>
