<svg width="24" height="24" viewBox="0 0 24 24" fill="none" xmlns="http://www.w3.org/2000/svg">
<path d="M18.3005 13.51C17.9104 13.1223 17.2805 13.1223 16.8905 13.51L12.7705 17.63V7C12.7705 6.44772 12.3227 6 11.7705 6C11.2182 6 10.7705 6.44772 10.7705 7V17.63L6.65046 13.51C6.2537 13.1702 5.66227 13.1931 5.2929 13.5624C4.92353 13.9318 4.90068 14.5232 5.24046 14.92L11.0605 20.75C11.2482 20.9393 11.5038 21.0458 11.7705 21.0458C12.0371 21.0458 12.2927 20.9393 12.4805 20.75L18.3005 14.92C18.6882 14.53 18.6882 13.9 18.3005 13.51Z" fill="black"/>
<path d="M6.77046 5H16.7705C17.3227 5 17.7705 4.55228 17.7705 4C17.7705 3.44772 17.3227 3 16.7705 3H6.77046C6.21817 3 5.77046 3.44772 5.77046 4C5.77046 4.55228 6.21817 5 6.77046 5Z" fill="black"/>
</svg>
