<svg width="24" height="24" viewBox="0 0 24 24" fill="none" xmlns="http://www.w3.org/2000/svg">
<path d="M12.5122 4.02129L13.2722 3.26129C13.5476 2.96578 13.5395 2.50528 13.2539 2.21967C12.9682 1.93406 12.5077 1.92593 12.2122 2.20129L10.2122 4.20129C9.91978 4.49411 9.91978 4.96847 10.2122 5.26129L12.2122 7.26129C12.505 7.55375 12.9794 7.55375 13.2722 7.26129C13.5647 6.96847 13.5647 6.49411 13.2722 6.20129L12.6122 5.54129C15.9796 5.95841 18.6039 8.66112 18.9217 12.0393C19.2395 15.4175 17.1653 18.5622 13.9347 19.6C10.7042 20.6378 7.18665 19.2894 5.47757 16.3581C3.76849 13.4269 4.32777 9.70148 6.82223 7.40129C7.06396 7.11386 7.05582 6.69195 6.80319 6.41405C6.55056 6.13616 6.13133 6.08797 5.82223 6.30129C2.78041 9.1031 2.11554 13.6519 4.2282 17.2071C6.34086 20.7623 10.6541 22.353 14.5692 21.0207C18.4842 19.6884 20.9319 15.797 20.4375 11.6911C19.9431 7.58524 16.6417 4.38614 12.5222 4.02129H12.5122Z" fill="black"/>
</svg>
