<svg width="24" height="24" viewBox="0 0 24 24" fill="none" xmlns="http://www.w3.org/2000/svg">
<path fill-rule="evenodd" clip-rule="evenodd" d="M7.56 2H16.44C19.5107 2 22 4.4893 22 7.56V16.44C22 19.5107 19.5107 22 16.44 22H7.56C4.4893 22 2 19.5107 2 16.44V7.56C2 4.4893 4.4893 2 7.56 2ZM5.70855 15.2052C6.72266 17.7946 9.21908 19.4988 12 19.5C15.4889 19.4774 18.3874 16.8034 18.6907 13.3277C18.9939 9.85198 16.6022 6.71644 13.17 6.09L13.33 5.92C13.6558 5.59691 13.6581 5.07085 13.335 4.745C13.0119 4.41915 12.4858 4.41691 12.16 4.74L10.67 6.22C10.5099 6.37453 10.4195 6.58749 10.4195 6.81C10.4195 7.03251 10.5099 7.24547 10.67 7.4L12.16 8.89C12.3151 9.04194 12.5229 9.12795 12.74 9.13C12.9599 9.12746 13.1707 9.0417 13.33 8.89C13.5909 8.62096 13.6361 8.20931 13.44 7.89C15.6704 8.5557 17.1711 10.6421 17.0928 12.9683C17.0145 15.2946 15.3769 17.2754 13.1068 17.7896C10.8368 18.3039 8.50547 17.2222 7.43232 15.1567C6.35917 13.0913 6.81424 10.5619 8.54 9C8.87689 8.68796 8.89704 8.16189 8.585 7.825C8.27296 7.48811 7.74689 7.46796 7.41 7.78C5.36956 9.66948 4.69443 12.6157 5.70855 15.2052Z" fill="black"/>
</svg>
