<svg width="24" height="24" viewBox="0 0 24 24" fill="none" xmlns="http://www.w3.org/2000/svg">
<path d="M16.5793 4.5H6.57934C6.16513 4.5 5.82934 4.16421 5.82934 3.75C5.82934 3.33579 6.16513 3 6.57934 3H16.5793C16.9936 3 17.3293 3.33579 17.3293 3.75C17.3293 4.16421 16.9936 4.5 16.5793 4.5Z" fill="black"/>
<path d="M17.4093 13.2564C17.6089 13.2564 17.8001 13.3371 17.9393 13.48C18.2318 13.7728 18.2318 14.2472 17.9393 14.54L12.1093 20.36C11.8165 20.6525 11.3422 20.6525 11.0493 20.36L5.21934 14.54C4.92689 14.2472 4.92689 13.7728 5.21934 13.48C5.35863 13.3371 5.54975 13.2564 5.74934 13.2564C5.94893 13.2564 6.14005 13.3371 6.27934 13.48L10.8293 18.02V6.8C10.8293 6.38579 11.1651 6.05 11.5793 6.05C11.9936 6.05 12.3293 6.38579 12.3293 6.8V18.02L16.8793 13.48C17.0186 13.3371 17.2098 13.2564 17.4093 13.2564Z" fill="black"/>
</svg>
