<svg width="24" height="24" viewBox="0 0 24 24" fill="none" xmlns="http://www.w3.org/2000/svg">
<path fill-rule="evenodd" clip-rule="evenodd" d="M10 2H14.24C16.3617 2 18.3966 2.84285 19.8969 4.34315C21.3971 5.84344 22.24 7.87827 22.24 10V14.24C22.24 18.6583 18.6583 22.24 14.24 22.24H10C5.58172 22.24 2 18.6583 2 14.24V10C2 5.58172 5.58172 2 10 2ZM16.4456 12.074C17.1332 11.3939 17.5201 10.4671 17.52 9.5V8.34C17.52 8.07205 17.3771 7.82446 17.145 7.69048C16.913 7.55651 16.6271 7.55651 16.395 7.69048C16.163 7.82446 16.02 8.07205 16.02 8.34V9.5C16.0338 10.077 15.8107 10.6345 15.4026 11.0426C14.9945 11.4507 14.437 11.6738 13.86 11.66H9.28L11.49 9.45C11.7654 9.15449 11.7572 8.69399 11.4716 8.40838C11.186 8.12277 10.7255 8.11464 10.43 8.39L6.94 11.88C6.87221 11.9494 6.81795 12.0307 6.78 12.12C6.6999 12.305 6.6999 12.515 6.78 12.7C6.81795 12.7893 6.87221 12.8706 6.94 12.94L10.43 16.39C10.5717 16.5289 10.7616 16.6077 10.96 16.61C11.158 16.6057 11.3472 16.5272 11.49 16.39C11.7825 16.0972 11.7825 15.6228 11.49 15.33L9.28 13.12H13.86C14.827 13.1307 15.7581 12.754 16.4456 12.074Z" fill="black"/>
</svg>
