<svg width="24" height="24" viewBox="0 0 24 24" fill="none" xmlns="http://www.w3.org/2000/svg">
<path d="M19.7501 5C19.3381 5.00539 19.0055 5.33804 19.0001 5.75V7.75C19.0109 8.88044 18.5666 9.96773 17.7672 10.7671C16.9678 11.5665 15.8805 12.0108 14.7501 12H5.56007L10.2801 7.25C10.451 6.94944 10.3942 6.57101 10.1428 6.33376C9.89126 6.0965 9.51018 6.06191 9.22007 6.25L3.22007 12.25C3.15228 12.3194 3.09802 12.4007 3.06007 12.49C2.97998 12.675 2.97998 12.885 3.06007 13.07C3.09802 13.1593 3.15228 13.2406 3.22007 13.31L9.22007 19.31C9.51289 19.6025 9.98726 19.6025 10.2801 19.31C10.5725 19.0172 10.5725 18.5428 10.2801 18.25L5.56007 13.5H14.7501C16.28 13.5162 17.752 12.9156 18.8338 11.8338C19.9157 10.7519 20.5163 9.27991 20.5001 7.75V5.75C20.4947 5.33804 20.162 5.00539 19.7501 5Z" fill="black"/>
</svg>
