<svg width="24" height="24" viewBox="0 0 24 24" fill="none" xmlns="http://www.w3.org/2000/svg">
<path fill-rule="evenodd" clip-rule="evenodd" d="M19.9382 7.66937C18.512 4.24473 15.1704 2.01008 11.4607 2.00017C7.45562 1.9761 3.89312 4.54041 2.64466 8.34596C1.39619 12.1515 2.74734 16.3278 5.98831 18.6809C9.22928 21.034 13.6187 21.0256 16.8507 18.6602L19.7207 21.5302C20.0135 21.8226 20.4878 21.8226 20.7807 21.5302C21.0731 21.2374 21.0731 20.763 20.7807 20.4702L17.9907 17.6802C20.5968 15.04 21.3644 11.094 19.9382 7.66937ZM9.13996 8.04179C8.89594 8.62562 8.32342 9.00421 7.69066 9.00017C6.83462 9.00017 6.14066 8.30621 6.14066 7.45017C6.13662 6.81741 6.51521 6.24488 7.09904 6.00086C7.68287 5.75684 8.35627 5.88967 8.80371 6.33711C9.25115 6.78455 9.38398 7.45796 9.13996 8.04179Z" fill="black"/>
</svg>
