<svg width="24" height="24" viewBox="0 0 24 24" fill="none" xmlns="http://www.w3.org/2000/svg">
<path d="M12.6911 3.29079L18.6853 9.12079C19.0926 9.50253 19.1063 10.1326 18.7161 10.5308C18.5231 10.7201 18.2603 10.8266 17.9861 10.8266C17.712 10.8266 17.4492 10.7201 17.2561 10.5308L12.9893 6.41079V17.0408C12.9893 17.5931 12.5289 18.0408 11.9611 18.0408C11.3933 18.0408 10.9329 17.5931 10.9329 17.0408V6.41079L6.69694 10.5308C6.289 10.8706 5.68091 10.8477 5.30114 10.4784C4.92137 10.109 4.89789 9.51755 5.24723 9.12079L11.2414 3.29079C11.6424 2.90307 12.2901 2.90307 12.6911 3.29079Z" fill="black"/>
<path d="M6.82031 19.0408H17.1019C17.6697 19.0408 18.1301 19.4885 18.1301 20.0408C18.1301 20.5931 17.6697 21.0408 17.1019 21.0408H6.82031C6.25248 21.0408 5.79215 20.5931 5.79215 20.0408C5.79215 19.4885 6.25248 19.0408 6.82031 19.0408Z" fill="black"/>
</svg>
