<svg width="24" height="24" viewBox="0 0 24 24" fill="none" xmlns="http://www.w3.org/2000/svg">
<path d="M13.76 11.81C13.76 12.8925 12.8825 13.77 11.8 13.77C10.7175 13.77 9.84 12.8925 9.84 11.81C9.84 10.7275 10.7175 9.85 11.8 9.85C12.8825 9.85 13.76 10.7275 13.76 11.81Z" fill="black"/>
<path fill-rule="evenodd" clip-rule="evenodd" d="M19.2264 8.73077C19.4169 9.19491 19.8683 9.49854 20.37 9.5C20.6989 9.5 21.0143 9.63064 21.2468 9.86319C21.4794 10.0957 21.61 10.4111 21.61 10.74V12.88C21.61 13.5648 21.0548 14.12 20.37 14.12C19.8683 14.1215 19.4169 14.4251 19.2264 14.8892C19.036 15.3534 19.144 15.8865 19.5 16.24C19.9776 16.7295 19.9776 17.5105 19.5 18L18 19.5C17.5105 19.9776 16.7295 19.9776 16.24 19.5C15.8865 19.144 15.3534 19.036 14.8892 19.2264C14.4251 19.4169 14.1215 19.8683 14.12 20.37C14.12 21.0548 13.5648 21.61 12.88 21.61H10.74C10.0552 21.61 9.5 21.0548 9.5 20.37C9.49854 19.8683 9.19491 19.4169 8.73077 19.2264C8.26664 19.036 7.73346 19.144 7.38 19.5C6.89055 19.9776 6.10945 19.9776 5.62 19.5L4.12 18C3.64237 17.5105 3.64237 16.7295 4.12 16.24C4.47735 15.8853 4.5847 15.3496 4.39166 14.8846C4.19862 14.4195 3.74352 14.1174 3.24 14.12C2.55517 14.12 2 13.5648 2 12.88V10.74C2 10.0552 2.55517 9.5 3.24 9.5C3.7417 9.49854 4.19308 9.19491 4.38355 8.73077C4.57402 8.26664 4.46605 7.73346 4.11 7.38C3.63237 6.89055 3.63237 6.10945 4.11 5.62L5.61 4.12C6.09945 3.64237 6.88055 3.64237 7.37 4.12C7.72474 4.47735 8.26035 4.5847 8.7254 4.39166C9.19046 4.19862 9.4926 3.74352 9.49 3.24C9.49 2.55517 10.0452 2 10.73 2H12.88C13.2089 2 13.5243 2.13064 13.7568 2.36319C13.9894 2.59573 14.12 2.91113 14.12 3.24C14.1174 3.74352 14.4195 4.19862 14.8846 4.39166C15.3496 4.5847 15.8853 4.47735 16.24 4.12C16.7295 3.64237 17.5105 3.64237 18 4.12L19.5 5.62C19.9776 6.10945 19.9776 6.89055 19.5 7.38C19.144 7.73346 19.036 8.26664 19.2264 8.73077ZM8.34 11.81C8.34 13.7209 9.88909 15.27 11.8 15.27C13.7109 15.27 15.26 13.7209 15.26 11.81C15.26 9.8991 13.7109 8.35 11.8 8.35C9.88909 8.35 8.34 9.8991 8.34 11.81Z" fill="black"/>
</svg>
