<svg width="24" height="24" viewBox="0 0 24 24" fill="none" xmlns="http://www.w3.org/2000/svg">
<path d="M13.0236 3.21934L18.7833 9.03934C19.0722 9.33216 19.0722 9.80652 18.7833 10.0993C18.6457 10.2423 18.4569 10.3229 18.2597 10.3229C18.0625 10.3229 17.8737 10.2423 17.7361 10.0993L13.241 5.55934V16.7893C13.241 17.2036 12.9092 17.5393 12.5 17.5393C12.0908 17.5393 11.759 17.2036 11.759 16.7893V5.55934L7.26391 10.0993C7.12636 10.2419 6.93719 10.3214 6.7403 10.3193C6.54364 10.3203 6.35489 10.241 6.2167 10.0993C5.92777 9.80652 5.92777 9.33216 6.2167 9.03934L11.9764 3.21934C12.2657 2.92689 12.7343 2.92689 13.0236 3.21934Z" fill="black"/>
<path d="M7.5603 19.0793H17.4397C17.8489 19.0793 18.1807 19.4151 18.1807 19.8293C18.1807 20.2436 17.8489 20.5793 17.4397 20.5793H7.5603C7.15108 20.5793 6.81934 20.2436 6.81934 19.8293C6.81934 19.4151 7.15108 19.0793 7.5603 19.0793Z" fill="black"/>
</svg>
