<svg width="24" height="24" viewBox="0 0 24 24" fill="none" xmlns="http://www.w3.org/2000/svg">
<path d="M20.6797 14.4001L21.2797 10.2601L21.2397 10.2201C21.3729 9.30902 21.1047 8.38491 20.5043 7.68674C19.904 6.98858 19.0305 6.58491 18.1097 6.58012H7.67973L7.46973 5.89012C7.06979 4.56156 5.85697 3.64386 4.46973 3.62012H3.46973C3.05551 3.62012 2.71973 3.9559 2.71973 4.37012C2.71973 4.78433 3.05551 5.12012 3.46973 5.12012H4.46973C5.2127 5.1201 5.86745 5.60812 6.07973 6.32012L8.60973 14.8501C9.01796 16.1942 10.255 17.1149 11.6597 17.1201H17.5297C19.1064 17.1133 20.4432 15.959 20.6797 14.4001Z" fill="black"/>
<path d="M11.4297 18.3801C10.8774 18.3801 10.4297 18.8278 10.4297 19.3801C10.4297 19.9324 10.8774 20.3801 11.4297 20.3801C11.982 20.3801 12.4297 19.9324 12.4297 19.3801C12.4297 18.8278 11.982 18.3801 11.4297 18.3801Z" fill="black"/>
<path d="M17.4297 18.3801C16.8774 18.3801 16.4297 18.8278 16.4297 19.3801C16.4297 19.9324 16.8774 20.3801 17.4297 20.3801C17.982 20.3801 18.4297 19.9324 18.4297 19.3801C18.4297 18.8278 17.982 18.3801 17.4297 18.3801Z" fill="black"/>
</svg>
