<svg width="24" height="24" viewBox="0 0 24 24" fill="none" xmlns="http://www.w3.org/2000/svg">
<path d="M20.2997 3.70004L21.9997 8.30004C22.3275 9.20107 22.2048 10.2045 21.6697 11C21.0626 11.8851 20.0722 12.4303 18.9997 12.47C17.3259 12.5979 15.8145 11.4708 15.4597 9.83004C15.4597 9.83004 15.3997 9.83004 15.3897 9.83004C15.0582 11.4212 13.6236 12.5385 11.9997 12.47C10.3832 12.5285 8.95994 11.4135 8.6297 9.83004C8.6297 9.83004 8.5697 9.83004 8.5597 9.83004C8.3661 10.71 7.83016 11.4767 7.07026 11.9608C6.31036 12.4448 5.38901 12.6065 4.5097 12.41C3.72811 12.2816 3.01849 11.8771 2.5097 11.27C1.84997 10.4344 1.68253 9.31179 2.0697 8.32004L3.7297 3.70004C4.1197 2.71676 5.08228 2.0817 6.1397 2.11004H17.8897C18.9471 2.0817 19.9097 2.71676 20.2997 3.70004Z" fill="black"/>
<path d="M19.0997 14V19.1C19.084 19.6597 18.8465 20.1902 18.4395 20.5747C18.0325 20.9592 17.4894 21.1662 16.9297 21.15H14.0997V18C14.0458 16.9486 13.1513 16.1391 12.0997 16.19C11.58 16.1843 11.077 16.3734 10.6897 16.72C10.3171 17.0412 10.1019 17.5081 10.0997 18V21.15H7.2697C6.70322 21.1662 6.15407 20.9538 5.74589 20.5606C5.33772 20.1675 5.10484 19.6267 5.0997 19.06V14H5.1797C6.43304 14.0024 7.64338 13.5432 8.5797 12.71C10.5421 14.422 13.4673 14.422 15.4297 12.71C16.3696 13.5503 17.589 14.0102 18.8497 14H19.0997Z" fill="black"/>
</svg>
