<svg width="24" height="24" viewBox="0 0 24 24" fill="none" xmlns="http://www.w3.org/2000/svg">
<path fill-rule="evenodd" clip-rule="evenodd" d="M3.46973 4.25H4.46973L4.51973 4.26C5.90588 4.28689 7.11706 5.20334 7.51973 6.53L7.71973 7.22H18.1497C19.0708 7.22419 19.9453 7.62503 20.5497 8.32C21.1524 9.01937 21.4191 9.94735 21.2797 10.86L20.6797 15C20.4799 16.5869 19.1391 17.7825 17.5397 17.8H11.6597C10.255 17.7948 9.01796 16.8741 8.60973 15.53L6.07973 7C5.88599 6.26818 5.22673 5.75633 4.46973 5.75H3.46973C3.05551 5.75 2.71973 5.41421 2.71973 5C2.71973 4.58579 3.05551 4.25 3.46973 4.25ZM10.0497 15.05C10.262 15.762 10.9168 16.25 11.6597 16.25H17.5397C18.3674 16.241 19.0683 15.6372 19.1997 14.82L19.7997 10.67C19.8814 10.1869 19.7482 9.69227 19.435 9.31558C19.1217 8.93889 18.6596 8.71772 18.1697 8.71H8.16973L10.0497 15.05Z" fill="black"/>
<path d="M11.4297 19C10.8774 19 10.4297 19.4477 10.4297 20C10.4297 20.5523 10.8774 21 11.4297 21C11.982 21 12.4297 20.5523 12.4297 20C12.4297 19.4477 11.982 19 11.4297 19Z" fill="black"/>
<path d="M17.4297 19C16.8774 19 16.4297 19.4477 16.4297 20C16.4297 20.5523 16.8774 21 17.4297 21C17.982 21 18.4297 20.5523 18.4297 20C18.4297 19.4477 17.982 19 17.4297 19Z" fill="black"/>
</svg>
