<svg width="24" height="24" viewBox="0 0 24 24" fill="none" xmlns="http://www.w3.org/2000/svg">
<path fill-rule="evenodd" clip-rule="evenodd" d="M20.7404 6.85986L22.0004 15.1999C22.5104 18.8499 20.0004 22.1699 16.6004 22.1999H7.34036C4.00036 22.1999 1.46036 18.8499 2.00036 15.1999L3.26036 6.85986C3.55948 4.10223 5.82903 1.97719 8.60036 1.85986H15.4004C18.1717 1.97719 20.4412 4.10223 20.7404 6.85986ZM8.10036 7.80986C8.10585 9.96149 9.84873 11.7044 12.0004 11.7099C14.152 11.7044 15.8949 9.96149 15.9004 7.80986C15.9004 7.39565 15.5646 7.05986 15.1504 7.05986C14.7361 7.05986 14.4004 7.39565 14.4004 7.80986C14.4004 9.13535 13.3258 10.2099 12.0004 10.2099C10.6749 10.2099 9.60036 9.13535 9.60036 7.80986C9.60036 7.39565 9.26457 7.05986 8.85036 7.05986C8.43614 7.05986 8.10036 7.39565 8.10036 7.80986Z" fill="black"/>
</svg>
