<svg width="24" height="24" viewBox="0 0 24 24" fill="none" xmlns="http://www.w3.org/2000/svg">
<path fill-rule="evenodd" clip-rule="evenodd" d="M20.7404 6.85986L22.0004 15.1999C22.5104 18.8499 20.0004 22.1699 16.6004 22.1999H7.34036C4.00036 22.1999 1.46036 18.8499 2.00036 15.1999L3.26036 6.85986C3.55948 4.10223 5.82903 1.97719 8.60036 1.85986H15.4004C18.1717 1.97719 20.4412 4.10223 20.7404 6.85986ZM16.6304 20.6699C17.7041 20.6544 18.7168 20.1681 19.4004 19.3399C20.3171 18.2542 20.715 16.8229 20.4904 15.4199L19.2604 7.07986C19.0847 5.04415 17.4403 3.44659 15.4004 3.32986H8.60036C6.56042 3.44659 4.91599 5.04415 4.74036 7.07986L3.51036 15.4199C3.28567 16.8229 3.68365 18.2542 4.60036 19.3399C5.28387 20.1681 6.29662 20.6544 7.37036 20.6699H16.6304Z" fill="black"/>
<path d="M15.1504 7.05986C14.7361 7.05986 14.4004 7.39565 14.4004 7.80986C14.4004 9.13535 13.3258 10.2099 12.0004 10.2099C10.6749 10.2099 9.60036 9.13535 9.60036 7.80986C9.60036 7.39565 9.26457 7.05986 8.85036 7.05986C8.43614 7.05986 8.10036 7.39565 8.10036 7.80986C8.10036 9.2032 8.84369 10.4907 10.0504 11.1874C11.257 11.884 12.7437 11.884 13.9504 11.1874C15.157 10.4907 15.9004 9.2032 15.9004 7.80986C15.895 7.3979 15.5623 7.06525 15.1504 7.05986Z" fill="black"/>
</svg>
