<svg width="24" height="24" viewBox="0 0 24 24" fill="none" xmlns="http://www.w3.org/2000/svg">
<path d="M16.2385 15.5943C15.4946 15.131 14.5639 15.0856 13.7785 15.4743L10.7785 12.4743C11.0007 11.9676 11.0499 11.4018 10.9185 10.8643C10.8962 10.7895 10.8694 10.716 10.8385 10.6443L13.7785 7.70433C14.8794 8.24712 16.2117 7.90299 16.912 6.89498C17.6122 5.88697 17.4698 4.51834 16.5771 3.67607C15.6843 2.83381 14.3096 2.77132 13.3441 3.52909C12.3786 4.28687 12.1126 5.63694 12.7185 6.70433L9.9485 9.43433C9.00536 8.76394 7.72541 8.82839 6.85437 9.59013C5.98333 10.3519 5.74886 11.6118 6.28756 12.6359C6.82626 13.66 7.99733 14.1806 9.1185 13.8943C9.35153 13.8259 9.57372 13.7249 9.7785 13.5943L12.7785 16.5943C12.1624 17.7989 12.6209 19.2751 13.811 19.9186C15.0012 20.5621 16.4875 20.1375 17.158 18.9623C17.8286 17.7871 17.438 16.2916 16.2785 15.5943H16.2385Z" fill="black"/>
</svg>
