<svg width="24" height="24" viewBox="0 0 24 24" fill="none" xmlns="http://www.w3.org/2000/svg">
<path fill-rule="evenodd" clip-rule="evenodd" d="M20.2805 3.81992L21.9405 8.42992C22.3017 9.32256 22.2124 10.3343 21.7005 11.1499C21.2649 11.768 20.6347 12.2223 19.9105 12.4399V19.2399C19.8947 20.0038 19.5761 20.7301 19.0247 21.259C18.4733 21.7879 17.7344 22.076 16.9705 22.0599H7.31049C6.53714 22.0896 5.7842 21.8078 5.2203 21.2778C4.6564 20.7477 4.32866 20.0136 4.31049 19.2399V12.5399C3.60644 12.3787 2.9723 11.9968 2.50049 11.4499C1.82208 10.6031 1.65383 9.4559 2.06049 8.44992L3.71049 3.82992C4.09963 2.84463 5.06141 2.2061 6.12049 2.22992H17.8705C18.9279 2.20157 19.8905 2.83663 20.2805 3.81992ZM13.3519 20.4299H13.3605V20.4599C13.3575 20.45 13.3546 20.44 13.3519 20.4299ZM13.3519 20.4299H10.8105C10.82 20.3535 10.82 20.2763 10.8105 20.1999V18.0899C10.8279 17.7726 10.9747 17.4764 11.2167 17.2703C11.4586 17.0643 11.7745 16.9666 12.0905 16.9999C12.7189 16.9538 13.2674 17.422 13.3205 18.0499V20.1899C13.3205 20.271 13.3311 20.3517 13.3519 20.4299ZM16.9205 20.4299H14.8105C14.82 20.3535 14.82 20.2763 14.8105 20.1999V18.0899C14.7562 16.6174 13.5233 15.4649 12.0505 15.5099C10.5738 15.4593 9.33475 16.6134 9.28049 18.0899V20.2299C9.27097 20.3063 9.27097 20.3835 9.28049 20.4599H7.26049C6.52388 20.4939 5.89823 19.9263 5.86049 19.1899V12.5199C7.19286 12.3188 8.26292 11.3163 8.55049 9.99992C8.9027 11.597 10.3686 12.6975 12.0005 12.5899C13.603 12.6571 15.023 11.5657 15.3705 9.99992C15.6519 11.3992 16.8108 12.4528 18.2305 12.5999V19.2399C18.1693 19.9214 17.6046 20.4473 16.9205 20.4599V20.4299ZM18.9205 10.8399C19.4506 10.826 19.9418 10.5581 20.2405 10.1199V10.1499C20.448 9.80032 20.474 9.37209 20.3105 8.99992L18.6605 4.44992C18.5141 4.15234 18.2011 3.97405 17.8705 3.99992H6.12049C5.80239 3.97083 5.4969 4.13141 5.34049 4.40992L3.69049 8.99992C3.47605 9.42433 3.51455 9.93265 3.79049 10.3199C4.03973 10.6262 4.39837 10.8234 4.79049 10.8699C4.91673 10.8846 5.04425 10.8846 5.17049 10.8699C5.93995 10.9119 6.63489 10.4126 6.84049 9.66992C6.99306 8.82461 7.72165 8.20489 8.58049 8.18992C9.44858 8.1895 10.1873 8.8221 10.3205 9.67991C10.524 10.4272 11.228 10.9258 12.0005 10.8699C12.7793 10.9218 13.4831 10.4076 13.6705 9.64992C13.8151 8.79855 14.547 8.17184 15.4105 8.15991C16.2753 8.15873 17.0129 8.78608 17.1505 9.63991C17.3542 10.3927 18.0626 10.8957 18.8405 10.8399H18.9205Z" fill="black"/>
</svg>
