<svg width="24" height="24" viewBox="0 0 24 24" fill="none" xmlns="http://www.w3.org/2000/svg">
<path fill-rule="evenodd" clip-rule="evenodd" d="M10.1244 4.55018C10.4124 3.61856 11.2793 2.9877 12.2544 3.00018C13.2349 2.99033 14.1036 3.63063 14.3844 4.57018L15.0444 6.57018C15.3408 7.49581 16.2025 8.12289 17.1744 8.12018H19.2544C20.2492 8.08249 21.1495 8.70582 21.4643 9.65023C21.7791 10.5946 21.4328 11.6335 20.6144 12.2002L18.9044 13.4502C18.1162 14.0163 17.7846 15.0272 18.0844 15.9502L18.7444 17.9502C18.9712 18.6425 18.8487 19.4019 18.4157 19.9878C17.9827 20.5737 17.2928 20.9137 16.5644 20.9002C16.092 20.8966 15.6331 20.7425 15.2544 20.4602L13.6144 19.2102C12.8279 18.6365 11.7609 18.6365 10.9744 19.2102L9.25439 20.4602C8.87111 20.7686 8.39625 20.9409 7.90439 20.9502C7.17067 20.9563 6.48006 20.6042 6.05396 20.0069C5.62785 19.4095 5.51978 18.642 5.76439 17.9502L6.42439 15.9502C6.74237 15.03 6.42662 14.0098 5.64439 13.4302L3.93439 12.1802C3.14176 11.6115 2.8083 10.5953 3.10992 9.66755C3.41154 8.73983 4.27889 8.11399 5.25439 8.12018H7.33439C8.31172 8.12014 9.17514 7.48372 9.46439 6.55018L10.1244 4.55018ZM12.7844 5.07018C12.7229 4.83072 12.5013 4.66766 12.2544 4.68018C11.9952 4.67131 11.7691 4.85474 11.7244 5.11018L11.0644 7.11018C10.5399 8.7265 9.03368 9.8208 7.33439 9.82018H5.21439C4.97875 9.82697 4.77259 9.98059 4.69871 10.2045C4.62484 10.4283 4.69907 10.6745 4.88439 10.8202L6.59439 12.0702C7.97367 13.0678 8.55146 14.8416 8.02439 16.4602L7.36439 18.4602C7.29957 18.6244 7.32617 18.8107 7.43439 18.9502C7.54661 19.1117 7.72786 19.2116 7.92439 19.2202C8.04441 19.2166 8.1601 19.1745 8.25439 19.1002L9.94439 17.8502C11.3218 16.8494 13.187 16.8494 14.5644 17.8502L16.2344 19.0402C16.3287 19.1145 16.4444 19.1566 16.5644 19.1602C16.752 19.148 16.9244 19.0526 17.0344 18.9002C17.1426 18.7607 17.1692 18.5744 17.1044 18.4102L16.4444 16.4102C15.9173 14.7916 16.4951 13.0178 17.8744 12.0202L19.5844 10.7802C19.7697 10.6345 19.8439 10.3883 19.7701 10.1645C19.6962 9.94059 19.49 9.78697 19.2544 9.78018H17.1744C15.4751 9.7808 13.9689 8.6865 13.4444 7.07018L12.7844 5.07018Z" fill="black"/>
</svg>
