<svg width="24" height="24" viewBox="0 0 24 24" fill="none" xmlns="http://www.w3.org/2000/svg">
<path fill-rule="evenodd" clip-rule="evenodd" d="M12.5293 2.52932L20.9793 10.9793C21.773 11.9862 21.6175 13.4426 20.6293 14.2593L14.2593 20.6293C13.4426 21.6175 11.9862 21.773 10.9793 20.9793L2.52932 12.5293C2.14464 12.1337 1.95432 11.5884 2.00932 11.0393L2.44932 5.03932C2.58922 3.67103 3.67103 2.58922 5.03932 2.44932L11.0393 2.00932C11.5884 1.95432 12.1337 2.14464 12.5293 2.52932ZM7.67932 9.10832C8.05734 9.10832 8.41882 8.95325 8.67932 8.67932C8.95325 8.41881 9.10832 8.05734 9.10832 7.67932C9.10832 7.3013 8.95325 6.93983 8.67932 6.67932C8.12704 6.12704 7.23161 6.12704 6.67932 6.67932C6.12704 7.2316 6.12704 8.12704 6.67932 8.67932C6.93983 8.95325 7.3013 9.10832 7.67932 9.10832Z" fill="black"/>
</svg>
