<svg width="24" height="24" viewBox="0 0 24 24" fill="none" xmlns="http://www.w3.org/2000/svg">
<path d="M7.5794 9.0802C8.40783 9.0802 9.0794 8.40863 9.0794 7.5802C9.0794 6.75178 8.40783 6.0802 7.5794 6.0802C6.75098 6.0802 6.0794 6.75178 6.0794 7.5802C6.0794 8.40863 6.75098 9.0802 7.5794 9.0802Z" fill="black"/>
<path fill-rule="evenodd" clip-rule="evenodd" d="M11.1594 2.0202H11.0794L5.0794 2.4502C3.68196 2.57525 2.57445 3.68276 2.4494 5.0802L2.0094 11.0802C1.95416 11.6323 2.14429 12.1808 2.5294 12.5802L10.9694 21.0202C11.3259 21.3636 11.8045 21.5507 12.2994 21.5402C13.0565 21.5336 13.7784 21.2196 14.2994 20.6702L20.6694 14.3102C21.6589 13.4899 21.8142 12.0303 21.0194 11.0202L12.5294 2.5202C12.1711 2.17961 11.6937 1.99294 11.1994 2.0002L11.1594 2.0202ZM11.1994 3.6302C11.258 3.61178 11.3208 3.61178 11.3794 3.6302L19.8294 12.0802C19.9111 12.455 19.7713 12.8435 19.4694 13.0802L13.0794 19.4702C12.8689 19.6986 12.5792 19.8381 12.2694 19.8602H12.0994L3.6794 11.3702C3.65251 11.2993 3.65251 11.2211 3.6794 11.1502L4.1194 5.1502C4.1979 4.60602 4.61767 4.17415 5.1594 4.0802L11.1594 3.6502L11.1994 3.6302Z" fill="black"/>
</svg>
