<svg width="24" height="24" viewBox="0 0 24 24" fill="none" xmlns="http://www.w3.org/2000/svg">
<path fill-rule="evenodd" clip-rule="evenodd" d="M18.75 5H16.08L14.87 3.68C14.4271 3.24459 13.8311 3.00041 13.21 3H10.29C9.65816 3.00529 9.05413 3.26056 8.61 3.71L7.42 5H4.75C4.33579 5 4 5.33579 4 5.75C4 6.16421 4.33579 6.5 4.75 6.5H18.75C19.1642 6.5 19.5 6.16421 19.5 5.75C19.5 5.33579 19.1642 5 18.75 5ZM9.69 4.74C9.8496 4.58138 10.065 4.49163 10.29 4.49H13.21C13.4257 4.48936 13.6334 4.57171 13.79 4.72L14.04 4.99H9.46L9.69 4.74Z" fill="black"/>
<path fill-rule="evenodd" clip-rule="evenodd" d="M4.23 9.52V17C4.23 19.4632 6.22681 21.46 8.69 21.46H14.81C17.2732 21.46 19.27 19.4632 19.27 17V9.52C19.27 8.41543 18.3746 7.52 17.27 7.52H6.27C5.73267 7.50925 5.21363 7.71521 4.82986 8.09145C4.44609 8.4677 4.22989 8.98256 4.23 9.52ZM9.5 13.05C9.5 13.4642 9.16421 13.8 8.75 13.8C8.33579 13.8 8 13.4642 8 13.05V10.68C8 10.2658 8.33579 9.93 8.75 9.93C9.16421 9.93 9.5 10.2658 9.5 10.68V13.05ZM11.75 17.75C12.1642 17.75 12.5 17.4142 12.5 17V10.68C12.5 10.2658 12.1642 9.93 11.75 9.93C11.3358 9.93 11 10.2658 11 10.68V17C11 17.4142 11.3358 17.75 11.75 17.75ZM15.5 13.05C15.5 13.4642 15.1642 13.8 14.75 13.8C14.3358 13.8 14 13.4642 14 13.05V10.68C14 10.2658 14.3358 9.93 14.75 9.93C15.1642 9.93 15.5 10.2658 15.5 10.68V13.05Z" fill="black"/>
</svg>
