<svg width="24" height="24" viewBox="0 0 24 24" fill="none" xmlns="http://www.w3.org/2000/svg">
<path fill-rule="evenodd" clip-rule="evenodd" d="M12 2C6.47715 2 2 6.47715 2 12C2 17.5228 6.47715 22 12 22C17.5228 22 22 17.5228 22 12C22 9.34784 20.9464 6.8043 19.0711 4.92893C17.1957 3.05357 14.6522 2 12 2ZM3.5 12C3.49028 8.61789 5.4912 5.5534 8.5916 4.202C11.692 2.8506 15.299 3.47073 17.77 5.78L5.77 17.78C4.30543 16.2124 3.49363 14.1453 3.5 12ZM6.9 18.78C8.36674 19.8945 10.1578 20.4986 12 20.5C15.2228 20.5077 18.1714 18.6878 19.6093 15.8035C21.0472 12.9192 20.7259 9.4691 18.78 6.9L6.9 18.78Z" fill="black"/>
</svg>
