<svg width="24" height="24" viewBox="0 0 24 24" fill="none" xmlns="http://www.w3.org/2000/svg">
<path fill-rule="evenodd" clip-rule="evenodd" d="M2 12C2 6.47715 6.47715 2 12 2C14.6522 2 17.1957 3.05357 19.0711 4.92893C20.9464 6.8043 22 9.34784 22 12C22 17.5228 17.5228 22 12 22C6.47715 22 2 17.5228 2 12ZM7.72 17.11L17.11 7.72C17.3008 7.48535 17.2833 7.1444 17.0695 6.93053C16.8556 6.71666 16.5146 6.69915 16.28 6.89L6.89 16.28C6.6625 16.5099 6.6625 16.8801 6.89 17.11C7.00407 17.2168 7.15376 17.2774 7.31 17.28C7.4638 17.2799 7.61128 17.2188 7.72 17.11Z" fill="black"/>
</svg>
