<svg width="24" height="24" viewBox="0 0 24 24" fill="none" xmlns="http://www.w3.org/2000/svg">
<path d="M13.4626 13.902C13.4626 12.9852 12.7194 12.242 11.8026 12.242C10.8859 12.242 10.1426 12.9852 10.1426 13.902C10.1413 14.2907 10.2797 14.6669 10.5326 14.962C10.7875 15.2276 10.8759 15.6118 10.7626 15.962L10.5526 16.582C10.4714 16.8608 10.5251 17.1616 10.6978 17.3951C10.8704 17.6286 11.1423 17.768 11.4326 17.772H12.1726C12.4726 17.7719 12.7542 17.6271 12.9287 17.3832C13.1033 17.1392 13.1494 16.826 13.0526 16.542L12.8026 15.922C12.6894 15.5718 12.7778 15.1876 13.0326 14.922C13.2913 14.6431 13.4435 14.282 13.4626 13.902Z" fill="black"/>
<path fill-rule="evenodd" clip-rule="evenodd" d="M14.6926 7.77202C16.0822 7.71692 17.4256 8.27612 18.3657 9.30094C19.3058 10.3258 19.7472 11.7123 19.5726 13.092L18.6226 18.862C18.1655 21.18 16.1045 22.8313 13.7426 22.772H9.86265C7.51752 22.8241 5.47121 21.1904 5.00265 18.892L4.05265 13.122C3.72137 10.951 4.98116 8.85136 7.05265 8.12202V5.00202C7.0521 4.18694 7.38323 3.40672 7.96986 2.84084C8.55649 2.27496 9.34812 1.97213 10.1626 2.00202H13.4426C14.2572 1.97213 15.0488 2.27496 15.6354 2.84084C16.2221 3.40672 16.5532 4.18694 16.5526 5.00202C16.5526 5.41623 16.2169 5.75202 15.8026 5.75202C15.3884 5.75202 15.0526 5.41623 15.0526 5.00202C15.0148 4.14965 14.2952 3.48815 13.4426 3.52202H10.1626C9.31011 3.48815 8.59051 4.14965 8.55265 5.00202V7.77202H14.6926ZM16.8026 18.562L17.8026 12.772C17.9019 12.023 17.6638 11.2685 17.1526 10.712C16.531 10.0071 15.6324 9.60892 14.6926 9.62202H8.91265C7.97604 9.60387 7.07796 9.99449 6.45265 10.692C5.95367 11.2618 5.73381 12.024 5.85265 12.772L6.80265 18.562C7.1127 19.9884 8.40434 20.9845 9.86265 20.922H13.7426C15.2009 20.9845 16.4926 19.9884 16.8026 18.562Z" fill="black"/>
</svg>
