<svg width="24" height="24" viewBox="0 0 24 24" fill="none" xmlns="http://www.w3.org/2000/svg">
<path fill-rule="evenodd" clip-rule="evenodd" d="M8.55151 7.78202H14.6915C16.0885 7.7199 17.4413 8.27909 18.3867 9.3094C19.3321 10.3397 19.7732 11.7355 19.5915 13.122L18.6415 18.892C18.1849 21.2117 16.1251 22.8663 13.7615 22.812H9.88151C7.5179 22.8663 5.45817 21.2117 5.00151 18.892L4.05151 13.122C3.72437 10.9518 4.9827 8.85462 7.05151 8.12202V5.00202C7.05096 4.18694 7.38209 3.40672 7.96872 2.84084C8.55535 2.27496 9.34698 1.97213 10.1615 2.00202H13.4415C14.256 1.97213 15.0477 2.27496 15.6343 2.84084C16.2209 3.40672 16.5521 4.18694 16.5515 5.00202C16.5515 5.41623 16.2157 5.75202 15.8015 5.75202C15.3873 5.75202 15.0515 5.41623 15.0515 5.00202C15.0137 4.14965 14.294 3.48815 13.4415 3.52202H10.1615C9.30898 3.48815 8.58937 4.14965 8.55151 5.00202V7.78202ZM13.0115 16.552L12.8015 15.932C12.6883 15.5818 12.7766 15.1976 13.0315 14.932C13.5982 14.2588 13.541 13.2604 12.9013 12.6562C12.2615 12.052 11.2615 12.052 10.6217 12.6562C9.98199 13.2604 9.92486 14.2588 10.4915 14.932C10.7464 15.1976 10.8347 15.5818 10.7215 15.932L10.5115 16.552C10.4194 16.8358 10.4675 17.1464 10.6411 17.3891C10.8147 17.6317 11.0932 17.7775 11.3915 17.782H12.1315C12.4298 17.7775 12.7083 17.6317 12.8819 17.3891C13.0555 17.1464 13.1036 16.8358 13.0115 16.552Z" fill="black"/>
</svg>
