<svg width="24" height="24" viewBox="0 0 24 24" fill="none" xmlns="http://www.w3.org/2000/svg">
<path d="M16.6396 22H7.35961C6.34878 21.9633 5.40717 21.477 4.79195 20.6742C4.17673 19.8713 3.95217 18.8356 4.17961 17.85L4.41961 16.71C4.69564 15.1668 6.02223 14.0327 7.58961 14H16.4096C17.977 14.0327 19.3036 15.1668 19.5796 16.71L19.8196 17.85C20.047 18.8356 19.8225 19.8713 19.2073 20.6742C18.592 21.477 17.6504 21.9633 16.6396 22Z" fill="black"/>
<path d="M12.4996 12H11.4996C9.29047 12 7.49961 10.2092 7.49961 8.00001V5.36001C7.49694 4.46807 7.85008 3.61189 8.48078 2.98119C9.11148 2.35049 9.96766 1.99735 10.8596 2.00001H13.1396C14.0315 1.99735 14.8877 2.35049 15.5184 2.98119C16.1491 3.61189 16.5023 4.46807 16.4996 5.36001V8.00001C16.4996 9.06088 16.0782 10.0783 15.328 10.8284C14.5779 11.5786 13.5605 12 12.4996 12Z" fill="black"/>
</svg>
