<svg width="24" height="24" viewBox="0 0 24 24" fill="none" xmlns="http://www.w3.org/2000/svg">
<path fill-rule="evenodd" clip-rule="evenodd" d="M15.9997 8.76003C15.9671 10.3934 14.6334 11.7004 12.9997 11.7C11.3855 11.6734 10.0818 10.3742 10.0497 8.76003V7.63003C10.0495 6.96442 10.318 6.3269 10.7943 5.86192C11.2705 5.39694 11.9143 5.14386 12.5797 5.16003H13.5197C14.1765 5.15737 14.8074 5.41643 15.2727 5.87993C15.7381 6.34344 15.9997 6.97321 15.9997 7.63003V8.76003ZM12.5497 6.63003C11.9974 6.63003 11.5497 7.07775 11.5497 7.63003L11.5897 8.76003C11.5897 9.56084 12.2389 10.21 13.0397 10.21C13.8405 10.21 14.4897 9.56084 14.4897 8.76003V7.63003C14.4897 7.07775 14.042 6.63003 13.4897 6.63003H12.5497Z" fill="black"/>
<path fill-rule="evenodd" clip-rule="evenodd" d="M23.4797 15.3L23.5897 16.86C23.7053 17.3483 23.5925 17.8625 23.2831 18.2575C22.9737 18.6525 22.5014 18.8853 21.9997 18.89H17.5097C17.118 19.3076 16.5722 19.5461 15.9997 19.55H9.99973C9.39831 19.5581 8.82258 19.3067 8.41973 18.86C8.32668 18.8704 8.23278 18.8704 8.13973 18.86H3.54973C3.0617 18.8416 2.60691 18.608 2.30774 18.2219C2.00858 17.8359 1.89579 17.3372 1.99973 16.86L2.14973 15.3C2.29565 14.5557 2.94134 14.0141 3.69973 14H7.99973C8.17922 13.9901 8.35898 14.0138 8.52973 14.07C8.91338 13.5908 9.49587 13.3143 10.1097 13.32H15.8897C16.4677 13.3179 17.0183 13.5658 17.3997 14C17.4694 13.9902 17.5401 13.9902 17.6097 14H21.9297C22.6881 14.0141 23.3338 14.5557 23.4797 15.3ZM17.5497 17.36H22.0797C22.1103 17.3011 22.114 17.2318 22.0897 17.17V16.97L21.9897 15.55L21.9297 15.47H17.3997C16.977 15.4716 16.5735 15.2934 16.2897 14.98C16.1905 14.8614 16.0444 14.792 15.8897 14.79H10.1097C9.9422 14.7922 9.78444 14.8692 9.67973 15C9.39427 15.3389 8.9728 15.5331 8.52973 15.53C8.3483 15.5309 8.16839 15.4969 7.99973 15.43H3.74973C3.68973 15.43 3.68973 15.45 3.68973 15.51L3.58973 16.93V17.13C3.56235 17.1904 3.56235 17.2597 3.58973 17.32H8.17973C8.28618 17.3103 8.39329 17.3103 8.49973 17.32C8.90613 17.3276 9.2907 17.5053 9.55973 17.81C9.67007 17.9392 9.82996 18.0155 9.99973 18.02H16.0397C16.2098 18.0167 16.3702 17.9402 16.4797 17.81C16.7609 17.5216 17.1469 17.3592 17.5497 17.36Z" fill="black"/>
<path fill-rule="evenodd" clip-rule="evenodd" d="M21.9697 10.26C21.9697 11.4751 20.9848 12.46 19.7697 12.46C19.1845 12.4627 18.6224 12.2321 18.2076 11.8192C17.7929 11.4063 17.5597 10.8452 17.5597 10.26V9.42003C17.5597 8.92938 17.7546 8.45883 18.1016 8.11188C18.4485 7.76494 18.9191 7.57003 19.4097 7.57003H20.1197C21.1415 7.57003 21.9697 8.3983 21.9697 9.42003V10.26ZM19.1622 9.21254C19.0966 9.27818 19.0597 9.36721 19.0597 9.46003V10.3C19.1023 10.6571 19.4051 10.9259 19.7647 10.9259C20.1243 10.9259 20.4271 10.6571 20.4697 10.3V9.46003C20.4697 9.26673 20.313 9.11003 20.1197 9.11003H19.4097C19.3169 9.11003 19.2279 9.14691 19.1622 9.21254Z" fill="black"/>
<path fill-rule="evenodd" clip-rule="evenodd" d="M7.42184 11.8192C7.00709 12.2321 6.44494 12.4627 5.85973 12.46C5.27626 12.46 4.71668 12.2282 4.3041 11.8157C3.89152 11.4031 3.65973 10.8435 3.65973 10.26V9.42003C3.65973 8.3983 4.48801 7.57003 5.50973 7.57003H6.21973C7.24146 7.57003 8.06973 8.3983 8.06973 9.42003V10.26C8.06974 10.8452 7.83658 11.4063 7.42184 11.8192ZM5.50973 9.11003C5.31643 9.11003 5.15973 9.26673 5.15973 9.46003V10.3C5.20233 10.6571 5.50515 10.9259 5.86473 10.9259C6.22432 10.9259 6.52713 10.6571 6.56973 10.3V9.46003C6.56973 9.26673 6.41303 9.11003 6.21973 9.11003H5.50973Z" fill="black"/>
</svg>
