<svg width="24" height="24" viewBox="0 0 24 24" fill="none" xmlns="http://www.w3.org/2000/svg">
<path d="M14.65 22H5.35999C4.34955 21.9639 3.40833 21.4774 2.79458 20.6739C2.18083 19.8704 1.95901 18.8344 2.18999 17.85L2.41999 16.71C2.69603 15.1668 4.02261 14.0327 5.58999 14H14.41C15.9797 14.0319 17.3096 15.1652 17.59 16.71L17.82 17.85C18.0472 18.834 17.8239 19.8679 17.2109 20.6704C16.5979 21.4729 15.659 21.9604 14.65 22Z" fill="black"/>
<path d="M10.5 12H9.49999C7.29085 12 5.49999 10.2092 5.49999 8.00001V5.36001C5.49999 3.50434 7.00431 2.00001 8.85999 2.00001H11.14C12.0319 1.99735 12.8881 2.35049 13.5188 2.98119C14.1495 3.61189 14.5027 4.46807 14.5 5.36001V8.00001C14.5 10.2092 12.7091 12 10.5 12Z" fill="black"/>
<path d="M21 6.25002H19.63V4.88002C19.63 4.4658 19.2942 4.13002 18.88 4.13002C18.4658 4.13002 18.13 4.4658 18.13 4.88002V6.25002H16.77C16.3558 6.25002 16.02 6.5858 16.02 7.00002C16.02 7.41423 16.3558 7.75002 16.77 7.75002H18.13V9.12002C18.13 9.53423 18.4658 9.87002 18.88 9.87002C19.2942 9.87002 19.63 9.53423 19.63 9.12002V7.75002H21C21.4142 7.75002 21.75 7.41423 21.75 7.00002C21.75 6.5858 21.4142 6.25002 21 6.25002Z" fill="black"/>
</svg>
