<svg width="24" height="24" viewBox="0 0 24 24" fill="none" xmlns="http://www.w3.org/2000/svg">
<path fill-rule="evenodd" clip-rule="evenodd" d="M14.2899 14C15.8596 14.0319 17.1895 15.1652 17.4699 16.71L17.6999 17.85C17.927 18.834 17.7037 19.8679 17.0907 20.6704C16.4778 21.4729 15.5389 21.9604 14.5299 22H5.23988C4.22944 21.9639 3.28821 21.4774 2.67446 20.6739C2.06071 19.8704 1.8389 18.8344 2.06988 17.85L2.29988 16.71C2.57591 15.1668 3.9025 14.0327 5.46988 14H14.2899ZM14.5299 20.5C15.0352 20.4955 15.5106 20.2596 15.8199 19.86C16.2163 19.3815 16.3678 18.7459 16.2299 18.14L15.9999 17C15.8587 16.1556 15.1453 15.5256 14.2899 15.49H5.46988C4.61679 15.5264 3.90667 16.1572 3.76988 17L3.58988 18.15C3.45519 18.7527 3.60652 19.3839 3.99988 19.86C4.29822 20.2462 4.75223 20.4806 5.23988 20.5H14.5299Z" fill="black"/>
<path fill-rule="evenodd" clip-rule="evenodd" d="M10.3799 12H9.37987C7.17074 12 5.37987 10.2092 5.37987 8.00001V5.36001C5.37987 3.50434 6.8842 2.00001 8.73987 2.00001H10.9999C11.8953 1.99199 12.7566 2.34277 13.3917 2.97405C14.0267 3.60534 14.3826 4.46458 14.3799 5.36001V8.00001C14.3799 10.2092 12.589 12 10.3799 12ZM8.73987 3.50001C7.71262 3.50001 6.87987 4.33276 6.87987 5.36001V8.00001C6.88524 9.37072 7.98925 10.4836 9.35987 10.5H10.3599C11.0229 10.5 11.6588 10.2366 12.1276 9.76778C12.5965 9.29894 12.8599 8.66305 12.8599 8.00001V5.36001C12.8599 4.33276 12.0271 3.50001 10.9999 3.50001H8.73987Z" fill="black"/>
<path d="M21.3799 6.25001H19.9999V4.88001C19.9999 4.4658 19.6641 4.13001 19.2499 4.13001C18.8357 4.13001 18.4999 4.4658 18.4999 4.88001V6.25001H17.1399C16.7257 6.25001 16.3899 6.5858 16.3899 7.00001C16.3899 7.41423 16.7257 7.75001 17.1399 7.75001H18.5099V9.12001C18.5099 9.53423 18.8457 9.87001 19.2599 9.87001C19.6741 9.87001 20.0099 9.53423 20.0099 9.12001V7.75001H21.3799C21.7941 7.75001 22.1299 7.41423 22.1299 7.00001C22.1299 6.5858 21.7941 6.25001 21.3799 6.25001Z" fill="black"/>
</svg>
