<svg width="24" height="24" viewBox="0 0 24 24" fill="none" xmlns="http://www.w3.org/2000/svg">
<path d="M12.18 11.35C13.8176 11.3502 15.1528 10.0373 15.18 8.40001V7.28001C15.1801 6.61528 14.9134 5.97834 14.4396 5.51209C13.9658 5.04583 13.3247 4.78928 12.66 4.80001H11.71C10.3443 4.80551 9.24003 5.91424 9.24004 7.28001V8.40001C9.26663 10.0142 10.5659 11.3179 12.18 11.35Z" fill="black"/>
<path d="M22.78 16.51L22.66 15C22.5303 14.2417 21.8793 13.683 21.11 13.67H16.79C16.7238 13.6597 16.6563 13.6597 16.59 13.67C16.2068 13.2395 15.6564 12.9953 15.08 13H9.29004C8.67968 12.9973 8.10151 13.2735 7.72004 13.75C7.55665 13.6903 7.38401 13.6598 7.21004 13.66H2.89004C2.11763 13.6739 1.46545 14.2377 1.34004 15L1.22004 16.56C1.11955 17.0384 1.23502 17.5368 1.53567 17.9222C1.83632 18.3077 2.29157 18.541 2.78004 18.56H7.33004C7.41974 18.5703 7.51034 18.5703 7.60004 18.56C7.99666 18.9978 8.55932 19.2482 9.15004 19.25H15.22C15.7928 19.2473 16.339 19.0085 16.73 18.59H21.22C21.7262 18.576 22.1984 18.3318 22.5022 17.9266C22.8061 17.5215 22.9084 16.9999 22.78 16.51Z" fill="black"/>
<path d="M19 12.11C20.2151 12.11 21.2 11.125 21.2 9.91001V9.06001C21.2002 8.56057 20.9985 8.08227 20.6406 7.73386C20.2828 7.38544 19.7993 7.19651 19.3 7.21001H18.6C17.5783 7.21001 16.75 8.03828 16.75 9.06001V9.91001C16.7499 10.5022 16.9885 11.0695 17.412 11.4836C17.8354 11.8976 18.4079 12.1235 19 12.11Z" fill="black"/>
<path d="M5.05004 12.11C6.26507 12.11 7.25004 11.125 7.25004 9.91001V9.06001C7.25004 8.03828 6.42177 7.21001 5.40004 7.21001H4.70004C3.67831 7.21001 2.85004 8.03828 2.85004 9.06001V9.91001C2.85004 11.125 3.83501 12.11 5.05004 12.11Z" fill="black"/>
</svg>
