<svg width="24" height="24" viewBox="0 0 24 24" fill="none" xmlns="http://www.w3.org/2000/svg">
<path fill-rule="evenodd" clip-rule="evenodd" d="M19.5796 16.71L19.8196 17.85C20.047 18.8356 19.8225 19.8713 19.2073 20.6742C18.592 21.4771 17.6504 21.9633 16.6396 22H7.35961C6.34878 21.9633 5.40717 21.4771 4.79195 20.6742C4.17673 19.8713 3.95217 18.8356 4.17961 17.85L4.41961 16.71C4.69564 15.1668 6.02223 14.0327 7.58961 14H16.4096C17.977 14.0327 19.3036 15.1668 19.5796 16.71ZM16.6396 20.49C17.1474 20.4841 17.6253 20.2489 17.9396 19.85V19.86C18.3253 19.3762 18.4756 18.7458 18.3496 18.14L18.1096 17C17.9764 16.1552 17.2642 15.5226 16.4096 15.49H7.58961C6.73497 15.5226 6.02277 16.1552 5.88961 17L5.64961 18.14C5.52676 18.7426 5.67687 19.3687 6.05961 19.85C6.37394 20.2489 6.85182 20.4841 7.35961 20.49H16.6396Z" fill="black"/>
<path fill-rule="evenodd" clip-rule="evenodd" d="M12.4996 12H11.4996C9.29045 12 7.49959 10.2092 7.49959 8.00001V5.36001C7.49692 4.46807 7.85007 3.61189 8.48077 2.98119C9.11147 2.35049 9.96765 1.99735 10.8596 2.00001H13.1396C14.0315 1.99735 14.8877 2.35049 15.5184 2.98119C16.1491 3.61189 16.5023 4.46807 16.4996 5.36001V8.00001C16.4996 10.2092 14.7087 12 12.4996 12ZM10.8596 3.50002C9.83234 3.50002 8.99959 4.33277 8.99959 5.36001V8.00001C8.99959 9.38073 10.1189 10.5 11.4996 10.5H12.4996C13.8803 10.5 14.9996 9.38073 14.9996 8.00001V5.36001C14.9996 4.86671 14.8036 4.39361 14.4548 4.0448C14.106 3.69598 13.6329 3.50002 13.1396 3.50002H10.8596Z" fill="black"/>
</svg>
