<svg width="24" height="24" viewBox="0 0 24 24" fill="none" xmlns="http://www.w3.org/2000/svg">
<path fill-rule="evenodd" clip-rule="evenodd" d="M21.7401 14.7399L21.8801 15.4299C22.0326 16.0194 21.9082 16.6462 21.5423 17.1328C21.1764 17.6194 20.6087 17.9128 20.0001 17.9299H16.1901C16.191 19.5485 14.9078 20.876 13.2901 20.9299H5.00011C4.08464 20.9148 3.22623 20.4824 2.66911 19.7558C2.112 19.0292 1.91719 18.088 2.14011 17.1999L2.35011 16.1999C2.59429 14.8224 3.78124 13.8116 5.18011 13.7899H13.1201C13.4745 13.3664 13.9979 13.1212 14.5501 13.1199H19.8401C20.7741 13.1497 21.563 13.8224 21.7401 14.7399ZM19.9801 16.4199C20.1021 16.4154 20.2157 16.3568 20.2901 16.2599C20.4209 16.128 20.4868 15.945 20.4701 15.7599L20.3301 15.0699C20.303 14.8464 20.1242 14.6718 19.9001 14.6499H14.6101C14.495 14.6507 14.3872 14.7065 14.3201 14.7999C14.0333 15.1302 13.6175 15.3199 13.1801 15.3199H5.2401C4.55552 15.3366 3.98189 15.8428 3.8801 16.5199L3.6701 17.5199C3.56754 18.0125 3.68837 18.5251 4.0001 18.9199C4.2436 19.227 4.60854 19.4132 5.0001 19.4299H13.2601C14.0649 19.3765 14.6834 18.6962 14.6601 17.8899C14.6764 17.0733 15.3433 16.4198 16.1601 16.4199H19.9801Z" fill="black"/>
<path fill-rule="evenodd" clip-rule="evenodd" d="M13.1001 7.99995C13.1001 10.2091 11.3092 11.9999 9.1001 11.9999C6.89096 11.9999 5.1001 10.2091 5.1001 7.99995V6.42995C5.1001 4.57427 6.60443 3.06995 8.4601 3.06995H9.7701C11.6141 3.08641 13.1002 4.58592 13.1001 6.42995V7.99995ZM8.4601 4.56995C7.43285 4.56995 6.6001 5.4027 6.6001 6.42995L6.6301 7.99995C6.78969 9.25912 7.86086 10.2031 9.1301 10.2031C10.3993 10.2031 11.4705 9.25912 11.6301 7.99995V6.42995C11.6301 5.4027 10.7974 4.56995 9.7701 4.56995H8.4601Z" fill="black"/>
<path fill-rule="evenodd" clip-rule="evenodd" d="M20.6801 8.24995C20.6801 9.9068 19.337 11.2499 17.6801 11.2499C16.0233 11.2499 14.6801 9.9068 14.6801 8.24995V7.09995C14.6799 5.72366 15.784 4.60179 17.1601 4.57995H18.1601C19.5519 4.57995 20.6801 5.70819 20.6801 7.09995V8.24995ZM17.1801 6.09995C16.6278 6.09995 16.1801 6.54766 16.1801 7.09995V8.24995C16.1801 9.07837 16.8517 9.74995 17.6801 9.74995C18.5085 9.74995 19.1801 9.07837 19.1801 8.24995V7.09995C19.1801 6.54766 18.7324 6.09995 18.1801 6.09995H17.1801Z" fill="black"/>
</svg>
