<svg width="24" height="24" viewBox="0 0 24 24" fill="none" xmlns="http://www.w3.org/2000/svg">
<path d="M22.14 11.25H17.3C16.8858 11.25 16.55 11.5858 16.55 12C16.55 12.4142 16.8858 12.75 17.3 12.75H22.14C22.5542 12.75 22.89 12.4142 22.89 12C22.89 11.5858 22.5542 11.25 22.14 11.25Z" fill="black"/>
<path fill-rule="evenodd" clip-rule="evenodd" d="M12.6 4.54998C12.9328 4.32204 13.3267 4.20003 13.73 4.19998C14.2761 4.18621 14.804 4.39638 15.1912 4.78167C15.5783 5.16697 15.7911 5.69386 15.78 6.23998V17.68C15.8063 18.443 15.3958 19.1544 14.7221 19.5136C14.0483 19.8728 13.2289 19.8171 12.61 19.37L6.73 15.45C6.39405 15.2299 6.00159 15.1118 5.6 15.11H4C2.89543 15.11 2 14.2145 2 13.11V10.81C2 9.70541 2.89543 8.80998 4 8.80998H5.59C5.99159 8.80811 6.38405 8.69002 6.72 8.46998L12.6 4.54998ZM13.73 18.3C14.0282 18.3 14.27 18.0582 14.27 17.76L14.32 6.23998C14.32 5.94174 14.0782 5.69998 13.78 5.69998C13.6734 5.70027 13.5692 5.73154 13.48 5.78998L7.6 9.71998C7.00664 10.1107 6.31044 10.3161 5.6 10.31H4C3.70176 10.31 3.46 10.5517 3.46 10.85V13.15C3.46 13.4482 3.70176 13.69 4 13.69H5.55C6.26044 13.6838 6.95664 13.8892 7.55 14.28L13.43 18.21C13.5192 18.2684 13.6234 18.2997 13.73 18.3Z" fill="black"/>
</svg>
