<svg width="24" height="24" viewBox="0 0 24 24" fill="none" xmlns="http://www.w3.org/2000/svg">
<path d="M21.7203 11.25H20.0503V9.58C20.0503 9.16578 19.7145 8.83 19.3003 8.83C18.8861 8.83 18.5503 9.16578 18.5503 9.58V11.25H16.8803C16.4661 11.25 16.1303 11.5858 16.1303 12C16.1303 12.4142 16.4661 12.75 16.8803 12.75H18.5503V14.42C18.5503 14.8342 18.8861 15.17 19.3003 15.17C19.7145 15.17 20.0503 14.8342 20.0503 14.42V12.75H21.7203C22.1345 12.75 22.4703 12.4142 22.4703 12C22.4703 11.5858 22.1345 11.25 21.7203 11.25Z" fill="black"/>
<path d="M12.1803 4.55L6.30031 8.47C5.96437 8.69004 5.5719 8.80813 5.17031 8.81H3.57031C2.46574 8.81 1.57031 9.70543 1.57031 10.81V13.11C1.57031 14.2146 2.46574 15.11 3.57031 15.11H5.17031C5.5719 15.1119 5.96437 15.23 6.30031 15.45L12.1803 19.37C12.7992 19.8171 13.6187 19.8728 14.2924 19.5136C14.9661 19.1545 15.3766 18.443 15.3503 17.68V6.24C15.3766 5.47696 14.9661 4.76553 14.2924 4.40635C13.6187 4.04717 12.7992 4.1029 12.1803 4.55Z" fill="black"/>
</svg>
