<svg width="24" height="24" viewBox="0 0 24 24" fill="none" xmlns="http://www.w3.org/2000/svg">
<path d="M21.7203 11.25H20.0503V9.57999C20.0503 9.16578 19.7145 8.82999 19.3003 8.82999C18.8861 8.82999 18.5503 9.16578 18.5503 9.57999V11.25H16.8803C16.4661 11.25 16.1303 11.5858 16.1303 12C16.1303 12.4142 16.4661 12.75 16.8803 12.75H18.5503V14.42C18.5503 14.8342 18.8861 15.17 19.3003 15.17C19.7145 15.17 20.0503 14.8342 20.0503 14.42V12.75H21.7203C22.1345 12.75 22.4703 12.4142 22.4703 12C22.4703 11.5858 22.1345 11.25 21.7203 11.25Z" fill="black"/>
<path fill-rule="evenodd" clip-rule="evenodd" d="M12.1803 4.54999C12.5131 4.32205 12.907 4.20005 13.3103 4.19999C13.8547 4.18899 14.3799 4.40039 14.7649 4.78537C15.1499 5.17036 15.3613 5.69565 15.3503 6.23999V17.68C15.3766 18.443 14.9661 19.1545 14.2924 19.5136C13.6187 19.8728 12.7992 19.8171 12.1803 19.37L6.30031 15.45C5.96437 15.23 5.5719 15.1119 5.17031 15.11H3.57031C2.46574 15.11 1.57031 14.2146 1.57031 13.11V10.81C1.57031 9.70542 2.46574 8.80999 3.57031 8.80999H5.17031C5.5719 8.80812 5.96437 8.69004 6.30031 8.46999L12.1803 4.54999ZM13.3103 18.3C13.6086 18.3 13.8503 18.0582 13.8503 17.76L13.8403 6.23999C13.8403 6.09678 13.7834 5.95943 13.6822 5.85816C13.5809 5.75689 13.4435 5.69999 13.3003 5.69999C13.1937 5.70028 13.0895 5.73155 13.0003 5.78999L7.14032 9.71999C6.54697 10.1108 5.85076 10.3161 5.14032 10.31H3.54032C3.24208 10.31 3.00032 10.5518 3.00032 10.85V13.15C3.00009 13.2986 3.06108 13.4407 3.16894 13.5428C3.27679 13.645 3.42198 13.6982 3.57032 13.69H5.13032C5.84076 13.6838 6.53696 13.8892 7.13032 14.28L13.0103 18.21C13.0995 18.2684 13.2037 18.2997 13.3103 18.3Z" fill="black"/>
</svg>
