<svg width="24" height="24" viewBox="0 0 24 24" fill="none" xmlns="http://www.w3.org/2000/svg">
<path d="M21.7203 11.2501H16.8803C16.4661 11.2501 16.1303 11.5858 16.1303 12.0001C16.1303 12.4143 16.4661 12.7501 16.8803 12.7501H21.7203C22.1345 12.7501 22.4703 12.4143 22.4703 12.0001C22.4703 11.5858 22.1345 11.2501 21.7203 11.2501Z" fill="black"/>
<path d="M12.1803 4.55006L6.30031 8.47006C5.96437 8.6901 5.5719 8.80819 5.17031 8.81006H3.57031C2.46574 8.81006 1.57031 9.70549 1.57031 10.8101V13.1101C1.57031 14.2146 2.46574 15.1101 3.57031 15.1101H5.17031C5.5719 15.1119 5.96437 15.23 6.30031 15.4501L12.1803 19.3701C12.7992 19.8172 13.6187 19.8729 14.2924 19.5137C14.9661 19.1545 15.3766 18.4431 15.3503 17.6801V6.24006C15.3766 5.47702 14.9661 4.76559 14.2924 4.40641C13.6187 4.04723 12.7992 4.10296 12.1803 4.55006Z" fill="black"/>
</svg>
