<svg width="24" height="24" viewBox="0 0 24 24" fill="none" xmlns="http://www.w3.org/2000/svg">
<path fill-rule="evenodd" clip-rule="evenodd" d="M16.5102 3.88003C16.8742 3.63709 17.3025 3.50826 17.7402 3.51003C18.3366 3.49652 18.9132 3.72476 19.3389 4.14287C19.7645 4.56097 20.003 5.1334 20.0002 5.73003V18.27C20.0039 19.0992 19.5473 19.8621 18.8146 20.2504C18.082 20.6388 17.1943 20.5886 16.5102 20.12L10.1102 15.85C9.74413 15.6022 9.31219 15.4698 8.87016 15.47H7.14016C6.54964 15.4727 5.98241 15.24 5.56391 14.8234C5.14541 14.4067 4.91015 13.8405 4.91016 13.25V10.75C4.91015 10.1595 5.14541 9.59332 5.56391 9.1767C5.98241 8.76009 6.54964 8.52737 7.14016 8.53003H8.87016C9.31219 8.53022 9.74413 8.39785 10.1102 8.15003L16.5102 3.88003ZM17.7402 18.99C18.1395 18.9901 18.4647 18.6693 18.4702 18.27V5.73003C18.4647 5.33077 18.1395 5.00999 17.7402 5.01003C17.5982 5.01135 17.4594 5.05296 17.3402 5.13003L10.9402 9.40003C10.3247 9.80045 9.60432 10.0093 8.87015 10H7.14015C6.93756 9.99955 6.74389 10.0833 6.60545 10.2312C6.46702 10.3791 6.39628 10.5779 6.41015 10.78V13.28C6.41562 13.6793 6.74086 14.0001 7.14015 14H8.87015C9.60432 13.9908 10.3247 14.1996 10.9402 14.6L17.3402 18.87C17.4594 18.9471 17.5982 18.9887 17.7402 18.99Z" fill="black"/>
</svg>
