<svg width="24" height="24" viewBox="0 0 24 24" fill="none" xmlns="http://www.w3.org/2000/svg">
<path d="M16.0697 3.87998L9.66973 8.14998C9.3037 8.39781 8.87176 8.53018 8.42973 8.52998H6.69973C6.10922 8.52732 5.54198 8.76004 5.12348 9.17666C4.70498 9.59328 4.46972 10.1595 4.46973 10.75V13.25C4.46972 13.8405 4.70498 14.4067 5.12348 14.8233C5.54198 15.2399 6.10922 15.4726 6.69973 15.47H8.42973C8.87176 15.4698 9.3037 15.6022 9.66973 15.85L16.0697 20.12C16.753 20.5718 17.6289 20.6127 18.3512 20.2264C19.0736 19.8402 19.526 19.0891 19.5297 18.27V5.72998C19.526 4.91088 19.0736 4.15975 18.3512 3.77353C17.6289 3.38731 16.753 3.42818 16.0697 3.87998Z" fill="black"/>
</svg>
