<svg width="24" height="24" viewBox="0 0 24 24" fill="none" xmlns="http://www.w3.org/2000/svg">
<path fill-rule="evenodd" clip-rule="evenodd" d="M22 15.8182C22 18.3286 19.9649 20.3636 17.4545 20.3636H6.54545C4.03507 20.3636 2 18.3286 2 15.8182V8.54545C2 6.03507 4.03507 4 6.54545 4H17.4545C19.9649 4 22 6.03507 22 8.54545V15.8182ZM6.54545 5.62727H17.4545C19.0662 5.62727 20.3727 6.93379 20.3727 8.54545V9.45455H17.4545C15.9483 9.45455 14.7273 10.6756 14.7273 12.1818C14.7273 13.688 15.9483 14.9091 17.4545 14.9091H20.3727V15.8182C20.3727 17.4298 19.0662 18.7364 17.4545 18.7364H6.54545C4.93379 18.7364 3.62727 17.4298 3.62727 15.8182V8.54545C3.62727 6.93379 4.93379 5.62727 6.54545 5.62727ZM20.3727 13.2818V11.0818H17.4545C16.847 11.0818 16.3545 11.5743 16.3545 12.1818C16.3545 12.7893 16.847 13.2818 17.4545 13.2818H20.3727Z" fill="black"/>
</svg>
