<svg width="24" height="24" viewBox="0 0 24 24" fill="none" xmlns="http://www.w3.org/2000/svg">
<path fill-rule="evenodd" clip-rule="evenodd" d="M14.24 2H10C5.58172 2 2 5.58172 2 10V14.24C2 18.6583 5.58172 22.24 10 22.24H14.24C18.6583 22.24 22.24 18.6583 22.24 14.24V10C22.24 7.87827 21.3971 5.84344 19.8969 4.34315C18.3966 2.84285 16.3617 2 14.24 2ZM13.5 16.36C13.5443 16.8792 13.2924 17.3792 12.8486 17.6524C12.4049 17.9257 11.8451 17.9257 11.4014 17.6524C10.9576 17.3792 10.7057 16.8792 10.75 16.36C10.7607 15.6079 11.3679 15.0007 12.12 14.99C12.8534 14.9996 13.4531 15.5775 13.49 16.31L13.5 16.36ZM14.97 15C15.2068 15.0033 15.4305 14.8914 15.57 14.7C15.6953 14.5412 15.7501 14.3381 15.7218 14.1379C15.6935 13.9377 15.5844 13.7578 15.42 13.64C13.4548 12.1913 10.7752 12.1913 8.81 13.64C8.47587 13.8885 8.40647 14.3609 8.655 14.695C8.90353 15.0291 9.37587 15.0985 9.71 14.85C11.1343 13.7783 13.0957 13.7783 14.52 14.85C14.6508 14.9455 14.8081 14.9979 14.97 15ZM17.29 12.55C17.0384 12.8781 16.5688 12.9407 16.24 12.69C15.0665 11.7815 13.6241 11.289 12.14 11.29C10.6495 11.2972 9.20235 11.7924 8.02 12.7C7.89052 12.798 7.73239 12.8507 7.57 12.85C7.33602 12.8508 7.11469 12.7439 6.97 12.56C6.75168 12.2405 6.81232 11.8073 7.11 11.56C8.54599 10.4595 10.3009 9.85584 12.11 9.84C13.9197 9.84265 15.6777 10.4439 17.11 11.55C17.4255 11.783 17.5045 12.2216 17.29 12.55ZM18.39 10.71C18.625 10.7156 18.8484 10.6076 18.99 10.42C19.2524 10.1043 19.2123 9.6364 18.9 9.37C14.9369 6.30464 9.40309 6.30464 5.44 9.37C5.11066 9.62522 5.04821 10.098 5.3 10.43C5.55011 10.7244 5.98293 10.7807 6.3 10.56C9.72204 7.89401 14.518 7.89401 17.94 10.56C18.0695 10.658 18.2276 10.7107 18.39 10.71Z" fill="black"/>
</svg>
