<svg width="24" height="24" viewBox="0 0 24 24" fill="none" xmlns="http://www.w3.org/2000/svg">
<path d="M12.5417 17.31C12.1497 17.0503 11.6496 17.017 11.2265 17.2223C10.8034 17.4277 10.5202 17.8413 10.4817 18.31V18.37C10.5415 19.0573 11.1169 19.5848 11.8067 19.5848C12.4966 19.5848 13.072 19.0573 13.1317 18.37V18.31C13.0986 17.9039 12.8812 17.5354 12.5417 17.31Z" fill="black"/>
<path d="M6.79174 14.4C6.47828 14.6361 6.4076 15.0778 6.63174 15.4C6.87067 15.7088 7.3084 15.7788 7.63174 15.56C10.0707 13.7548 13.4028 13.7548 15.8417 15.56C15.9689 15.6624 16.1286 15.7156 16.2917 15.71C16.5898 15.7035 16.8548 15.5187 16.9641 15.2413C17.0733 14.9639 17.0053 14.648 16.7917 14.44C13.8303 12.2278 9.77079 12.2116 6.79174 14.4Z" fill="black"/>
<path d="M22.2517 7.61C19.255 5.29266 15.5799 4.02426 11.7917 4C8.00533 4.01482 4.32923 5.2765 1.33174 7.59C1.09883 7.74649 0.972754 8.01991 1.00497 8.29865C1.03719 8.5774 1.22232 8.81485 1.48479 8.91408C1.74727 9.0133 2.04318 8.95772 2.25174 8.77C4.98561 6.66054 8.33867 5.51122 11.7917 5.5C15.2553 5.51466 18.6167 6.67496 21.3517 8.8C21.5074 8.92414 21.7065 8.98033 21.9041 8.95587C22.1017 8.9314 22.2811 8.82836 22.4017 8.67C22.5243 8.51022 22.5774 8.30789 22.5492 8.10852C22.521 7.90916 22.4138 7.72951 22.2517 7.61Z" fill="black"/>
<path d="M11.7917 8.37C8.98944 8.37164 6.267 9.30374 4.05174 11.02C3.72363 11.2716 3.66101 11.7412 3.91174 12.07C4.05538 12.2564 4.2764 12.367 4.51174 12.37C4.68149 12.3788 4.84962 12.3332 4.99174 12.24C9.00577 9.12761 14.6177 9.12761 18.6317 12.24C18.9609 12.4662 19.4096 12.3947 19.6523 12.0775C19.8949 11.7602 19.8463 11.3084 19.5417 11.05C17.3291 9.31818 14.6015 8.37495 11.7917 8.37Z" fill="black"/>
</svg>
