<svg width="24" height="24" viewBox="0 0 24 24" fill="none" xmlns="http://www.w3.org/2000/svg">
<path fill-rule="evenodd" clip-rule="evenodd" d="M12.5 3C7.25329 3 3 7.25329 3 12.5C3 17.7467 7.25329 22 12.5 22C17.7467 22 22 17.7467 22 12.5C22 9.98044 20.9991 7.56408 19.2175 5.78249C17.4359 4.00089 15.0196 3 12.5 3ZM10.82 10.88C10.3912 10.88 9.96248 11.3075 9.53249 11.7363C9.1 12.1675 8.66625 12.6 8.23 12.6C8.00026 12.5945 7.77828 12.6833 7.61578 12.8458C7.45329 13.0083 7.36446 13.2303 7.37 13.46L8.23 15.19C8.23 15.19 8.23 17.78 9.1 18.64C9.97 19.5 9.1 19.5 9.1 19.5C6.57748 18.4857 4.8331 16.147 4.58 13.44C4.38077 11.4439 4.95328 9.44724 6.18 7.86C6.31844 7.67197 6.53471 7.55692 6.76801 7.5472C7.0013 7.53748 7.2264 7.63414 7.38 7.81C7.574 8.09269 7.88774 8.26986 8.23 8.29C9.1 8.29 11.69 10.88 10.82 10.88ZM18.0299 14.9379C18.5279 15.2112 18.9988 15.4696 19.33 15.32C20.78 14.67 20.28 10.8 20.28 10.8C20.28 10.8 19.55 7.42 17.6 6.69C17.3332 6.60105 17.1299 6.97233 16.8999 7.39243C16.6385 7.86971 16.3427 8.41 15.88 8.41C15.01 8.41 14.15 8.42 14.15 9.28C14.15 9.71 14.5825 10.1425 15.015 10.575C15.4475 11.0075 15.88 11.44 15.88 11.87C15.88 12.73 15.88 14.45 16.74 14.45C17.1407 14.45 17.5956 14.6996 18.0299 14.9379Z" fill="black"/>
</svg>
