<svg width="24" height="24" viewBox="0 0 24 24" fill="none" xmlns="http://www.w3.org/2000/svg">
<path fill-rule="evenodd" clip-rule="evenodd" d="M2.72934 7.88227C4.2091 4.31774 7.6908 1.99596 11.5503 2.00001C14.0795 2 16.505 3.00543 18.2925 4.79481C20.0801 6.5842 21.0829 9.01076 21.0803 11.54C21.0803 15.3995 18.7548 18.8787 15.1888 20.3548C11.6227 21.8308 7.51857 21.0128 4.79094 18.2823C2.06331 15.5518 1.24958 11.4468 2.72934 7.88227ZM19.0303 14.44C19.3794 13.5133 19.5557 12.5303 19.5503 11.54C19.5727 9.7187 18.973 7.94425 17.8503 6.51001C17.4003 7.26001 16.5503 8.38001 15.5003 8.38001C15.0963 8.34753 14.6898 8.38818 14.3003 8.50001V8.61001C14.3003 8.79001 14.7903 9.28001 15.0503 9.54001C15.6978 10.0228 16.129 10.7414 16.2503 11.54C16.2503 13.14 16.4103 13.63 16.5503 13.75C17.4148 13.8118 18.2581 14.0465 19.0303 14.44ZM3.55027 11.54C3.54118 9.76105 4.1253 8.02982 5.21027 6.62001C5.49363 7.13679 6.04105 7.45291 6.63028 7.44001C7.43942 7.84799 8.15463 8.42016 8.73028 9.12001C8.30673 9.38043 7.92281 9.70037 7.59028 10.07C7.55941 10.0997 7.5258 10.1325 7.49019 10.1671C7.21432 10.4358 6.81855 10.8211 6.65028 10.83C6.1873 10.816 5.73909 10.9938 5.41157 11.3213C5.08405 11.6488 4.90628 12.097 4.92027 12.56C4.92171 12.6746 4.94906 12.7874 5.00027 12.89L5.90027 14.69C5.91176 15.7253 6.07689 16.7532 6.39028 17.74C4.56605 16.2005 3.52457 13.9269 3.55027 11.54ZM8.82028 19.06C9.69541 19.3776 10.6193 19.5401 11.5503 19.54V19.57C14.3025 19.5885 16.871 18.1909 18.3503 15.87C17.7471 15.5779 17.1031 15.379 16.4403 15.28C14.7103 15.28 14.7103 12.8 14.7103 11.6C14.7103 11.4188 14.2645 10.9737 13.989 10.6987C13.9757 10.6854 13.9627 10.6725 13.9503 10.66C13.3073 10.1746 12.8801 9.45664 12.7603 8.66001C12.7603 6.93001 14.5203 6.93001 15.4603 6.93001C15.7203 6.92001 16.3403 6.18001 16.7203 5.44001C13.755 2.92987 9.41497 2.913 6.43028 5.40001C6.44541 5.48601 6.44541 5.574 6.43028 5.66001C6.44028 5.90001 6.55028 5.90001 6.66028 5.90001C7.86028 5.90001 10.5503 8.34001 10.5903 9.48001C10.5919 9.73708 10.4834 9.98257 10.2924 10.1545C10.1013 10.3265 9.84577 10.4086 9.59028 10.38C9.41028 10.39 8.92028 10.88 8.66028 11.14C8.17381 11.7835 7.45701 12.2136 6.66028 12.34C6.58028 12.34 6.46028 12.34 6.46028 12.44L7.33028 14.11C7.38149 14.2126 7.40884 14.3254 7.41028 14.44C7.41028 15.53 7.65028 17.3 8.17028 17.83C8.53309 18.1443 8.76499 18.5832 8.82028 19.06Z" fill="black"/>
</svg>
