<svg width="24" height="24" viewBox="0 0 24 24" fill="none" xmlns="http://www.w3.org/2000/svg">
<path fill-rule="evenodd" clip-rule="evenodd" d="M10.908 5C11.2649 4.38183 11.9242 4.00073 12.638 4L12.648 4.02C13.7525 4.02 14.648 4.91543 14.648 6.02V10.13H16.688C17.4268 10.1277 18.1068 10.5329 18.4563 11.1838C18.8058 11.8348 18.768 12.6254 18.358 13.24L13.808 20.1C13.3177 20.8295 12.4086 21.1535 11.5675 20.8984C10.7264 20.6433 10.1504 19.869 10.148 18.99V16.14H8.00796C7.29201 16.1428 6.62915 15.7628 6.26994 15.1435C5.91073 14.5241 5.90997 13.76 6.26796 13.14L10.908 5ZM12.998 5.64286C12.9021 5.5488 12.7723 5.49731 12.638 5.5C12.4549 5.50062 12.2881 5.60535 12.208 5.77L7.56796 13.89C7.48308 14.0451 7.48645 14.2335 7.57682 14.3855C7.6672 14.5375 7.83113 14.6305 8.00796 14.63H10.648C11.2002 14.63 11.648 15.0777 11.648 15.63V18.98C11.6506 19.1972 11.7932 19.3879 12.0009 19.4518C12.2085 19.5156 12.4336 19.4382 12.558 19.26L17.128 12.39C17.2321 12.2359 17.2422 12.0367 17.154 11.8729C17.0658 11.7091 16.894 11.6079 16.708 11.61H14.148C13.5957 11.61 13.148 11.1623 13.148 10.61V6C13.148 5.86564 13.0939 5.73692 12.998 5.64286Z" fill="black"/>
</svg>
